<svg width="74" height="79" viewBox="0 0 74 79" fill="none" xmlns="http://www.w3.org/2000/svg">
<g clip-path="url(#clip0)">
<g filter="url(#filter0_d)">
<path d="M10.899 21L37.0001 35.5L63.1012 21L38.457 7.30935C37.5509 6.80601 36.4492 6.80601 35.5432 7.30935L10.899 21Z" fill="#356EFF" fill-opacity="0.01"/>
<path d="M10.8988 21V48.2348C10.8988 49.3243 11.4895 50.3281 12.4419 50.8572L36.9998 64.5V35.5L10.8988 21Z" fill="#356EFF" fill-opacity="0.01"/>
<path d="M37 35.5V64.5L61.5579 50.8572C62.5103 50.3281 63.101 49.3243 63.101 48.2348V21L37 35.5Z" fill="#356EFF" fill-opacity="0.01"/>
</g>
<path d="M10.899 21L37.0001 35.5L63.1012 21L38.457 7.30935C37.5509 6.80601 36.4492 6.80601 35.5432 7.30935L10.899 21Z" fill="#8EAEFF"/>
<path d="M10.8988 21V48.2348C10.8988 49.3243 11.4895 50.3281 12.4419 50.8572L36.9998 64.5V35.5L10.8988 21Z" fill="#B9CDFF"/>
<path d="M37 35.5V64.5L61.5579 50.8572C62.5103 50.3281 63.101 49.3243 63.101 48.2348V21L37 35.5Z" fill="#356EFF"/>
</g>
<defs>
<filter id="filter0_d" x="0.898804" y="0.931845" width="72.2023" height="77.5682" filterUnits="userSpaceOnUse" color-interpolation-filters="sRGB">
<feFlood flood-opacity="0" result="BackgroundImageFix"/>
<feColorMatrix in="SourceAlpha" type="matrix" values="0 0 0 0 0 0 0 0 0 0 0 0 0 0 0 0 0 0 127 0"/>
<feOffset dy="4"/>
<feGaussianBlur stdDeviation="5"/>
<feColorMatrix type="matrix" values="0 0 0 0 0.191667 0 0 0 0 0.418 0 0 0 0 1 0 0 0 0.23 0"/>
<feBlend mode="normal" in2="BackgroundImageFix" result="effect1_dropShadow"/>
<feBlend mode="normal" in="SourceGraphic" in2="effect1_dropShadow" result="shape"/>
</filter>
<clipPath id="clip0">
<rect width="74" height="78" fill="white" transform="translate(0 0.5)"/>
</clipPath>
</defs>
</svg>
