<svg width="128" height="132" viewBox="0 0 128 132" fill="none" xmlns="http://www.w3.org/2000/svg">
<g clip-path="url(#clip0)">
<path opacity="0.08" fill-rule="evenodd" clip-rule="evenodd" d="M97.1843 111.31C77.2606 127.382 49.472 131.953 27.7121 117.842C6.69087 104.211 1.09687 77.0977 7.33461 53.0462C13.2383 30.2827 31.9228 13.8261 55.31 11.4309C82.1288 8.68428 112.17 16.1563 122.684 41.2328C133.411 66.819 118.499 94.1164 97.1843 111.31Z" fill="white"/>
<path d="M27.5781 83.0848C27.5798 79.168 28.6463 75.3253 30.6633 71.9678C32.6804 68.6103 35.5721 65.8642 39.0294 64.0233C42.4866 62.1825 46.3793 61.316 50.2909 61.5167C54.2026 61.7173 57.9861 62.9775 61.2369 65.1625" stroke="white" stroke-width="4" stroke-linecap="round" stroke-linejoin="round"/>
<path d="M49.1812 56.6807C56.4723 56.6807 62.3829 50.7701 62.3829 43.479C62.3829 36.1879 56.4723 30.2773 49.1812 30.2773C41.8901 30.2773 35.9795 36.1879 35.9795 43.479C35.9795 50.7701 41.8901 56.6807 49.1812 56.6807Z" stroke="white" stroke-width="4" stroke-linecap="round" stroke-linejoin="round"/>
<path d="M82.6128 65.2576L87.5478 75.883H97.1491C97.6333 75.864 98.1115 75.995 98.5184 76.2581C98.9254 76.5212 99.2411 76.9035 99.4225 77.3528C99.6039 77.8022 99.6422 78.2966 99.532 78.7684C99.4218 79.2403 99.1685 79.6666 98.8069 79.9891L90.4858 88.1886L95.104 98.7948C95.3056 99.2804 95.3499 99.8169 95.2308 100.329C95.1117 100.841 94.8351 101.303 94.4399 101.65C94.0447 101.997 93.5508 102.211 93.0276 102.263C92.5043 102.314 91.9781 102.2 91.5227 101.938L80.3629 95.6616L69.2063 101.938C68.7509 102.202 68.2241 102.316 67.7002 102.265C67.1763 102.214 66.6815 102 66.2857 101.653C65.8899 101.306 65.6129 100.844 65.4938 100.331C65.3747 99.818 65.4195 99.2807 65.6218 98.7948L70.24 88.1886L61.9189 79.9891C61.5579 79.6691 61.3041 79.2458 61.1921 78.7765C61.0801 78.3072 61.1153 77.8149 61.2929 77.3663C61.4705 76.9178 61.7819 76.5348 62.1848 76.2694C62.5877 76.004 63.0625 75.8691 63.5447 75.883H73.146L78.0874 65.248C78.306 64.8373 78.6325 64.4938 79.0317 64.2547C79.4308 64.0155 79.8876 63.8896 80.353 63.8906C80.8183 63.8916 81.2746 64.0194 81.6728 64.2603C82.0709 64.5011 82.3959 64.8459 82.6128 65.2576Z" stroke="white" stroke-width="4" stroke-linecap="round" stroke-linejoin="round"/>
</g>
<defs>
<clipPath id="clip0">
<rect width="128" height="132" fill="white"/>
</clipPath>
</defs>
</svg>
