<svg width="195" height="36" viewBox="0 0 195 36" fill="none" xmlns="http://www.w3.org/2000/svg">
<path d="M68.6358 24.8014C67.0889 24.8014 65.7253 24.4656 64.5448 23.7939C63.3643 23.1223 62.428 22.186 61.736 20.9852C61.0643 19.7843 60.7285 18.4105 60.7285 16.8636C60.7285 15.3167 61.0643 13.9429 61.736 12.742C62.428 11.5412 63.3643 10.6049 64.5448 9.93327C65.7253 9.26161 67.0889 8.92578 68.6358 8.92578C70.5694 8.92578 72.1976 9.43462 73.5206 10.4523C74.8436 11.4496 75.6883 12.8336 76.0546 14.6044H71.9331C71.7295 13.8717 71.3225 13.3018 70.7118 12.8947C70.1216 12.4673 69.4194 12.2536 68.6053 12.2536C67.5265 12.2536 66.6106 12.6606 65.8576 13.4748C65.1045 14.2889 64.728 15.4185 64.728 16.8636C64.728 18.3087 65.1045 19.4383 65.8576 20.2524C66.6106 21.0666 67.5265 21.4736 68.6053 21.4736C69.4194 21.4736 70.1216 21.2701 70.7118 20.863C71.3225 20.456 71.7295 19.8759 71.9331 19.1228H76.0546C75.6883 20.8325 74.8436 22.2064 73.5206 23.2444C72.1976 24.2824 70.5694 24.8014 68.6358 24.8014Z" fill="#1A1C47"/>
<path d="M86.1787 24.8014C84.7132 24.8014 83.3903 24.4656 82.2098 23.7939C81.0496 23.1223 80.1235 22.1962 79.4315 21.0157C78.7599 19.8148 78.424 18.4308 78.424 16.8636C78.424 15.2964 78.77 13.9225 79.4621 12.742C80.1541 11.5412 81.0801 10.6049 82.2403 9.93327C83.4208 9.26161 84.7438 8.92578 86.2092 8.92578C87.6543 8.92578 88.9569 9.26161 90.1171 9.93327C91.2975 10.6049 92.2236 11.5412 92.8953 12.742C93.5873 13.9225 93.9333 15.2964 93.9333 16.8636C93.9333 18.4308 93.5873 19.8148 92.8953 21.0157C92.2236 22.1962 91.2975 23.1223 90.1171 23.7939C88.9366 24.4656 87.6238 24.8014 86.1787 24.8014ZM86.1787 21.4126C87.1963 21.4126 88.0817 21.036 88.8348 20.283C89.5879 19.5095 89.9644 18.3698 89.9644 16.8636C89.9644 15.3575 89.5879 14.2278 88.8348 13.4748C88.0817 12.7013 87.2065 12.3146 86.2092 12.3146C85.1712 12.3146 84.2756 12.7013 83.5226 13.4748C82.7898 14.2278 82.4235 15.3575 82.4235 16.8636C82.4235 18.3698 82.7898 19.5095 83.5226 20.283C84.2756 21.036 85.161 21.4126 86.1787 21.4126Z" fill="#1A1C47"/>
<path d="M96.8167 24.4351V9.29214H100.267L100.602 11.3377C101.091 10.6049 101.732 10.0249 102.526 9.59744C103.34 9.14967 104.276 8.92578 105.335 8.92578C107.675 8.92578 109.334 9.83151 110.311 11.643C110.861 10.8085 111.593 10.147 112.509 9.6585C113.445 9.17002 114.463 8.92578 115.562 8.92578C117.536 8.92578 119.053 9.51603 120.111 10.6965C121.17 11.877 121.699 13.6071 121.699 15.8866V24.4351H117.791V16.253C117.791 14.9504 117.536 13.9531 117.028 13.2611C116.539 12.569 115.776 12.223 114.738 12.223C113.68 12.223 112.825 12.6097 112.173 13.3832C111.542 14.1566 111.227 15.2353 111.227 16.6194V24.4351H107.319V16.253C107.319 14.9504 107.065 13.9531 106.556 13.2611C106.047 12.569 105.263 12.223 104.205 12.223C103.167 12.223 102.322 12.6097 101.671 13.3832C101.04 14.1566 100.725 15.2353 100.725 16.6194V24.4351H96.8167Z" fill="#1A1C47"/>
<path d="M124.798 31.1517V9.29214H128.279L128.706 11.4598C129.195 10.7881 129.836 10.1979 130.63 9.68903C131.444 9.1802 132.492 8.92578 133.774 8.92578C135.199 8.92578 136.471 9.27179 137.59 9.9638C138.71 10.6558 139.595 11.6023 140.246 12.8031C140.898 14.004 141.223 15.3676 141.223 16.8941C141.223 18.4206 140.898 19.7843 140.246 20.9852C139.595 22.1657 138.71 23.1019 137.59 23.7939C136.471 24.4656 135.199 24.8014 133.774 24.8014C132.634 24.8014 131.637 24.5877 130.782 24.1603C129.927 23.7329 129.235 23.1324 128.706 22.359V31.1517H124.798ZM132.95 21.3821C134.191 21.3821 135.219 20.9648 136.033 20.1303C136.847 19.2958 137.255 18.2171 137.255 16.8941C137.255 15.5712 136.847 14.4823 136.033 13.6274C135.219 12.7726 134.191 12.3451 132.95 12.3451C131.688 12.3451 130.65 12.7726 129.836 13.6274C129.042 14.4619 128.645 15.5406 128.645 16.8636C128.645 18.1866 129.042 19.2755 129.836 20.1303C130.65 20.9648 131.688 21.3821 132.95 21.3821Z" fill="#1A1C47"/>
<path d="M149.324 24.8014C148.022 24.8014 146.953 24.5979 146.119 24.1908C145.284 23.7634 144.663 23.2037 144.256 22.5117C143.849 21.8196 143.646 21.0564 143.646 20.2219C143.646 18.8175 144.195 17.6777 145.294 16.8025C146.394 15.9273 148.042 15.4897 150.24 15.4897H154.087V15.1234C154.087 14.0854 153.792 13.3221 153.202 12.8336C152.611 12.3451 151.879 12.1009 151.004 12.1009C150.21 12.1009 149.518 12.2943 148.928 12.681C148.337 13.0473 147.971 13.5969 147.828 14.3296H144.012C144.114 13.2305 144.48 12.2739 145.111 11.4598C145.763 10.6456 146.597 10.0249 147.615 9.59744C148.632 9.14967 149.772 8.92578 151.034 8.92578C153.192 8.92578 154.891 9.46514 156.133 10.5439C157.374 11.6226 157.995 13.1491 157.995 15.1234V24.4351H154.667L154.301 21.9927C153.853 22.8068 153.222 23.4784 152.408 24.0076C151.614 24.5368 150.586 24.8014 149.324 24.8014ZM150.21 21.7484C151.329 21.7484 152.194 21.3821 152.805 20.6493C153.436 19.9166 153.833 19.0109 153.996 17.9322H150.668C149.63 17.9322 148.887 18.1255 148.439 18.5122C147.991 18.8786 147.767 19.3365 147.767 19.8861C147.767 20.4763 147.991 20.9343 148.439 21.2599C148.887 21.5856 149.477 21.7484 150.21 21.7484Z" fill="#1A1C47"/>
<path d="M161.114 24.4351V9.29214H164.563L164.869 11.8567C165.337 10.9611 166.009 10.2487 166.884 9.71956C167.779 9.19037 168.827 8.92578 170.028 8.92578C171.901 8.92578 173.356 9.51603 174.394 10.6965C175.432 11.877 175.951 13.6071 175.951 15.8866V24.4351H172.043V16.253C172.043 14.9504 171.779 13.9531 171.25 13.2611C170.72 12.569 169.896 12.223 168.777 12.223C167.678 12.223 166.772 12.6097 166.059 13.3832C165.367 14.1566 165.021 15.2353 165.021 16.6194V24.4351H161.114Z" fill="#1A1C47"/>
<path d="M180.463 31.1517L183.974 23.4276H183.058L177.166 9.29214H181.41L185.654 19.9471L190.08 9.29214H194.232L184.615 31.1517H180.463Z" fill="#1A1C47"/>
<path d="M14.2683 28.7038C13.5548 29.4172 12.3978 29.4163 11.6856 28.7016L1.2858 18.266C0.575314 17.5531 0.576303 16.3995 1.28801 15.6878L11.6878 5.28801C12.3995 4.5763 13.5531 4.57531 14.266 5.2858L24.7016 15.6856C25.4163 16.3978 25.4173 17.5548 24.7038 18.2683L14.2683 28.7038Z" fill="#323582"/>
<path d="M27.2867 28.7016C26.5745 29.4163 25.4175 29.4173 24.7041 28.7038L14.2685 18.2683C13.5551 17.5548 13.5561 16.3978 14.2707 15.6856L24.7063 5.2858C25.4192 4.57531 26.5728 4.5763 27.2845 5.28801L37.6843 15.6878C38.396 16.3995 38.397 17.5531 37.6865 18.266L27.2867 28.7016Z" fill="#316BFF"/>
<path d="M36.9358 28.703C36.223 29.4169 35.0661 29.4169 34.3533 28.703L23.9339 18.2673C23.2218 17.5541 23.2228 16.3986 23.9361 15.6866L34.3555 5.28662C35.0678 4.57565 36.2213 4.57565 36.9336 5.28662L47.353 15.6866C48.0663 16.3986 48.0673 17.5541 47.3552 18.2673L36.9358 28.703Z" fill="#323582"/>
</svg>
