<svg width="292" height="283" viewBox="0 0 292 283" fill="none" xmlns="http://www.w3.org/2000/svg">
<path opacity="0.07" d="M20.9396 124.424C24.893 102.003 34.8313 81.0665 49.7039 63.8288C64.5764 46.591 83.8304 33.6923 105.43 26.4963C127.03 19.3003 150.173 18.0746 172.412 22.9486C194.651 27.8226 215.16 38.6152 231.77 54.1854C248.38 69.7556 260.474 89.5248 266.774 111.403C273.074 133.281 273.345 156.454 267.559 178.474C261.773 200.493 250.144 220.54 233.902 236.494C217.661 252.449 197.41 263.718 175.291 269.111L163.053 218.916C176.127 215.728 188.097 209.067 197.697 199.637C207.296 190.207 214.17 178.358 217.59 165.343C221.01 152.328 220.85 138.63 217.126 125.699C213.402 112.768 206.254 101.083 196.436 91.8794C186.618 82.6763 174.496 76.297 161.351 73.4162C148.206 70.5353 134.527 71.2598 121.76 75.5131C108.993 79.7665 97.6126 87.3906 88.8219 97.5793C80.0311 107.768 74.1568 120.143 71.8201 133.395L20.9396 124.424Z" fill="#316BFF"/>
</svg>
