<svg width="80" height="80" viewBox="0 0 80 80" fill="none" xmlns="http://www.w3.org/2000/svg">
<path opacity="0.08" fill-rule="evenodd" clip-rule="evenodd" d="M42.1241 5.01095C57.9453 5.31703 72.9212 14.1944 77.6187 29.5229C82.1569 44.3311 74.0322 59.3936 61.5212 68.3046C49.6802 76.7385 34.2929 77.1072 22.266 68.9483C8.47442 59.5923 -2.78287 44.1165 2.20287 28.0638C7.28996 11.6849 25.1985 4.6835 42.1241 5.01095Z" fill="white"/>
<path d="M46.7402 62.0704L46.7658 62.0853C49.0317 63.5279 51.7219 64.1545 54.392 63.8617C57.0621 63.5688 59.5526 62.374 61.4519 60.4746L63.1032 58.8234C63.8406 58.0849 64.2549 57.084 64.2549 56.0404C64.2549 54.9967 63.8406 53.9958 63.1032 53.2574L56.1462 46.3047C55.4078 45.5672 54.4069 45.153 53.3632 45.153C52.3196 45.153 51.3187 45.5672 50.5803 46.3047C50.2151 46.6703 49.7814 46.9604 49.3041 47.1583C48.8267 47.3562 48.3151 47.458 47.7983 47.458C47.2816 47.458 46.7699 47.3562 46.2926 47.1583C45.8152 46.9604 45.3816 46.6703 45.0164 46.3047L33.8845 35.1706C33.147 34.4322 32.7327 33.4313 32.7327 32.3877C32.7327 31.344 33.147 30.3431 33.8845 29.6047C34.2501 29.2395 34.5401 28.8059 34.738 28.3285C34.9359 27.8512 35.0378 27.3395 35.0378 26.8228C35.0378 26.306 34.9359 25.7943 34.738 25.317C34.5401 24.8397 34.2501 24.406 33.8845 24.0408L26.9297 17.0775C26.1913 16.34 25.1903 15.9258 24.1467 15.9258C23.1031 15.9258 22.1021 16.34 21.3637 17.0775L19.7125 18.7287C17.8134 20.6283 16.6187 23.1185 16.3255 25.7884C16.0323 28.4584 16.6581 31.1485 18.0996 33.4149L18.1167 33.4405C25.7401 44.7257 35.4567 54.4444 46.7402 62.0704V62.0704Z" stroke="white" stroke-width="2" stroke-linecap="round" stroke-linejoin="round"/>
</svg>
