<svg width="195" height="36" viewBox="0 0 195 36" fill="none" xmlns="http://www.w3.org/2000/svg">
<path d="M71.0459 18.8246C69.7413 20.9408 67.886 22.1584 65.4799 22.1584C62.0012 22.1584 59.4501 19.3464 59.4501 15.7228C59.4501 12.0991 61.8852 9.31612 65.5379 9.31612C67.857 9.31612 69.9443 10.6206 70.9879 12.5919L74.3506 9.92489C72.6403 6.88101 69.5384 5.05469 65.5959 5.05469C59.2762 5.05469 54.8408 9.75096 54.8408 15.7228C54.8408 21.6946 59.3632 26.4198 65.5379 26.4198C69.4224 26.4198 72.6693 24.3616 74.4376 21.4337L71.0459 18.8246Z" fill="#1A1C47"/>
<path d="M83.6462 10.8526C79.0079 10.8526 75.6742 14.2153 75.6742 18.6217C75.6742 22.9991 79.0079 26.4198 83.6462 26.4198C88.2845 26.4198 91.6183 22.9991 91.6183 18.6217C91.6183 14.2153 88.2845 10.8526 83.6462 10.8526ZM83.6462 14.7661C85.6465 14.7661 87.1539 16.3025 87.1539 18.6217C87.1539 20.9408 85.6465 22.5063 83.6462 22.5063C81.646 22.5063 80.1385 20.9408 80.1385 18.6217C80.1385 16.3025 81.646 14.7661 83.6462 14.7661Z" fill="#1A1C47"/>
<path d="M94.4984 11.2004V26.0719H98.9048V18.3318C98.9048 16.3895 99.9194 14.7371 101.775 14.7371C103.398 14.7371 104.442 15.7517 104.442 17.694V26.0719H108.848V18.3318C108.848 16.3895 109.863 14.7371 111.718 14.7371C113.341 14.7371 114.356 15.7517 114.356 17.694V26.0719H118.763V17.0273C118.763 13.1717 116.588 10.8526 113.023 10.8526C110.501 10.8526 109.08 11.9541 108.007 13.4616C106.993 11.8092 105.369 10.8526 103.079 10.8526C101.137 10.8526 99.6875 11.6063 98.7309 13.1137V11.2004H94.4984Z" fill="#1A1C47"/>
<path d="M130.323 14.7371C132.208 14.7371 133.773 16.2736 133.773 18.6797C133.773 20.9988 132.208 22.5352 130.323 22.5352C128.352 22.5352 126.816 21.0278 126.816 18.6797C126.816 16.2446 128.352 14.7371 130.323 14.7371ZM126.613 11.2004H122.525V31.8698H126.932V24.4485C127.859 25.84 129.628 26.4198 131.222 26.4198C135.281 26.4198 138.208 23.0571 138.208 18.6217C138.208 14.0414 135.049 10.8526 131.251 10.8526C129.802 10.8526 127.772 11.4613 126.613 13.2587V11.2004Z" fill="#1A1C47"/>
<path d="M148.808 16.8244L144.749 17.6071C141.618 18.2738 139.908 19.7813 139.908 21.9845C139.908 24.5645 141.937 26.4198 144.836 26.4198C146.807 26.4198 148.257 25.5501 148.953 24.2456V26.0719H153.04V16.7084C153.04 13.0847 150.576 10.8526 146.431 10.8526C143.648 10.8526 141.415 12.0121 140.053 13.6645L142.343 16.4475C143.242 15.4329 144.517 14.6502 146.17 14.6502C147.677 14.6502 148.808 15.2299 148.808 16.7084V16.8244ZM145.822 23.144C144.778 23.144 144.111 22.5642 144.111 21.7235C144.111 20.9118 144.691 20.39 145.88 20.1871L148.837 19.6073V20.0422C148.837 21.8105 147.648 23.144 145.822 23.144Z" fill="#1A1C47"/>
<path d="M156.752 11.2004V26.0719H161.158V18.3318C161.158 16.3895 162.173 14.7371 164.086 14.7371C165.71 14.7371 166.753 15.7517 166.753 17.694V26.0719H171.16V17.0273C171.16 13.1717 168.956 10.8526 165.391 10.8526C163.39 10.8526 161.941 11.6063 160.984 13.1137V11.2004H156.752Z" fill="#1A1C47"/>
<path d="M178.354 25.5211L178.18 26.014C177.543 28.1302 176.47 28.507 175.31 28.507C174.818 28.507 174.064 28.4491 173.281 28.0142V31.6669C173.948 31.9858 174.905 32.2177 175.948 32.2177C178.76 32.2177 180.558 30.8842 182.036 27.2895L188.53 11.2004H184.036L180.558 20.9408L177.108 11.2004H172.499L178.354 25.5211Z" fill="#1A1C47"/>
<path d="M26.7217 4H21.6035C21.2562 4 20.9746 4.28157 20.9746 4.6289V29.7522C20.9746 30.0996 21.2562 30.3811 21.6035 30.3811H26.7217C27.069 30.3811 27.3506 30.0996 27.3506 29.7522V4.6289C27.3506 4.28157 27.069 4 26.7217 4Z" fill="#323582"/>
<path d="M35.9047 30.3826C38.8979 30.3826 41.3245 27.956 41.3245 24.9628C41.3245 21.9695 38.8979 19.543 35.9047 19.543C32.9114 19.543 30.4849 21.9695 30.4849 24.9628C30.4849 27.956 32.9114 30.3826 35.9047 30.3826Z" fill="#316BFF"/>
<path d="M35.9047 14.8396C38.8979 14.8396 41.3245 12.4131 41.3245 9.4198C41.3245 6.42653 38.8979 4 35.9047 4C32.9114 4 30.4849 6.42653 30.4849 9.4198C30.4849 12.4131 32.9114 14.8396 35.9047 14.8396Z" fill="#316BFF"/>
<path d="M12.4198 30.3826C15.4131 30.3826 17.8396 27.956 17.8396 24.9628C17.8396 21.9695 15.4131 19.543 12.4198 19.543C9.42653 19.543 7 21.9695 7 24.9628C7 27.956 9.42653 30.3826 12.4198 30.3826Z" fill="#316BFF"/>
</svg>
