<svg width="195" height="36" viewBox="0 0 195 36" fill="none" xmlns="http://www.w3.org/2000/svg">
<path d="M27.3179 5C26.5199 5 25.738 5.07386 24.9814 5.21438C30.867 6.31151 35.3221 11.4747 35.3221 17.6773C35.3221 22.0983 31.7389 25.6815 27.3179 25.6815C22.897 25.6815 19.3138 22.0983 19.3138 17.6773C19.3138 14.0851 21.6792 11.0459 24.9381 10.0335L24.9453 10.01C24.2175 9.79205 23.4447 9.67496 22.6448 9.67496C18.2239 9.67496 14.6406 13.2582 14.6406 17.6791C14.6406 24.6817 20.3172 30.3565 27.3179 30.3565C34.3205 30.3565 39.9953 24.6799 39.9953 17.6791C39.9953 10.6766 34.3187 5 27.3179 5Z" fill="#323582"/>
<path d="M22.6773 5C15.6766 5 10 10.6766 10 17.6773C10 24.6799 15.6766 30.3547 22.6773 30.3547C23.4754 30.3547 24.2573 30.2808 25.0139 30.1403C19.1283 29.0431 14.6732 23.88 14.6732 17.6773C14.6732 13.2564 18.2564 9.67315 22.6773 9.67315C27.0983 9.67315 30.6815 13.2564 30.6815 17.6773C30.6815 21.2696 28.3161 24.3087 25.0571 25.3212L25.0499 25.3446C25.7777 25.5626 26.5506 25.6797 27.3505 25.6797C31.7714 25.6797 35.3547 22.0965 35.3547 17.6755C35.3565 10.6766 29.6799 5 22.6773 5Z" fill="#316BFF"/>
<path d="M67.2223 20.0967C67.0386 20.8774 66.7286 21.6352 66.2923 22.37C65.856 23.0819 65.3164 23.7248 64.6734 24.2989C64.0305 24.85 63.2957 25.2978 62.469 25.6422C61.6423 25.9637 60.7582 26.1244 59.8168 26.1244C58.7375 26.1244 57.7156 25.9178 56.7512 25.5045C55.8097 25.0682 54.9716 24.4826 54.2368 23.7478C53.5249 23.013 52.9508 22.1633 52.5145 21.1989C52.1012 20.2115 51.8945 19.1552 51.8945 18.03C51.8945 16.9048 52.1012 15.86 52.5145 14.8956C52.9508 13.9081 53.5249 13.047 54.2368 12.3122C54.9716 11.5774 55.8097 11.0033 56.7512 10.59C57.7156 10.1537 58.7375 9.93555 59.8168 9.93555C60.7582 9.93555 61.6423 10.1078 62.469 10.4522C63.2957 10.7737 64.0305 11.2215 64.6734 11.7955C65.3164 12.3467 65.856 12.9896 66.2923 13.7244C66.7286 14.4363 67.0386 15.1826 67.2223 15.9633H63.2612C63.0775 15.55 62.8249 15.1826 62.5034 14.8611C62.2279 14.5856 61.8719 14.333 61.4357 14.1033C60.9994 13.8507 60.4597 13.7244 59.8168 13.7244C58.6916 13.7244 57.7501 14.1148 56.9923 14.8956C56.2345 15.6763 55.8556 16.7211 55.8556 18.03C55.8556 19.3389 56.2345 20.3837 56.9923 21.1644C57.7501 21.9452 58.6916 22.3356 59.8168 22.3356C60.4597 22.3356 60.9994 22.2207 61.4357 21.9911C61.8719 21.7615 62.2279 21.5089 62.5034 21.2333C62.8249 20.9119 63.0775 20.533 63.2612 20.0967H67.2223Z" fill="#1A1C47"/>
<path d="M73.7668 18.03C73.7668 19.3389 74.1457 20.3837 74.9034 21.1644C75.6612 21.9452 76.6027 22.3356 77.7279 22.3356C78.8531 22.3356 79.7946 21.9452 80.5523 21.1644C81.3101 20.3837 81.689 19.3389 81.689 18.03C81.689 16.7211 81.3101 15.6763 80.5523 14.8956C79.7946 14.1148 78.8531 13.7244 77.7279 13.7244C76.6027 13.7244 75.6612 14.1148 74.9034 14.8956C74.1457 15.6763 73.7668 16.7211 73.7668 18.03ZM85.6501 18.03C85.6501 19.1552 85.432 20.2115 84.9957 21.1989C84.5823 22.1633 84.0083 23.013 83.2735 23.7478C82.5616 24.4826 81.7235 25.0682 80.759 25.5045C79.8175 25.9178 78.8072 26.1244 77.7279 26.1244C76.6486 26.1244 75.6268 25.9178 74.6623 25.5045C73.7208 25.0682 72.8827 24.4826 72.1479 23.7478C71.436 23.013 70.862 22.1633 70.4257 21.1989C70.0123 20.2115 69.8057 19.1552 69.8057 18.03C69.8057 16.9048 70.0123 15.86 70.4257 14.8956C70.862 13.9081 71.436 13.047 72.1479 12.3122C72.8827 11.5774 73.7208 11.0033 74.6623 10.59C75.6268 10.1537 76.6486 9.93555 77.7279 9.93555C78.8072 9.93555 79.8175 10.1537 80.759 10.59C81.7235 11.0033 82.5616 11.5774 83.2735 12.3122C84.0083 13.047 84.5823 13.9081 84.9957 14.8956C85.432 15.86 85.6501 16.9048 85.6501 18.03Z" fill="#1A1C47"/>
<path d="M96.6562 9.93555C97.4599 9.93555 98.1488 10.0504 98.7229 10.28C99.297 10.4867 99.7677 10.7163 100.135 10.9689C100.548 11.2674 100.881 11.6118 101.134 12.0022C101.501 11.6118 101.926 11.2674 102.408 10.9689C102.822 10.7163 103.315 10.4867 103.89 10.28C104.464 10.0504 105.095 9.93555 105.784 9.93555C107.506 9.93555 108.884 10.4867 109.917 11.5889C110.951 12.6911 111.467 14.3215 111.467 16.48V25.9522H107.506V16.8244C107.506 15.86 107.242 15.1022 106.714 14.5511C106.209 14 105.612 13.7244 104.923 13.7244C104.234 13.7244 103.625 14 103.097 14.5511C102.592 15.1022 102.34 15.86 102.34 16.8244V25.9522H98.3784V16.8244C98.3784 15.86 98.1144 15.1022 97.5862 14.5511C97.081 14 96.484 13.7244 95.7951 13.7244C95.1062 13.7244 94.4977 14 93.9695 14.5511C93.4644 15.1022 93.2118 15.86 93.2118 16.8244V25.9522H89.2506V10.1078H92.1784L92.8673 11.6578C93.1888 11.3363 93.5447 11.0493 93.9351 10.7967C94.2566 10.59 94.6469 10.3948 95.1062 10.2111C95.5655 10.0274 96.0821 9.93555 96.6562 9.93555Z" fill="#1A1C47"/>
<path d="M123.867 9.93555C124.855 9.93555 125.796 10.1422 126.692 10.5555C127.587 10.9459 128.368 11.5085 129.034 12.2433C129.723 12.9552 130.263 13.8048 130.653 14.7922C131.066 15.7796 131.273 16.8589 131.273 18.03C131.273 19.2011 131.066 20.2804 130.653 21.2678C130.263 22.2552 129.723 23.1163 129.034 23.8511C128.368 24.563 127.587 25.1256 126.692 25.5389C125.796 25.9293 124.855 26.1244 123.867 26.1244C123.201 26.1244 122.616 26.0441 122.111 25.8833C121.628 25.7226 121.204 25.5504 120.836 25.3667C120.423 25.137 120.055 24.873 119.734 24.5744V31.4633H115.773V10.1078H118.701L119.39 11.6578C119.734 11.3363 120.136 11.0493 120.595 10.7967C120.985 10.59 121.456 10.3948 122.007 10.2111C122.558 10.0274 123.178 9.93555 123.867 9.93555ZM119.39 18.03C119.39 19.3389 119.768 20.3837 120.526 21.1644C121.284 21.9452 122.225 22.3356 123.351 22.3356C124.476 22.3356 125.417 21.9452 126.175 21.1644C126.933 20.3837 127.312 19.3389 127.312 18.03C127.312 16.7211 126.933 15.6763 126.175 14.8956C125.417 14.1148 124.476 13.7244 123.351 13.7244C122.225 13.7244 121.284 14.1148 120.526 14.8956C119.768 15.6763 119.39 16.7211 119.39 18.03Z" fill="#1A1C47"/>
<path d="M141.439 9.93555C142.335 9.93555 143.162 10.0963 143.919 10.4178C144.677 10.7163 145.332 11.1411 145.883 11.6922C146.434 12.2433 146.859 12.8978 147.157 13.6556C147.479 14.4133 147.639 15.24 147.639 16.1356V25.9522H144.712L144.023 24.4022C143.655 24.7237 143.253 25.0107 142.817 25.2633C142.427 25.493 141.956 25.6996 141.405 25.8833C140.854 26.0441 140.234 26.1244 139.545 26.1244C137.823 26.1244 136.502 25.7111 135.584 24.8844C134.665 24.0348 134.206 22.9556 134.206 21.6467C134.206 20.8659 134.355 20.1541 134.654 19.5111C134.975 18.8452 135.503 18.2826 136.238 17.8233C136.973 17.3411 137.938 16.9737 139.132 16.7211C140.349 16.4456 141.864 16.3078 143.678 16.3078C143.678 15.4352 143.437 14.7578 142.955 14.2756C142.496 13.7933 141.876 13.5522 141.095 13.5522C140.567 13.5522 140.142 13.6441 139.821 13.8278C139.522 14.0115 139.281 14.2067 139.097 14.4133C138.891 14.6659 138.753 14.953 138.684 15.2744H134.723C134.815 14.5396 135.021 13.8507 135.343 13.2078C135.687 12.5648 136.146 12.0022 136.721 11.52C137.295 11.0378 137.972 10.6589 138.753 10.3833C139.556 10.0848 140.452 9.93555 141.439 9.93555ZM140.234 23.0244C141.267 23.0244 142.094 22.7259 142.714 22.1289C143.357 21.5089 143.678 20.7167 143.678 19.7522V19.0633C142.507 19.0633 141.566 19.1207 140.854 19.2356C140.142 19.3274 139.579 19.4767 139.166 19.6833C138.776 19.867 138.512 20.0967 138.374 20.3722C138.236 20.6478 138.167 20.9578 138.167 21.3022C138.167 21.7385 138.362 22.1404 138.753 22.5078C139.143 22.8522 139.637 23.0244 140.234 23.0244Z" fill="#1A1C47"/>
<path d="M160.026 9.93555C160.967 9.93555 161.829 10.0963 162.609 10.4178C163.39 10.7163 164.056 11.1641 164.607 11.7611C165.181 12.3352 165.617 13.0355 165.916 13.8622C166.237 14.6889 166.398 15.6189 166.398 16.6522V25.9522H162.437V17.1689C162.437 16.1356 162.127 15.3089 161.507 14.6889C160.91 14.0459 160.129 13.7244 159.165 13.7244C158.2 13.7244 157.408 14.0459 156.788 14.6889C156.191 15.3089 155.893 16.1356 155.893 17.1689V25.9522H151.932V10.1078H154.859L155.548 11.6578C155.939 11.3363 156.363 11.0493 156.823 10.7967C157.213 10.59 157.672 10.3948 158.2 10.2111C158.752 10.0274 159.36 9.93555 160.026 9.93555Z" fill="#1A1C47"/>
<path d="M168.995 10.1078H173.128L177.089 20.4411L180.706 10.1078H184.839C183.714 13.0011 182.692 15.6189 181.774 17.9611C181.384 18.9715 180.993 19.9589 180.603 20.9233C180.235 21.8878 179.902 22.7719 179.604 23.5756C179.305 24.3563 179.053 25.0107 178.846 25.5389C178.639 26.067 178.513 26.377 178.467 26.4689C178.077 27.4104 177.686 28.2026 177.296 28.8456C176.929 29.5115 176.527 30.0511 176.091 30.4645C175.654 30.8778 175.184 31.1763 174.678 31.36C174.173 31.5437 173.599 31.6356 172.956 31.6356C172.772 31.6356 172.589 31.6241 172.405 31.6011C172.244 31.6011 172.106 31.5896 171.992 31.5667C171.831 31.5437 171.693 31.5093 171.578 31.4633V28.1911C172.451 28.1911 173.117 27.9959 173.576 27.6056C174.058 27.2152 174.426 26.7215 174.678 26.1244L175.023 25.2633L168.995 10.1078Z" fill="#1A1C47"/>
</svg>
