<svg width="341" height="345" viewBox="0 0 341 345" fill="none" xmlns="http://www.w3.org/2000/svg">
<path d="M229.851 59.0006C249.826 70.5333 266.314 87.2492 277.571 107.381C288.829 127.513 294.437 150.312 293.803 173.369C293.169 196.426 286.317 218.882 273.971 238.365C261.625 257.848 244.244 273.633 223.665 284.051C203.087 294.469 180.076 299.133 157.065 297.55C134.054 295.967 111.898 288.195 92.9404 275.057C73.9828 261.918 58.9275 243.901 49.3663 222.911C39.8052 201.921 36.0935 178.737 38.6237 155.811L88.3253 161.296C86.7835 175.266 89.0452 189.393 94.8712 202.183C100.697 214.974 109.871 225.952 121.423 233.958C132.975 241.964 146.475 246.7 160.497 247.665C174.519 248.629 188.541 245.787 201.08 239.439C213.62 233.091 224.211 223.473 231.734 211.601C239.257 199.729 243.432 186.044 243.819 171.995C244.205 157.945 240.787 144.053 233.928 131.785C227.068 119.518 217.021 109.332 204.85 102.305L229.851 59.0006Z" fill="white" fill-opacity="0.03"/>
</svg>
