<svg width="195" height="36" viewBox="0 0 195 36" fill="none" xmlns="http://www.w3.org/2000/svg">
<path d="M58.9158 26.5618C57.367 26.5618 56.0016 26.2255 54.8196 25.553C53.6376 24.8805 52.7002 23.943 52.0073 22.7407C51.3348 21.5383 50.9985 20.1627 50.9985 18.6139C50.9985 17.0651 51.3348 15.6895 52.0073 14.4871C52.7002 13.2847 53.6376 12.3473 54.8196 11.6748C56.0016 11.0023 57.367 10.666 58.9158 10.666C60.8519 10.666 62.4822 11.1755 63.8068 12.1945C65.1315 13.193 65.9772 14.5788 66.344 16.3518H62.2173C62.0135 15.6182 61.6059 15.0475 60.9945 14.64C60.4035 14.212 59.7004 13.998 58.8853 13.998C57.8052 13.998 56.8881 14.4056 56.1341 15.2208C55.3801 16.0359 55.003 17.167 55.003 18.6139C55.003 20.0608 55.3801 21.1919 56.1341 22.007C56.8881 22.8222 57.8052 23.2298 58.8853 23.2298C59.7004 23.2298 60.4035 23.026 60.9945 22.6184C61.6059 22.2108 62.0135 21.63 62.2173 20.876H66.344C65.9772 22.5878 65.1315 23.9634 63.8068 25.0028C62.4822 26.0421 60.8519 26.5618 58.9158 26.5618Z" fill="#1A1C47"/>
<path d="M76.4809 26.5618C75.0136 26.5618 73.689 26.2255 72.507 25.553C71.3454 24.8805 70.4181 23.9532 69.7252 22.7712C69.0527 21.5689 68.7165 20.1831 68.7165 18.6139C68.7165 17.0447 69.0629 15.6691 69.7558 14.4871C70.4487 13.2847 71.3759 12.3473 72.5376 11.6748C73.7196 11.0023 75.0442 10.666 76.5115 10.666C77.9584 10.666 79.2627 11.0023 80.4243 11.6748C81.6063 12.3473 82.5335 13.2847 83.2061 14.4871C83.8989 15.6691 84.2454 17.0447 84.2454 18.6139C84.2454 20.1831 83.8989 21.5689 83.2061 22.7712C82.5335 23.9532 81.6063 24.8805 80.4243 25.553C79.2423 26.2255 77.9279 26.5618 76.4809 26.5618ZM76.4809 23.1686C77.4999 23.1686 78.3864 22.7916 79.1404 22.0376C79.8944 21.2632 80.2715 20.1219 80.2715 18.6139C80.2715 17.1058 79.8944 15.9748 79.1404 15.2208C78.3864 14.4463 77.5101 14.0591 76.5115 14.0591C75.4722 14.0591 74.5755 14.4463 73.8214 15.2208C73.0878 15.9748 72.721 17.1058 72.721 18.6139C72.721 20.1219 73.0878 21.2632 73.8214 22.0376C74.5755 22.7916 75.462 23.1686 76.4809 23.1686Z" fill="#1A1C47"/>
<path d="M87.1325 26.1949V11.0328H90.5867L90.923 13.0809C91.4121 12.3473 92.054 11.7665 92.8488 11.3385C93.664 10.8902 94.6014 10.666 95.6611 10.666C98.0047 10.666 99.6657 11.5729 100.644 13.3866C101.194 12.5511 101.928 11.8888 102.845 11.3997C103.782 10.9106 104.801 10.666 105.902 10.666C107.878 10.666 109.397 11.257 110.456 12.439C111.516 13.621 112.046 15.3532 112.046 17.6357V26.1949H108.133V18.0025C108.133 16.6982 107.878 15.6997 107.369 15.0068C106.88 14.3139 106.116 13.9674 105.076 13.9674C104.017 13.9674 103.161 14.3546 102.509 15.1291C101.877 15.9035 101.561 16.9836 101.561 18.3693V26.1949H97.6481V18.0025C97.6481 16.6982 97.3934 15.6997 96.8839 15.0068C96.3744 14.3139 95.5898 13.9674 94.5301 13.9674C93.4908 13.9674 92.645 14.3546 91.9929 15.1291C91.3611 15.9035 91.0453 16.9836 91.0453 18.3693V26.1949H87.1325Z" fill="#1A1C47"/>
<path d="M115.149 32.9201V11.0328H118.634L119.062 13.2032C119.551 12.5307 120.193 11.9397 120.988 11.4302C121.803 10.9208 122.853 10.666 124.137 10.666C125.563 10.666 126.837 11.0125 127.958 11.7054C129.079 12.3982 129.965 13.3459 130.617 14.5482C131.269 15.7506 131.595 17.116 131.595 18.6445C131.595 20.1729 131.269 21.5383 130.617 22.7407C129.965 23.9227 129.079 24.8601 127.958 25.553C126.837 26.2255 125.563 26.5618 124.137 26.5618C122.995 26.5618 121.997 26.3478 121.141 25.9198C120.285 25.4919 119.592 24.8907 119.062 24.1163V32.9201H115.149ZM123.311 23.1381C124.554 23.1381 125.584 22.7203 126.399 21.8847C127.214 21.0492 127.621 19.9691 127.621 18.6445C127.621 17.3198 127.214 16.2295 126.399 15.3736C125.584 14.5177 124.554 14.0897 123.311 14.0897C122.048 14.0897 121.008 14.5177 120.193 15.3736C119.398 16.2091 119.001 17.2892 119.001 18.6139C119.001 19.9385 119.398 21.0288 120.193 21.8847C121.008 22.7203 122.048 23.1381 123.311 23.1381Z" fill="#1A1C47"/>
<path d="M139.707 26.5618C138.402 26.5618 137.332 26.358 136.497 25.9504C135.661 25.5224 135.04 24.962 134.632 24.2691C134.225 23.5762 134.021 22.812 134.021 21.9765C134.021 20.5703 134.571 19.4291 135.672 18.5528C136.772 17.6764 138.423 17.2383 140.624 17.2383H144.475V16.8715C144.475 15.8321 144.18 15.0679 143.589 14.5788C142.998 14.0897 142.264 13.8452 141.388 13.8452C140.593 13.8452 139.9 14.0388 139.309 14.426C138.718 14.7928 138.351 15.343 138.209 16.0767H134.388C134.49 14.9762 134.856 14.0184 135.488 13.2032C136.14 12.3881 136.976 11.7665 137.995 11.3385C139.014 10.8902 140.155 10.666 141.418 10.666C143.579 10.666 145.28 11.2061 146.523 12.2862C147.767 13.3663 148.388 14.8947 148.388 16.8715V26.1949H145.056L144.689 23.7494C144.241 24.5646 143.609 25.2371 142.794 25.767C141.999 26.2968 140.97 26.5618 139.707 26.5618ZM140.593 23.5049C141.714 23.5049 142.58 23.1381 143.191 22.4044C143.823 21.6708 144.221 20.7639 144.384 19.6838H141.052C140.012 19.6838 139.269 19.8774 138.82 20.2646C138.372 20.6314 138.148 21.09 138.148 21.6402C138.148 22.2312 138.372 22.6897 138.82 23.0158C139.269 23.3419 139.859 23.5049 140.593 23.5049Z" fill="#1A1C47"/>
<path d="M151.511 26.1949V11.0328H154.965L155.271 13.6006C155.739 12.7039 156.412 11.9907 157.288 11.4608C158.185 10.9309 159.234 10.666 160.437 10.666C162.312 10.666 163.769 11.257 164.808 12.439C165.847 13.621 166.367 15.3532 166.367 17.6357V26.1949H162.454V18.0025C162.454 16.6982 162.189 15.6997 161.66 15.0068C161.13 14.3139 160.304 13.9674 159.183 13.9674C158.083 13.9674 157.176 14.3546 156.463 15.1291C155.77 15.9035 155.424 16.9836 155.424 18.3693V26.1949H151.511Z" fill="#1A1C47"/>
<path d="M170.885 32.9201L174.4 25.1862H173.483L167.584 11.0328H171.833L176.082 21.7013L180.514 11.0328H184.672L175.042 32.9201H170.885Z" fill="#1A1C47"/>
<mask id="mask0" mask-type="alpha" maskUnits="userSpaceOnUse" x="10" y="3" width="31" height="31">
<rect x="10" y="3" width="30.0655" height="30.0655" rx="5.15408" fill="#C4C4C4"/>
</mask>
<g mask="url(#mask0)">
<path d="M10 3V33.0869L25.0413 18.0456L10 3Z" fill="#323582"/>
<path d="M10 33.0862H40.0869L25.0413 18.0449L10 33.0862Z" fill="#1A1C47"/>
<path d="M40.0869 3H10L25.0413 18.0456L40.0869 33.0869V3Z" fill="#316BFF"/>
</g>
</svg>
