<svg width="309" height="312" viewBox="0 0 309 312" fill="none" xmlns="http://www.w3.org/2000/svg">
<path opacity="0.07" d="M217.045 253.857C198.963 264.296 178.396 269.656 157.519 269.369C136.642 269.082 116.23 263.159 98.442 252.227C80.6538 241.295 66.1502 225.759 56.4646 207.262C46.779 188.765 42.2714 167.995 43.4184 147.148C44.5653 126.3 51.3241 106.15 62.9803 88.8271C74.6365 71.5046 90.7568 57.6535 109.637 48.7383C128.517 39.8232 149.455 36.1753 170.238 38.1804C191.021 40.1854 210.875 47.7689 227.703 60.129L200.907 96.6093C190.653 89.0777 178.555 84.4567 165.891 83.2349C153.227 82.0132 140.469 84.236 128.964 89.6684C117.459 95.1009 107.637 103.541 100.534 114.097C93.4311 124.652 89.3126 136.931 88.6138 149.634C87.9149 162.338 90.6616 174.994 96.5635 186.265C102.465 197.536 111.303 207.002 122.142 213.664C132.982 220.326 145.419 223.935 158.141 224.11C170.862 224.284 183.395 221.019 194.413 214.657L217.045 253.857Z" fill="#316BFF"/>
</svg>
