<svg width="46" height="37" viewBox="0 0 46 37" fill="none" xmlns="http://www.w3.org/2000/svg">
<path d="M30.7358 0.0082131V0H32.8927L33.6808 0.156049C34.2062 0.257357 34.6832 0.390122 35.1118 0.554384C35.5405 0.718646 35.9552 0.910299 36.3562 1.1293C36.7572 1.3483 37.1208 1.57145 37.4471 1.79867C37.7706 2.02317 38.061 2.26135 38.3182 2.51321C38.5725 2.76781 38.9693 2.83352 39.5086 2.71032C40.0478 2.58713 40.6285 2.41601 41.2507 2.197C41.8729 1.978 42.4882 1.73161 43.0965 1.45782C43.7049 1.18404 44.0754 1.01021 44.2082 0.936293C44.3381 0.859665 44.4073 0.818599 44.4156 0.813097L44.4238 0.800777L44.4653 0.780244L44.5068 0.759711L44.5482 0.739179L44.5897 0.718646L44.598 0.706326L44.6105 0.698113L44.6229 0.6899L44.6312 0.67758L44.6727 0.665261L44.7142 0.657048L44.7059 0.718646L44.6934 0.780244L44.6727 0.841842L44.6519 0.903441L44.6312 0.944506L44.6105 0.985572L44.5897 1.04717C44.5759 1.08824 44.5621 1.14298 44.5482 1.21143C44.5344 1.27989 44.4031 1.55363 44.1542 2.03274C43.9053 2.51185 43.5942 2.99778 43.2209 3.49057C42.8476 3.98335 42.513 4.35565 42.2172 4.60755C41.9185 4.86215 41.7208 5.04009 41.624 5.1414C41.5272 5.24542 41.4097 5.34122 41.2714 5.42886L41.064 5.56437L41.0225 5.58491L40.9811 5.60544L40.9728 5.61776L40.9603 5.62597L40.9479 5.63418L40.9396 5.6465L40.8981 5.66704L40.8566 5.68757L40.8484 5.69989L40.8359 5.7081L40.8234 5.71632L40.8151 5.72864L40.8069 5.74095L40.7944 5.74917L40.782 5.75738L40.7737 5.7697H40.9811L42.1425 5.52331C42.9168 5.35905 43.6564 5.16058 44.3616 4.92786L45.4815 4.55827L45.606 4.5172L45.6682 4.49667L45.7096 4.47614L45.7511 4.45561L45.7926 4.43507L45.8341 4.41454L45.917 4.40222L46 4.39401V4.47614L45.9793 4.48435L45.9585 4.49667L45.9503 4.50899L45.9378 4.5172L45.9253 4.52542L45.917 4.53774L45.9088 4.55006L45.8963 4.55827L45.8839 4.56648L45.8756 4.5788L45.8673 4.59112L45.8548 4.59933L45.8341 4.6404L45.8133 4.68147L45.8009 4.68968C45.7954 4.69789 45.6198 4.93057 45.2741 5.38779C44.9285 5.84772 44.7418 6.0804 44.7142 6.0859C44.6865 6.09412 44.6478 6.13518 44.598 6.2091C44.551 6.28573 44.2579 6.59101 43.7187 7.12486C43.1794 7.65871 42.6513 8.13368 42.1342 8.54983C41.6144 8.9687 41.3516 9.48338 41.3461 10.0939C41.3378 10.7017 41.306 11.3889 41.2507 12.1554C41.1954 12.922 41.0917 13.7501 40.9396 14.6398C40.7875 15.5296 40.5525 16.5357 40.2344 17.6582C39.9165 18.7806 39.5293 19.8757 39.073 20.9434C38.6168 22.0111 38.1398 22.9693 37.642 23.818C37.1443 24.6667 36.688 25.3853 36.2732 25.9739C35.8584 26.5625 35.4368 27.1169 35.0081 27.6371C34.5795 28.1572 34.0376 28.7431 33.3822 29.3947C32.724 30.0435 32.3646 30.3994 32.3037 30.4624C32.2402 30.5226 31.9692 30.7471 31.4907 31.1359C31.0151 31.5273 30.5035 31.9188 29.956 32.3103C29.4113 32.6991 28.9107 33.0235 28.4545 33.2836C27.9982 33.5436 27.4479 33.8407 26.8036 34.1747C26.1621 34.5114 25.468 34.8235 24.7214 35.111C23.9748 35.3984 23.1867 35.6654 22.3571 35.9118C21.5275 36.1582 20.7256 36.3498 19.9513 36.4867C19.1771 36.6236 18.2991 36.7399 17.3174 36.8357L15.8449 36.9795V37H13.1488V36.9795L12.7962 36.9589C12.5612 36.9453 12.3676 36.9315 12.2155 36.9179C12.0634 36.9042 11.4896 36.8289 10.4941 36.692C9.49865 36.5551 8.71748 36.4182 8.15059 36.2814C7.58374 36.1445 6.74031 35.8844 5.62038 35.5011C4.50045 35.1178 3.54229 34.7304 2.7459 34.339C1.95228 33.9502 1.45454 33.7038 1.25266 33.5998C1.05356 33.4985 0.829576 33.3726 0.580703 33.222L0.207394 32.9961L0.19914 32.9838L0.186655 32.9756L0.174211 32.9674L0.165915 32.9551L0.124436 32.9345L0.0829576 32.914L0.0747033 32.9017L0.0622182 32.8935L0.0497746 32.8852L0.0414788 32.8729L0.0332245 32.8606L0.0207394 32.8524H0V32.7703L0.0414788 32.7785L0.0829576 32.7908L0.269612 32.8113C0.394049 32.825 0.732806 32.8455 1.28584 32.8729C1.83892 32.9003 2.42651 32.9003 3.04869 32.8729C3.67087 32.8455 4.30691 32.7839 4.95672 32.6881C5.60657 32.5923 6.37392 32.4281 7.25879 32.1953C8.1437 31.9626 8.95668 31.6861 9.69779 31.3658C10.4361 31.0428 10.9615 30.8019 11.274 30.6431C11.5837 30.487 12.0565 30.1968 12.6925 29.7725L13.6465 29.136L13.6548 29.1236L13.6673 29.1154L13.6798 29.1072L13.688 29.0949L13.6963 29.0826L13.7087 29.0744L13.7212 29.0661L13.7295 29.0538L13.771 29.0415L13.8124 29.0333L13.8207 28.9922L13.8332 28.9512L13.8457 28.943L13.8539 28.9306L13.5221 28.9101C13.3009 28.8964 13.0866 28.8827 12.8792 28.869C12.6718 28.8554 12.3469 28.7938 11.9044 28.6842C11.462 28.5747 10.985 28.4105 10.4734 28.1915C9.96184 27.9725 9.4641 27.7123 8.98016 27.4112C8.49627 27.1101 8.14644 26.8595 7.93075 26.6597C7.71784 26.4626 7.4413 26.1834 7.10117 25.822C6.76382 25.4579 6.47069 25.0842 6.22182 24.7009C5.97295 24.3176 5.73515 23.8754 5.50843 23.3745L5.16411 22.6271L5.14337 22.5655L5.12263 22.5039L5.11019 22.4628L5.10189 22.4218L5.16411 22.43L5.22633 22.4423L5.6826 22.5039C5.9868 22.545 6.46381 22.5586 7.11362 22.545C7.76346 22.5313 8.2128 22.5039 8.46168 22.4628C8.71055 22.4218 8.86265 22.3944 8.91794 22.3807L9.0009 22.3602L9.1046 22.3396L9.2083 22.3191L9.21659 22.3068L9.22903 22.2986L9.24152 22.2903L9.24977 22.278L9.16682 22.2575L9.08386 22.237L9.0009 22.2164L8.91794 22.1959L8.83499 22.1754C8.7797 22.1617 8.68293 22.1343 8.54463 22.0932C8.40639 22.0522 8.03308 21.9016 7.42471 21.6415C6.81638 21.3814 6.33245 21.1282 5.97295 20.8818C5.61256 20.6347 5.26893 20.3644 4.94427 20.0728C4.62074 19.7771 4.26543 19.3966 3.87827 18.9312C3.49115 18.4658 3.1455 17.9251 2.8413 17.3091C2.53713 16.6931 2.309 16.1045 2.1569 15.5433C2.00541 14.9853 1.90546 14.4149 1.85829 13.8391L1.78359 12.9767L1.82507 12.9849L1.86655 12.9972L1.90803 13.0178L1.9495 13.0383L1.99098 13.0588L2.03246 13.0794L2.67538 13.3668C3.10403 13.5585 3.63632 13.7227 4.27232 13.8596C4.90835 13.9965 5.28855 14.0718 5.41298 14.0855L5.59964 14.106H5.97295L5.96469 14.0937L5.95221 14.0855L5.93977 14.0772L5.93147 14.0649L5.92322 14.0526L5.91073 14.0444L5.89829 14.0362L5.88999 14.0239L5.84851 14.0033L5.80703 13.9828L5.79878 13.9705L5.78629 13.9623L5.77385 13.9541L5.76555 13.9417L5.72408 13.9212L5.6826 13.9007L5.67434 13.8883C5.66605 13.8828 5.54713 13.7953 5.31758 13.6255C5.09082 13.4531 4.85302 13.2299 4.60415 12.9562C4.35527 12.6824 4.1064 12.3949 3.85753 12.0938C3.6082 11.792 3.38612 11.469 3.19387 11.1287C3.00033 10.7865 2.79567 10.3512 2.57998 9.82286C2.36707 9.29723 2.2053 8.76748 2.09468 8.23363C1.9841 7.69978 1.92188 7.17278 1.90803 6.65261C1.89421 6.13243 1.90803 5.68757 1.9495 5.31798C1.99098 4.94839 2.07394 4.53088 2.19838 4.06548C2.32281 3.60009 2.50258 3.1073 2.7376 2.58713L3.09017 1.80688L3.11091 1.74528L3.13165 1.68368L3.14414 1.67547L3.15239 1.66315L3.16069 1.65083L3.17313 1.64262L3.18561 1.65083L3.19387 1.66315L3.20216 1.67547L3.21461 1.68368L3.22709 1.6919L3.23535 1.70422L3.24364 1.71654L3.25609 1.72475L3.27683 1.76582L3.29757 1.80688L3.31005 1.81509L3.3183 1.82741L3.87827 2.4434C4.25158 2.85405 4.69403 3.31263 5.20559 3.81909C5.71719 4.32555 6.00061 4.58837 6.05591 4.60755C6.11124 4.62944 6.18034 4.69239 6.2633 4.79645C6.34626 4.89776 6.6228 5.14004 7.09288 5.52331C7.563 5.90657 8.17825 6.35148 8.93868 6.85794C9.69916 7.3644 10.5425 7.86404 11.4689 8.35683C12.3953 8.84961 13.3908 9.29447 14.4554 9.69145C15.52 10.0884 16.2666 10.3485 16.6952 10.4717C17.1239 10.5949 17.8566 10.7523 18.8936 10.944C19.9306 11.1356 20.7118 11.2588 21.2372 11.3135C21.7626 11.3683 22.1221 11.3998 22.3156 11.408L22.606 11.4162L22.5977 11.3546L22.5852 11.293L22.5023 10.7797C22.447 10.4375 22.4193 9.95838 22.4193 9.3424C22.4193 8.72642 22.4677 8.15836 22.5645 7.63818C22.6613 7.118 22.8065 6.59101 23 6.05716C23.1936 5.52331 23.383 5.09483 23.5683 4.77181C23.7563 4.4515 24.0024 4.08602 24.3066 3.67536C24.6108 3.26471 25.0048 2.84038 25.4887 2.40233C25.9727 1.96429 26.5257 1.57416 27.1479 1.23196C27.7701 0.889766 28.3439 0.629657 28.8693 0.45172C29.3947 0.273784 29.8371 0.157404 30.1966 0.102664C30.5561 0.0479234 30.7358 0.0164262 30.7358 0.0082131V0.0082131Z" fill="white"/>
</svg>
