<svg width="174" height="175" viewBox="0 0 174 175" fill="none" xmlns="http://www.w3.org/2000/svg">
<path opacity="0.05" d="M122.318 30.2978C130.689 37.3215 137.198 46.301 141.269 56.4411C145.34 66.5811 146.847 77.5687 145.658 88.4306C144.468 99.2924 140.618 109.693 134.449 118.712C128.28 127.73 119.981 135.088 110.289 140.134C100.597 145.179 89.81 147.756 78.8839 147.637C67.9577 147.518 57.2296 144.706 47.6498 139.45C38.0699 134.195 29.9341 126.658 23.963 117.507C17.9918 108.356 14.3697 97.8732 13.4173 86.988L42.5878 84.4359C43.1205 90.524 45.1464 96.3868 48.486 101.505C51.8257 106.623 56.376 110.839 61.734 113.778C67.092 116.718 73.0923 118.29 79.2033 118.357C85.3143 118.424 91.3474 116.982 96.7683 114.16C102.189 111.338 106.83 107.223 110.281 102.179C113.731 97.135 115.885 91.3178 116.55 85.2428C117.215 79.1677 116.372 73.0224 114.095 67.351C111.818 61.6797 108.178 56.6574 103.496 52.7291L122.318 30.2978Z" fill="#316BFF"/>
</svg>
