<svg width="128" height="132" viewBox="0 0 128 132" fill="none" xmlns="http://www.w3.org/2000/svg">
<path opacity="0.08" fill-rule="evenodd" clip-rule="evenodd" d="M67.5243 10.0177C93.1173 10.5128 117.343 24.8733 124.942 49.6693C132.283 73.6238 119.14 97.9896 98.902 112.405C79.7473 126.048 54.8561 126.644 35.4009 113.446C13.091 98.311 -5.11934 73.2767 2.94583 47.3091C11.1749 20.8138 40.1447 9.48802 67.5243 10.0177Z" fill="white"/>
<path d="M32.0664 80.0667V42.0667C32.0664 40.7229 32.6002 39.4342 33.5504 38.484C34.5006 37.5338 35.7893 37 37.1331 37H92.8664C94.2102 37 95.4989 37.5338 96.4491 38.484C97.3993 39.4342 97.9331 40.7229 97.9331 42.0667V80.0667" stroke="white" stroke-width="4" stroke-linecap="round" stroke-linejoin="round"/>
<path d="M73.7282 80.0664C72.849 81.6052 71.5786 82.8842 70.0458 83.7738C68.513 84.6634 66.7723 85.132 65 85.132C63.2277 85.132 61.487 84.6634 59.9542 83.7738C58.4214 82.8842 57.151 81.6052 56.2718 80.0664H27V85.1331C27 87.8206 28.0676 90.3981 29.968 92.2984C31.8684 94.1988 34.4458 95.2664 37.1333 95.2664H92.8667C95.5542 95.2664 98.1316 94.1988 100.032 92.2984C101.932 90.3981 103 87.8206 103 85.1331V80.0664H73.7282Z" stroke="white" stroke-width="4" stroke-linecap="round" stroke-linejoin="round"/>
<path d="M61.3659 49.9417C60.9456 49.7441 60.4837 49.6511 60.0197 49.6705C59.5557 49.6899 59.1032 49.8212 58.7008 50.0532C58.3103 50.2743 57.9846 50.5941 57.7564 50.9806C57.5282 51.3671 57.4054 51.8067 57.4004 52.2555V64.8141C57.4057 65.2628 57.5286 65.7023 57.7568 66.0887C57.985 66.4751 58.3105 66.795 58.7008 67.0164C59.1032 67.2484 59.5557 67.3797 60.0197 67.3991C60.4837 67.4185 60.9456 67.3255 61.3659 67.1279L73.151 61.5647C73.7402 61.307 74.2415 60.8832 74.5935 60.3451C74.9455 59.8069 75.133 59.1778 75.133 58.5348C75.133 57.8917 74.9455 57.2626 74.5935 56.7245C74.2415 56.1864 73.7402 55.7626 73.151 55.5049L61.3659 49.9417Z" stroke="white" stroke-width="4" stroke-linecap="round" stroke-linejoin="round"/>
</svg>
