<svg width="48" height="46" viewBox="0 0 48 46" fill="none" xmlns="http://www.w3.org/2000/svg">
<path d="M0 5.31025C0 3.77101 0.540556 2.50117 1.62162 1.50072C2.70269 0.500225 4.10812 0 5.83784 0C7.53669 0 8.91118 0.492514 9.96139 1.47763C11.0425 2.49351 11.583 3.81719 11.583 5.44877C11.583 6.92641 11.0579 8.15774 10.0077 9.14286C8.92666 10.1587 7.50579 10.6667 5.74517 10.6667H5.69884C3.99998 10.6667 2.6255 10.1587 1.57529 9.14286C0.525081 8.12699 0 6.84943 0 5.31025ZM0.602317 45.7143V14.8687H10.888V45.7143H0.602317ZM16.5869 45.7143H26.8726V28.4906C26.8726 27.4132 26.9962 26.582 27.2432 25.9971C27.6757 24.9504 28.332 24.0654 29.2124 23.342C30.0927 22.6186 31.1969 22.2569 32.5251 22.2569C35.9846 22.2569 37.7143 24.581 37.7143 29.2294V45.7143H48V28.0289C48 23.4728 46.9189 20.0173 44.7568 17.6623C42.5946 15.3074 39.7375 14.1299 36.1853 14.1299C32.2008 14.1299 29.0965 15.8384 26.8726 19.2554V19.3478H26.8263L26.8726 19.2554V14.8687H16.5869C16.6486 15.8538 16.6795 18.9168 16.6795 24.0577C16.6795 29.1986 16.6486 36.4175 16.5869 45.7143Z" fill="white"/>
</svg>
