<svg width="60" height="54" viewBox="0 0 60 54" fill="none" xmlns="http://www.w3.org/2000/svg">
<path opacity="0.06" fill-rule="evenodd" clip-rule="evenodd" d="M31.6782 0.00846476C43.8654 0.245078 55.4014 7.10758 59.02 18.957C62.5158 30.4043 56.2573 42.0481 46.62 48.9367C37.4987 55.4564 25.6458 55.7414 16.3814 49.4343C5.7576 42.2017 -2.91397 30.2384 0.926584 17.8291C4.84521 5.16764 18.6403 -0.244665 31.6782 0.00846476Z" fill="#316BFF"/>
<path d="M29.2141 11.1216C29.287 11.7073 29.2346 12.3017 29.0603 12.8656C28.8859 13.4294 28.5937 13.9497 28.2029 14.392C27.7955 14.8344 27.3008 15.1876 26.75 15.4292C26.1992 15.6707 25.6043 15.7955 25.0029 15.7955C24.4015 15.7955 23.8066 15.6707 23.2558 15.4292C22.705 15.1876 22.2103 14.8344 21.8029 14.392C21.4121 13.9497 21.1198 13.4294 20.9455 12.8656C20.7712 12.3017 20.7187 11.7073 20.7917 11.1216L21.7986 3H28.1986L29.2141 11.1216Z" stroke="#316BFF" stroke-width="2.5" stroke-linecap="round" stroke-linejoin="round"/>
<path d="M24.9992 22.1992C25.1574 22.1992 25.3121 22.2461 25.4437 22.334C25.5752 22.4219 25.6778 22.5469 25.7383 22.6931C25.7989 22.8393 25.8147 23.0001 25.7838 23.1553C25.753 23.3105 25.6768 23.453 25.5649 23.5649C25.453 23.6768 25.3105 23.753 25.1553 23.7838C25.0001 23.8147 24.8393 23.7989 24.6931 23.7383C24.5469 23.6778 24.4219 23.5752 24.334 23.4437C24.2461 23.3121 24.1992 23.1574 24.1992 22.9992C24.1992 22.787 24.2835 22.5836 24.4335 22.4335C24.5836 22.2835 24.787 22.1992 24.9992 22.1992" stroke="#316BFF" stroke-width="2.5" stroke-linecap="round" stroke-linejoin="round"/>
<path d="M24.9992 31.8008C25.1574 31.8008 25.3121 31.8477 25.4437 31.9356C25.5752 32.0235 25.6778 32.1485 25.7383 32.2946C25.7989 32.4408 25.8147 32.6017 25.7838 32.7569C25.753 32.912 25.6768 33.0546 25.5649 33.1665C25.453 33.2783 25.3105 33.3545 25.1553 33.3854C25.0001 33.4163 24.8393 33.4004 24.6931 33.3399C24.5469 33.2793 24.4219 33.1768 24.334 33.0452C24.2461 32.9137 24.1992 32.759 24.1992 32.6008C24.1992 32.3886 24.2835 32.1851 24.4335 32.0351C24.5836 31.8851 24.787 31.8008 24.9992 31.8008" stroke="#316BFF" stroke-width="2.5" stroke-linecap="round" stroke-linejoin="round"/>
<path d="M24.9992 41.3984C25.1574 41.3984 25.3121 41.4454 25.4437 41.5333C25.5752 41.6212 25.6778 41.7461 25.7383 41.8923C25.7989 42.0385 25.8147 42.1993 25.7838 42.3545C25.753 42.5097 25.6768 42.6522 25.5649 42.7641C25.453 42.876 25.3105 42.9522 25.1553 42.9831C25.0001 43.0139 24.8393 42.9981 24.6931 42.9375C24.5469 42.877 24.4219 42.7745 24.334 42.6429C24.2461 42.5113 24.1992 42.3567 24.1992 42.1984C24.1992 41.9863 24.2835 41.7828 24.4335 41.6328C24.5836 41.4827 24.787 41.3984 24.9992 41.3984" stroke="#316BFF" stroke-width="2.5" stroke-linecap="round" stroke-linejoin="round"/>
<path d="M47.4 51H12.2C11.3513 51 10.5374 50.6629 9.93726 50.0627C9.33714 49.4626 9 48.6487 9 47.8V6.2C9 5.35131 9.33714 4.53737 9.93726 3.93726C10.5374 3.33714 11.3513 3 12.2 3H41.2752C42.1233 3.00018 42.9366 3.33703 43.5365 3.93653L49.6635 10.0635C50.263 10.6634 50.5998 11.4767 50.6 12.3248V47.8C50.6 48.6487 50.2629 49.4626 49.6627 50.0627C49.0626 50.6629 48.2487 51 47.4 51V51Z" stroke="#316BFF" stroke-width="2.5" stroke-linecap="round" stroke-linejoin="round"/>
</svg>
