<svg width="60" height="54" viewBox="0 0 60 54" fill="none" xmlns="http://www.w3.org/2000/svg">
<path opacity="0.06" fill-rule="evenodd" clip-rule="evenodd" d="M31.6782 0.00846476C43.8654 0.245078 55.4014 7.10758 59.02 18.957C62.5158 30.4043 56.2573 42.0481 46.62 48.9367C37.4987 55.4564 25.6458 55.7414 16.3814 49.4343C5.7576 42.2017 -2.91397 30.2384 0.926584 17.8291C4.84521 5.16764 18.6403 -0.244665 31.6782 0.00846476Z" fill="#316BFF"/>
<path d="M51 30.5V45.5C51 46.88 49.88 48 48.5 48H13.5C12.12 48 11 46.88 11 45.5V10.5C11 9.12 12.12 8 13.5 8H28.5" stroke="#316BFF" stroke-width="2.5" stroke-miterlimit="10" stroke-linecap="round"/>
<path d="M51 20.5V8H38.5" stroke="#316BFF" stroke-width="2.5" stroke-miterlimit="10" stroke-linecap="round" stroke-linejoin="round"/>
<path d="M51 8L23.5 35.5" stroke="#316BFF" stroke-width="2.5" stroke-miterlimit="10" stroke-linecap="round"/>
</svg>
