<svg width="48" height="47" viewBox="0 0 48 47" fill="none" xmlns="http://www.w3.org/2000/svg">
<path fill-rule="evenodd" clip-rule="evenodd" d="M40.6093 6.83013C36.1911 2.42802 30.3153 0.00247427 24.0552 0C11.1564 0 0.658412 10.447 0.65325 23.2881C0.651529 27.3928 1.72917 31.3996 3.77695 34.9313L0.457031 47L12.8627 43.7614C16.2807 45.6168 20.1291 46.5945 24.0458 46.5962H24.0554C36.9529 46.5962 47.4518 36.1478 47.457 23.3067C47.4595 17.0837 45.0277 11.2322 40.6093 6.83013V6.83013ZM24.0554 42.6627H24.0475C20.5573 42.6613 17.134 41.7282 14.1477 39.9645L13.4374 39.545L6.07581 41.4668L8.04081 34.3237L7.57827 33.5914C5.63125 30.5093 4.60286 26.947 4.60439 23.2896C4.60866 12.6166 13.3343 3.93346 24.0631 3.93346C29.2583 3.93542 34.142 5.95158 37.8143 9.61045C41.4867 13.2693 43.5079 18.1329 43.506 23.3052C43.5015 33.9789 34.776 42.6627 24.0554 42.6627V42.6627ZM34.7245 28.1651C34.1397 27.8738 31.2649 26.466 30.7289 26.2718C30.193 26.0776 29.8032 25.9805 29.4133 26.5631C29.0235 27.1456 27.9029 28.4564 27.5617 28.8447C27.2207 29.2331 26.8797 29.2817 26.2949 28.9904C25.7102 28.6991 23.8261 28.0847 21.5927 26.1021C19.8545 24.5592 18.6809 22.6534 18.3398 22.0708C17.9987 21.4882 18.3035 21.1732 18.5962 20.8832C18.8592 20.6224 19.1809 20.2035 19.4733 19.8636C19.7656 19.5238 19.8631 19.2811 20.058 18.8928C20.2529 18.5044 20.1555 18.1645 20.0093 17.8733C19.8631 17.582 18.6937 14.7177 18.2064 13.5525C17.7318 12.4178 17.2497 12.5713 16.8908 12.5536C16.5501 12.5367 16.1599 12.5331 15.7701 12.5331C15.3803 12.5331 14.7469 12.6787 14.2108 13.2613C13.6749 13.8439 12.1644 15.2517 12.1644 18.116C12.1644 20.9802 14.2596 23.7474 14.552 24.1358C14.8443 24.5242 18.6751 30.4021 24.5408 32.9227C25.9359 33.5223 27.025 33.8803 27.8742 34.1486C29.275 34.5914 30.5497 34.5289 31.5572 34.3791C32.6806 34.2121 35.0167 32.9713 35.5041 31.612C35.9913 30.2527 35.9913 29.0875 35.8451 28.8448C35.699 28.6021 35.3092 28.4564 34.7245 28.1651" fill="white"/>
</svg>
