<svg width="48" height="49" viewBox="0 0 48 49" fill="none" xmlns="http://www.w3.org/2000/svg">
<path d="M16.0019 24.001C16.0019 19.5827 19.5827 16 24.001 16C28.4192 16 32.0019 19.5827 32.0019 24.001C32.0019 28.4192 28.4192 32.0019 24.001 32.0019C19.5827 32.0019 16.0019 28.4192 16.0019 24.001V24.001ZM11.6768 24.001C11.6768 30.8076 17.1943 36.3252 24.001 36.3252C30.8076 36.3252 36.3252 30.8076 36.3252 24.001C36.3252 17.1943 30.8076 11.6768 24.001 11.6768C17.1943 11.6768 11.6769 17.1939 11.6769 24.001H11.6768ZM33.9331 11.1881C33.9329 11.7577 34.1016 12.3146 34.4179 12.7884C34.7342 13.2622 35.1838 13.6315 35.71 13.8497C36.2362 14.0679 36.8153 14.1252 37.374 14.0142C37.9327 13.9033 38.446 13.6292 38.849 13.2266C39.2519 12.824 39.5264 12.3109 39.6378 11.7523C39.7492 11.1936 39.6923 10.6145 39.4746 10.0881C39.2568 9.56178 38.8878 9.11182 38.4143 8.79516C37.9408 8.4785 37.384 8.30936 36.8144 8.30913H36.8132C36.0497 8.30949 35.3175 8.61288 34.7775 9.15268C34.2375 9.69248 33.9338 10.4246 33.9331 11.1881V11.1881ZM14.3046 43.5374C11.9646 43.4308 10.6927 43.041 9.8475 42.7117C8.72694 42.2755 7.92742 41.7559 7.08681 40.9165C6.2462 40.077 5.72586 39.2782 5.29154 38.1577C4.96205 37.3129 4.57228 36.0406 4.46591 33.7006C4.34955 31.1707 4.32632 30.4108 4.32632 24.0013C4.32632 17.5919 4.35147 16.8341 4.46591 14.3021C4.57247 11.9621 4.96513 10.6923 5.29154 9.845C5.72778 8.72444 6.24735 7.92492 7.08681 7.08432C7.92627 6.24371 8.72502 5.72336 9.8475 5.28904C10.6923 4.95956 11.9646 4.56978 14.3046 4.46341C16.8345 4.34705 17.5944 4.32382 24.001 4.32382C30.4075 4.32382 31.1682 4.34859 33.7002 4.46379C36.0402 4.57036 37.31 4.96301 38.1573 5.28943C39.2779 5.72375 40.0774 6.24524 40.918 7.0847C41.7586 7.92416 42.277 8.72483 42.7133 9.84539C43.0427 10.6902 43.4325 11.9625 43.5389 14.3025C43.6552 16.8345 43.6785 17.5923 43.6785 24.0017C43.6785 30.4111 43.6552 31.169 43.5389 33.701C43.4323 36.041 43.0406 37.3129 42.7133 38.1581C42.277 39.2786 41.7574 40.0781 40.918 40.9168C40.0785 41.7555 39.2779 42.2759 38.1573 42.7121C37.3125 43.0416 36.0402 43.4314 33.7002 43.5377C31.1703 43.6541 30.4104 43.6773 24.001 43.6773C17.5916 43.6773 16.8337 43.6541 14.3046 43.5377V43.5374ZM14.1058 0.14535C11.5508 0.261707 9.80487 0.666843 8.28014 1.26015C6.70203 1.87284 5.36431 2.69483 4.02851 4.02851C2.69272 5.3622 1.87284 6.70011 1.26015 8.28014C0.666843 9.80583 0.261707 11.5508 0.14535 14.1058C0.0270732 16.6649 0 17.4831 0 24.001C0 30.5189 0.0270732 31.337 0.14535 33.8961C0.261707 36.4513 0.666843 38.1961 1.26015 39.7218C1.87284 41.2999 2.69291 42.6403 4.02851 43.9734C5.36412 45.3065 6.70011 46.1273 8.28014 46.7418C9.80775 47.3351 11.5508 47.7402 14.1058 47.8566C16.6663 47.9729 17.4831 48.0019 24.001 48.0019C30.5189 48.0019 31.337 47.9748 33.8961 47.8566C36.4513 47.7402 38.1961 47.3351 39.7218 46.7418C41.2999 46.1273 42.6376 45.3071 43.9734 43.9734C45.3092 42.6397 46.1273 41.2999 46.7418 39.7218C47.3351 38.1961 47.7421 36.4511 47.8566 33.8961C47.9729 31.3351 48 30.5189 48 24.001C48 17.4831 47.9729 16.6649 47.8566 14.1058C47.7402 11.5506 47.3351 9.80487 46.7418 8.28014C46.1273 6.70203 45.3071 5.36431 43.9734 4.02851C42.6397 2.69272 41.2999 1.87284 39.7237 1.26015C38.1961 0.666843 36.4511 0.259787 33.898 0.14535C31.3385 0.0284173 30.5208 0 24.0038 0C17.4869 0 16.6672 0.0270732 14.1068 0.14535" fill="white"/>
</svg>
