<svg width="128" height="132" viewBox="0 0 128 132" fill="none" xmlns="http://www.w3.org/2000/svg">
<g clip-path="url(#clip0)">
<path opacity="0.08" fill-rule="evenodd" clip-rule="evenodd" d="M117.922 49.5185C126.21 73.7374 121.001 101.414 100.299 117.035C80.3002 132.126 52.9087 128.11 32.4412 114.022C13.0696 100.689 3.99597 77.5028 9.74411 54.7068C16.3357 28.5659 33.632 2.89159 60.7919 1.58896C88.504 0.259841 109.055 23.6089 117.922 49.5185Z" fill="white"/>
<path d="M62.0432 51.6234C68.0078 51.6234 72.8432 46.7881 72.8432 40.8234C72.8432 34.8588 68.0078 30.0234 62.0432 30.0234C56.0785 30.0234 51.2432 34.8588 51.2432 40.8234C51.2432 46.7881 56.0785 51.6234 62.0432 51.6234Z" stroke="white" stroke-width="4" stroke-linecap="round" stroke-linejoin="round"/>
<path d="M75.0124 61.2219C71.4625 57.9974 66.8386 56.2109 62.0428 56.2109C57.247 56.2109 52.6232 57.9974 49.0732 61.2219" stroke="white" stroke-width="4" stroke-linecap="round" stroke-linejoin="round"/>
<path d="M84.4426 90.0219C90.4073 90.0219 95.2426 85.1866 95.2426 79.2219C95.2426 73.2572 90.4073 68.4219 84.4426 68.4219C78.4779 68.4219 73.6426 73.2572 73.6426 79.2219C73.6426 85.1866 78.4779 90.0219 84.4426 90.0219Z" stroke="white" stroke-width="4" stroke-linecap="round" stroke-linejoin="round"/>
<path d="M99.6432 102.023C97.8398 99.7126 95.5336 97.8439 92.8997 96.5587C90.2659 95.2735 87.3738 94.6055 84.4432 94.6055C81.5125 94.6055 78.6204 95.2735 75.9866 96.5587C73.3528 97.8439 71.0466 99.7126 69.2432 102.023" stroke="white" stroke-width="4" stroke-linecap="round" stroke-linejoin="round"/>
<path d="M42.843 90.0219C48.8076 90.0219 53.643 85.1866 53.643 79.2219C53.643 73.2572 48.8076 68.4219 42.843 68.4219C36.8783 68.4219 32.043 73.2572 32.043 79.2219C32.043 85.1866 36.8783 90.0219 42.843 90.0219Z" stroke="white" stroke-width="4" stroke-linecap="round" stroke-linejoin="round"/>
<path d="M58.0396 102.023C56.2363 99.7126 53.93 97.8439 51.2962 96.5587C48.6624 95.2735 45.7703 94.6055 42.8396 94.6055C39.909 94.6055 37.0169 95.2735 34.3831 96.5587C31.7493 97.8439 29.443 99.7126 27.6396 102.023" stroke="white" stroke-width="4" stroke-linecap="round" stroke-linejoin="round"/>
</g>
<defs>
<clipPath id="clip0">
<rect width="128" height="132" fill="white"/>
</clipPath>
</defs>
</svg>
