<svg width="195" height="36" viewBox="0 0 195 36" fill="none" xmlns="http://www.w3.org/2000/svg">
<path d="M51.5278 15.7447C51.5278 13.8621 51.9482 12.1805 52.789 10.7001C53.648 9.2013 54.8087 8.04067 56.2709 7.21818C57.7513 6.37742 59.4055 5.95703 61.2332 5.95703C63.3717 5.95703 65.2452 6.50536 66.8536 7.60201C68.462 8.69867 69.5861 10.2157 70.2258 12.1531H65.8118C65.3731 11.2392 64.7517 10.5538 63.9474 10.0969C63.1615 9.63996 62.2476 9.41149 61.2058 9.41149C60.0909 9.41149 59.0947 9.67652 58.2174 10.2066C57.3584 10.7183 56.6821 11.4494 56.1886 12.3999C55.7134 13.3503 55.4758 14.4652 55.4758 15.7447C55.4758 17.0058 55.7134 18.1208 56.1886 19.0895C56.6821 20.0399 57.3584 20.7801 58.2174 21.3102C59.0947 21.822 60.0909 22.0779 61.2058 22.0779C62.2476 22.0779 63.1615 21.8494 63.9474 21.3924C64.7517 20.9172 65.3731 20.2227 65.8118 19.3088H70.2258C69.5861 21.2645 68.462 22.7907 66.8536 23.8873C65.2634 24.9657 63.39 25.5049 61.2332 25.5049C59.4055 25.5049 57.7513 25.0937 56.2709 24.2712C54.8087 23.4304 53.648 22.2698 52.789 20.7893C51.9482 19.3088 51.5278 17.6273 51.5278 15.7447Z" fill="#1A1C47"/>
<path d="M80.2486 25.5871C78.7864 25.5871 77.4704 25.2673 76.3007 24.6276C75.1309 23.9696 74.2079 23.0466 73.5316 21.8585C72.8736 20.6705 72.5446 19.2997 72.5446 17.7461C72.5446 16.1925 72.8827 14.8217 73.559 13.6336C74.2536 12.4456 75.1949 11.5317 76.3829 10.892C77.5709 10.234 78.8961 9.90499 80.3583 9.90499C81.8205 9.90499 83.1456 10.234 84.3336 10.892C85.5217 11.5317 86.4538 12.4456 87.1301 13.6336C87.8247 14.8217 88.1719 16.1925 88.1719 17.7461C88.1719 19.2997 87.8155 20.6705 87.1027 21.8585C86.4081 23.0466 85.4577 23.9696 84.2514 24.6276C83.0634 25.2673 81.7291 25.5871 80.2486 25.5871ZM80.2486 22.2424C80.9432 22.2424 81.592 22.0779 82.1952 21.7489C82.8166 21.4016 83.3101 20.8898 83.6757 20.2135C84.0412 19.5373 84.224 18.7148 84.224 17.7461C84.224 16.3021 83.8401 15.1963 83.0725 14.4287C82.3231 13.6428 81.4001 13.2498 80.3034 13.2498C79.2068 13.2498 78.2838 13.6428 77.5344 14.4287C76.8033 15.1963 76.4377 16.3021 76.4377 17.7461C76.4377 19.19 76.7941 20.3049 77.507 21.0909C78.2381 21.8585 79.152 22.2424 80.2486 22.2424Z" fill="#1A1C47"/>
<path d="M109.85 9.9324C111.714 9.9324 113.213 10.5081 114.346 11.6596C115.498 12.7928 116.073 14.383 116.073 16.4301V25.3404H112.235V16.951C112.235 15.7629 111.934 14.8582 111.33 14.2368C110.727 13.5971 109.905 13.2772 108.863 13.2772C107.821 13.2772 106.989 13.5971 106.368 14.2368C105.765 14.8582 105.463 15.7629 105.463 16.951V25.3404H101.625V16.951C101.625 15.7629 101.323 14.8582 100.72 14.2368C100.117 13.5971 99.2946 13.2772 98.2528 13.2772C97.1927 13.2772 96.3519 13.5971 95.7305 14.2368C95.1273 14.8582 94.8258 15.7629 94.8258 16.951V25.3404H90.9875V10.1517H94.8258V11.9886C95.3192 11.3489 95.9498 10.8463 96.7175 10.4807C97.5034 10.1152 98.3625 9.9324 99.2946 9.9324C100.483 9.9324 101.543 10.1883 102.475 10.7001C103.407 11.1936 104.129 11.9064 104.641 12.8385C105.134 11.9612 105.847 11.2575 106.779 10.7275C107.73 10.1974 108.753 9.9324 109.85 9.9324Z" fill="#1A1C47"/>
<path d="M123.554 12.345C124.048 11.6505 124.724 11.0748 125.583 10.6178C126.46 10.1426 127.456 9.90499 128.571 9.90499C129.869 9.90499 131.039 10.2248 132.081 10.8646C133.141 11.5043 133.972 12.4182 134.575 13.6062C135.197 14.776 135.508 16.1376 135.508 17.6912C135.508 19.2448 135.197 20.6248 134.575 21.8311C133.972 23.0191 133.141 23.9422 132.081 24.6002C131.039 25.2582 129.869 25.5871 128.571 25.5871C127.456 25.5871 126.469 25.3587 125.61 24.9017C124.769 24.4448 124.084 23.8691 123.554 23.1745V32.5783H119.716V10.1517H123.554V12.345ZM131.587 17.6912C131.587 16.7774 131.395 15.9914 131.011 15.3334C130.646 14.6572 130.152 14.1454 129.531 13.7981C128.928 13.4508 128.27 13.2772 127.557 13.2772C126.862 13.2772 126.204 13.46 125.583 13.8255C124.98 14.1728 124.486 14.6846 124.102 15.3608C123.737 16.0371 123.554 16.8322 123.554 17.7461C123.554 18.6599 123.737 19.455 124.102 20.1313C124.486 20.8076 124.98 21.3285 125.583 21.694C126.204 22.0413 126.862 22.2149 127.557 22.2149C128.27 22.2149 128.928 22.0322 129.531 21.6666C130.152 21.3011 130.646 20.7801 131.011 20.1039C131.395 19.4276 131.587 18.6234 131.587 17.6912Z" fill="#1A1C47"/>
<path d="M137.31 17.6912C137.31 16.1559 137.611 14.7942 138.214 13.6062C138.836 12.4182 139.668 11.5043 140.709 10.8646C141.769 10.2248 142.948 9.90499 144.246 9.90499C145.379 9.90499 146.366 10.1335 147.207 10.5904C148.066 11.0473 148.752 11.6231 149.263 12.3176V10.1517H153.129V25.3404H149.263V23.1197C148.77 23.8325 148.084 24.4265 147.207 24.9017C146.348 25.3587 145.352 25.5871 144.219 25.5871C142.939 25.5871 141.769 25.2582 140.709 24.6002C139.668 23.9422 138.836 23.0191 138.214 21.8311C137.611 20.6248 137.31 19.2448 137.31 17.6912ZM149.263 17.7461C149.263 16.8139 149.081 16.0188 148.715 15.3608C148.349 14.6846 147.856 14.1728 147.234 13.8255C146.613 13.46 145.946 13.2772 145.233 13.2772C144.52 13.2772 143.862 13.4508 143.259 13.7981C142.656 14.1454 142.162 14.6572 141.779 15.3334C141.413 15.9914 141.23 16.7774 141.23 17.6912C141.23 18.6051 141.413 19.4093 141.779 20.1039C142.162 20.7801 142.656 21.3011 143.259 21.6666C143.881 22.0322 144.539 22.2149 145.233 22.2149C145.946 22.2149 146.613 22.0413 147.234 21.694C147.856 21.3285 148.349 20.8167 148.715 20.1587C149.081 19.4824 149.263 18.6782 149.263 17.7461Z" fill="#1A1C47"/>
<path d="M165.295 9.9324C167.104 9.9324 168.566 10.5081 169.681 11.6596C170.796 12.7928 171.354 14.383 171.354 16.4301V25.3404H167.515V16.951C167.515 15.7447 167.214 14.8217 166.611 14.1819C166.007 13.5239 165.185 13.195 164.143 13.195C163.083 13.195 162.242 13.5239 161.621 14.1819C161.018 14.8217 160.716 15.7447 160.716 16.951V25.3404H156.878V10.1517H160.716V12.0435C161.228 11.3855 161.877 10.8737 162.663 10.5081C163.467 10.1243 164.344 9.9324 165.295 9.9324Z" fill="#1A1C47"/>
<path d="M189.534 10.1517L180.13 32.5235H176.045L179.335 24.9566L173.249 10.1517H177.553L181.474 20.7619L185.449 10.1517H189.534Z" fill="#1A1C47"/>
<path d="M17.8947 33.3929C11.3138 33.3929 6 28.0383 6 21.4982C6 14.9582 11.3138 9.60352 17.8947 9.60352C24.4348 9.60352 29.7894 14.9173 29.7894 21.4982C29.7486 28.0383 24.4348 33.3929 17.8947 33.3929Z" fill="#323582"/>
<path d="M36.0391 2H19.2475C18.5003 2 17.8945 2.60573 17.8945 3.35293V20.1446C17.8945 20.8918 18.5003 21.4975 19.2475 21.4975H36.0391C36.7863 21.4975 37.3921 20.8918 37.3921 20.1446V3.35293C37.3921 2.60573 36.7863 2 36.0391 2Z" fill="#316BFF"/>
</svg>
