<svg width="60" height="54" viewBox="0 0 60 54" fill="none" xmlns="http://www.w3.org/2000/svg">
<path d="M50.0667 6H11.9333C10.3133 6 9 7.3133 9 8.93333V47.0667C9 48.6867 10.3133 50 11.9333 50H50.0667C51.6867 50 53 48.6867 53 47.0667V8.93333C53 7.3133 51.6867 6 50.0667 6Z" stroke="#316BFF" stroke-width="2.5" stroke-linecap="round" stroke-linejoin="round"/>
<path d="M27.5538 35.1586C27.2986 35.2858 27.0151 35.3458 26.7302 35.3327C26.4453 35.3197 26.1685 35.2341 25.926 35.084C25.6835 34.934 25.4833 34.7245 25.3445 34.4754C25.2057 34.2262 25.1328 33.9458 25.1328 33.6606V22.3419C25.1328 22.0567 25.2057 21.7762 25.3445 21.5271C25.4833 21.278 25.6835 21.0685 25.926 20.9184C26.1685 20.7684 26.4453 20.6828 26.7302 20.6697C27.0151 20.6567 27.2986 20.7166 27.5538 20.8439L38.8745 26.5052C39.1525 26.644 39.3863 26.8575 39.5498 27.1217C39.7132 27.386 39.7998 27.6905 39.7998 28.0012C39.7998 28.3119 39.7132 28.6165 39.5498 28.8807C39.3863 29.145 39.1525 29.3585 38.8745 29.4972L27.5538 35.1586Z" stroke="#316BFF" stroke-width="2.5" stroke-linecap="round" stroke-linejoin="round"/>
<path opacity="0.06" fill-rule="evenodd" clip-rule="evenodd" d="M31.6782 0.00846476C43.8654 0.245078 55.4014 7.10758 59.02 18.957C62.5158 30.4043 56.2573 42.0481 46.62 48.9367C37.4987 55.4564 25.6458 55.7414 16.3814 49.4343C5.7576 42.2017 -2.91397 30.2384 0.926584 17.8291C4.84521 5.16764 18.6403 -0.244665 31.6782 0.00846476Z" fill="#316BFF"/>
</svg>
