<svg width="40" height="54" viewBox="0 0 40 54" fill="none" xmlns="http://www.w3.org/2000/svg">
<path d="M20.0005 53.512C9.14404 53.512 0.343262 44.7112 0.343262 33.8552V25.3704C0.343262 22.2729 2.8544 19.7617 5.95192 19.7617H34.0483C37.1458 19.7617 39.657 22.2729 39.657 25.3704V33.8552C39.6573 44.7112 30.8565 53.512 20.0005 53.512Z" fill="#316BFF"/>
<path d="M23.4029 29.6681C23.4029 27.2583 20.8978 25.4338 18.35 26.6562C17.7688 26.9352 17.2928 27.3993 17.0082 27.9774C16.1458 29.7294 16.7296 31.4669 17.9595 32.3906C18.2595 32.6157 18.3855 33.0065 18.2927 33.37L16.8908 38.8754C16.7423 39.458 17.1828 40.0246 17.7842 40.0246H22.2171C22.8184 40.0246 23.2589 39.458 23.1105 38.8754L21.7044 33.3539C21.6113 32.9878 21.7552 32.6082 22.0563 32.3797C22.8745 31.7582 23.4029 30.7747 23.4029 29.6681Z" fill="white"/>
<path d="M8.76797 16.1207C8.76797 13.1205 9.93623 10.2997 12.0577 8.17819C14.1792 6.05672 17 4.88846 20.0002 4.88846C23.0005 4.88846 25.8213 6.05672 27.9428 8.17819C30.0643 10.2997 31.2325 13.1205 31.2325 16.1207V19.7665L35.6284 20.0428V16.1207C35.6284 14.012 35.2148 11.9649 34.3992 10.0368C33.612 8.17557 32.4853 6.50435 31.0508 5.06983C29.6163 3.63532 27.945 2.50858 26.0838 1.72139C24.1564 0.905787 22.1094 0.492188 20.0006 0.492188C17.8919 0.492188 15.8448 0.905787 13.9167 1.72139C12.0555 2.50858 10.3842 3.63532 8.94972 5.06983C7.51521 6.50435 6.38846 8.17557 5.60128 10.0368C4.78567 11.9649 4.37207 14.012 4.37207 16.1207V20.0036L8.76797 19.7665V16.1207V16.1207Z" fill="#316BFF"/>
</svg>
