<svg width="165" height="172" viewBox="0 0 165 172" fill="none" xmlns="http://www.w3.org/2000/svg">
<path opacity="0.06" d="M57.5428 148.437C48.0799 142.973 40.1105 135.261 34.3404 125.981C28.5703 116.702 25.1777 106.144 24.463 95.2401C23.7484 84.3367 25.7338 73.4253 30.2433 63.4725C34.7529 53.5197 41.6474 44.8326 50.3163 38.1808C58.9851 31.529 69.1606 27.1177 79.9414 25.3378C90.7223 23.5579 101.776 24.4642 112.123 27.9765C122.47 31.4888 131.791 37.4987 139.26 45.4738C146.73 53.4488 152.117 63.143 154.945 73.6974L126.661 81.2762C125.079 75.3731 122.066 69.9511 117.888 65.4907C113.711 61.0302 108.497 57.6689 102.71 55.7044C96.9233 53.74 90.7411 53.2331 84.7113 54.2286C78.6816 55.2241 72.9904 57.6913 68.142 61.4117C63.2935 65.1321 59.4374 69.9907 56.9152 75.5574C54.393 81.124 53.2825 87.2267 53.6822 93.325C54.082 99.4233 55.9794 105.329 59.2067 110.519C62.4339 115.708 66.8912 120.022 72.1838 123.078L57.5428 148.437Z" fill="#316BFF"/>
</svg>
