<svg width="341" height="345" viewBox="0 0 341 345" fill="none" xmlns="http://www.w3.org/2000/svg">
<path d="M229.851 58.9996C249.826 70.5323 266.314 87.2482 277.571 107.38C288.829 127.512 294.437 150.311 293.803 173.368C293.169 196.425 286.317 218.882 273.971 238.364C261.625 257.847 244.244 273.632 223.665 284.05C203.087 294.468 180.076 299.132 157.065 297.549C134.054 295.966 111.898 288.194 92.9404 275.056C73.9828 261.917 58.9275 243.9 49.3663 222.91C39.8052 201.92 36.0935 178.736 38.6237 155.81L88.3253 161.295C86.7835 175.265 89.0452 189.392 94.8712 202.182C100.697 214.973 109.871 225.951 121.423 233.957C132.975 241.963 146.475 246.699 160.497 247.664C174.519 248.628 188.541 245.786 201.08 239.438C213.62 233.09 224.211 223.472 231.734 211.6C239.257 199.728 243.432 186.044 243.819 171.994C244.205 157.944 240.787 144.052 233.928 131.784C227.068 119.517 217.021 109.331 204.85 102.304L229.851 58.9996Z" fill="white" fill-opacity="0.03"/>
</svg>
