<svg width="60" height="54" viewBox="0 0 60 54" fill="none" xmlns="http://www.w3.org/2000/svg">
<path opacity="0.06" fill-rule="evenodd" clip-rule="evenodd" d="M31.6782 0.00846476C43.8654 0.245078 55.4014 7.10758 59.02 18.957C62.5158 30.4043 56.2573 42.0481 46.62 48.9367C37.4987 55.4564 25.6458 55.7414 16.3814 49.4343C5.7576 42.2017 -2.91397 30.2384 0.926584 17.8291C4.84521 5.16764 18.6403 -0.244665 31.6782 0.00846476Z" fill="#316BFF"/>
<path d="M51 52.75H16.875C15.5821 52.75 14.3421 52.2364 13.4279 51.3221C12.5136 50.4079 12 49.1679 12 47.875" stroke="#316BFF" stroke-width="2.5" stroke-linecap="round" stroke-linejoin="round"/>
<path d="M18.5 4C16.7761 4 15.1228 4.68482 13.9038 5.90381C12.6848 7.12279 12 8.77609 12 10.5V47.875C12 46.5821 12.5136 45.3421 13.4279 44.4279C14.3421 43.5136 15.5821 43 16.875 43H49.375C49.806 43 50.2193 42.8288 50.5241 42.5241C50.8288 42.2193 51 41.806 51 41.375V5.625C51 5.19402 50.8288 4.7807 50.5241 4.47595C50.2193 4.1712 49.806 4 49.375 4H18.5Z" stroke="#316BFF" stroke-width="2.5" stroke-linecap="round" stroke-linejoin="round"/>
<path d="M47.75 52.75V43" stroke="#316BFF" stroke-width="2.5" stroke-linecap="round" stroke-linejoin="round"/>
</svg>
