<svg width="49" height="41" viewBox="0 0 49 41" fill="none" xmlns="http://www.w3.org/2000/svg">
<path d="M3.89983 17.9409C3.89983 17.9409 25.1291 9.22844 32.4917 6.16056C35.3142 4.9335 44.8857 1.0066 44.8857 1.0066C44.8857 1.0066 49.3034 -0.71127 48.9352 3.46087C48.8124 5.17891 47.8308 11.1917 46.8492 17.6955C45.3765 26.899 43.7813 36.9613 43.7813 36.9613C43.7813 36.9613 43.5359 39.7838 41.4498 40.2746C39.3637 40.7654 35.9276 38.5567 35.3142 38.0657C34.8232 37.6977 26.1107 32.1756 22.9202 29.4759C22.0612 28.7397 21.0796 27.2672 23.0428 25.5491C27.4606 21.4996 32.7371 16.4685 35.9276 13.278C37.4003 11.8053 38.8727 8.36942 32.7371 12.5416C24.0247 18.5545 15.4348 24.1993 15.4348 24.1993C15.4348 24.1993 13.4713 25.4264 9.79001 24.3219C6.10852 23.2177 1.81359 21.745 1.81359 21.745C1.81359 21.745 -1.13133 19.9044 3.89983 17.9409V17.9409Z" fill="white"/>
</svg>
