<svg width="60" height="54" viewBox="0 0 60 54" fill="none" xmlns="http://www.w3.org/2000/svg">
<path opacity="0.06" fill-rule="evenodd" clip-rule="evenodd" d="M31.6782 0.00846476C43.8654 0.245078 55.4014 7.10758 59.02 18.957C62.5158 30.4043 56.2573 42.0481 46.62 48.9367C37.4987 55.4564 25.6458 55.7414 16.3814 49.4343C5.7576 42.2017 -2.91397 30.2384 0.926584 17.8291C4.84521 5.16764 18.6403 -0.244665 31.6782 0.00846476Z" fill="#316BFF"/>
<path d="M52.9333 47.9333C52.9333 48.7467 52.6102 49.5267 52.0351 50.1018C51.46 50.6769 50.68 51 49.8667 51H13.0667C12.2533 51 11.4733 50.6769 10.8982 50.1018C10.3231 49.5267 10 48.7467 10 47.9333V8.06667C10 7.66395 10.0793 7.26517 10.2334 6.8931C10.3876 6.52104 10.6134 6.18297 10.8982 5.89821C11.4733 5.32309 12.2533 5 13.0667 5H43.7333C44.5331 5.00008 45.3012 5.31261 45.8739 5.87093L52.0072 11.7651C52.3003 12.0507 52.5332 12.3922 52.6923 12.7693C52.8513 13.1464 52.9333 13.5515 52.9333 13.9608V47.9333Z" stroke="#316BFF" stroke-width="2.5" stroke-linecap="round" stroke-linejoin="round"/>
<path d="M26.8652 18.3555L26.8652 43.333" stroke="#316BFF" stroke-width="2.5" stroke-linecap="round" stroke-linejoin="round"/>
<path d="M17.6641 34.1328H45.2641" stroke="#316BFF" stroke-width="2.5" stroke-linecap="round" stroke-linejoin="round"/>
<path d="M44.2418 17.3125H18.6863C18.1217 17.3125 17.6641 17.7979 17.6641 18.3967V42.2488C17.6641 42.8476 18.1217 43.333 18.6863 43.333H44.2418C44.8064 43.333 45.2641 42.8476 45.2641 42.2488V18.3967C45.2641 17.7979 44.8064 17.3125 44.2418 17.3125Z" stroke="#316BFF" stroke-width="2.5" stroke-linecap="round" stroke-linejoin="round"/>
<path d="M17.6641 24.9336H45.2641" stroke="#316BFF" stroke-width="2.5" stroke-linecap="round" stroke-linejoin="round"/>
</svg>
