<svg width="195" height="36" viewBox="0 0 195 36" fill="none" xmlns="http://www.w3.org/2000/svg">
<path d="M29.5878 16.1025C25.2267 16.1025 21.6867 12.5759 21.6867 8.24175C21.6867 7.67642 21.754 7.13802 21.8616 6.59961H11.3627C7.29774 6.59961 4 9.88389 4 13.9219V27.4494C4 31.5009 7.29774 34.7717 11.3627 34.7717H24.9575C29.0359 34.7717 32.3202 31.4875 32.3202 27.4494V15.6045C31.4857 15.914 30.5569 16.1025 29.5878 16.1025Z" fill="#323582"/>
<path d="M32.3334 27.4494V15.6045C31.4854 15.914 30.5566 16.1025 29.601 16.1025C25.2399 16.1025 21.6998 12.5759 21.6998 8.24175C21.6998 7.67642 21.7671 7.13802 21.8748 6.59961H11.3759C7.33784 6.59961 4.06702 9.83005 4.01318 13.8412C13.7045 17.8388 23.665 22.698 32.2795 28.3782C32.3064 28.0686 32.3334 27.759 32.3334 27.4494Z" fill="#323582"/>
<path d="M30.1932 13.3873C33.3564 13.3873 35.9138 10.8433 35.9138 7.69365C35.9138 4.55743 33.3564 2 30.1932 2C27.0301 2 24.4727 4.54397 24.4727 7.69365C24.4727 10.8299 27.0301 13.3873 30.1932 13.3873Z" fill="#316BFF"/>
<path d="M63.7864 21.6062C63.5883 22.4485 63.2538 23.266 62.7832 24.0587C62.3125 24.8266 61.7303 25.5203 61.0367 26.1396C60.3431 26.7341 59.5504 27.2172 58.6586 27.5887C57.7668 27.9356 56.8131 28.109 55.7974 28.109C54.6331 28.109 53.5307 27.886 52.4903 27.4401C51.4746 26.9694 50.5705 26.3377 49.7777 25.545C49.0098 24.7523 48.3905 23.8357 47.9198 22.7953C47.4739 21.7301 47.251 20.5906 47.251 19.3767C47.251 18.1629 47.4739 17.0358 47.9198 15.9953C48.3905 14.9301 49.0098 14.0012 49.7777 13.2085C50.5705 12.4157 51.4746 11.7964 52.4903 11.3505C53.5307 10.8799 54.6331 10.6445 55.7974 10.6445C56.8131 10.6445 57.7668 10.8303 58.6586 11.2019C59.5504 11.5487 60.3431 12.0318 61.0367 12.6511C61.7303 13.2456 62.3125 13.9392 62.7832 14.732C63.2538 15.4999 63.5883 16.305 63.7864 17.1472H59.5132C59.3151 16.7013 59.0426 16.305 58.6957 15.9582C58.3985 15.6609 58.0145 15.3884 57.5438 15.1407C57.0732 14.8682 56.491 14.732 55.7974 14.732C54.5836 14.732 53.5679 15.1531 52.7504 15.9953C51.9329 16.8376 51.5242 17.9647 51.5242 19.3767C51.5242 20.7888 51.9329 21.9159 52.7504 22.7582C53.5679 23.6004 54.5836 24.0215 55.7974 24.0215C56.491 24.0215 57.0732 23.8977 57.5438 23.65C58.0145 23.4022 58.3985 23.1297 58.6957 22.8325C59.0426 22.4857 59.3151 22.0769 59.5132 21.6062H63.7864Z" fill="#1A1C47"/>
<path d="M70.8465 19.3767C70.8465 20.7888 71.2553 21.9159 72.0728 22.7582C72.8902 23.6004 73.9059 24.0215 75.1197 24.0215C76.3336 24.0215 77.3492 23.6004 78.1667 22.7582C78.9842 21.9159 79.393 20.7888 79.393 19.3767C79.393 17.9647 78.9842 16.8376 78.1667 15.9953C77.3492 15.1531 76.3336 14.732 75.1197 14.732C73.9059 14.732 72.8902 15.1531 72.0728 15.9953C71.2553 16.8376 70.8465 17.9647 70.8465 19.3767ZM83.6662 19.3767C83.6662 20.5906 83.4308 21.7301 82.9602 22.7953C82.5143 23.8357 81.8949 24.7523 81.1022 25.545C80.3343 26.3377 79.4301 26.9694 78.3897 27.4401C77.374 27.886 76.284 28.109 75.1197 28.109C73.9554 28.109 72.8531 27.886 71.8126 27.4401C70.797 26.9694 69.8928 26.3377 69.1001 25.545C68.3321 24.7523 67.7128 23.8357 67.2422 22.7953C66.7963 21.7301 66.5733 20.5906 66.5733 19.3767C66.5733 18.1629 66.7963 17.0358 67.2422 15.9953C67.7128 14.9301 68.3321 14.0012 69.1001 13.2085C69.8928 12.4157 70.797 11.7964 71.8126 11.3505C72.8531 10.8799 73.9554 10.6445 75.1197 10.6445C76.284 10.6445 77.374 10.8799 78.3897 11.3505C79.4301 11.7964 80.3343 12.4157 81.1022 13.2085C81.8949 14.0012 82.5143 14.9301 82.9602 15.9953C83.4308 17.0358 83.6662 18.1629 83.6662 19.3767Z" fill="#1A1C47"/>
<path d="M95.5394 10.6445C96.4064 10.6445 97.1496 10.7684 97.7689 11.0161C98.3882 11.2391 98.8961 11.4868 99.2924 11.7593C99.7383 12.0813 100.098 12.4529 100.37 12.874C100.766 12.4529 101.225 12.0813 101.745 11.7593C102.191 11.4868 102.723 11.2391 103.343 11.0161C103.962 10.7684 104.643 10.6445 105.386 10.6445C107.244 10.6445 108.731 11.2391 109.845 12.4281C110.96 13.6172 111.518 15.376 111.518 17.7046V27.9232H107.244V18.0762C107.244 17.0358 106.959 16.2183 106.39 15.6238C105.845 15.0292 105.201 14.732 104.457 14.732C103.714 14.732 103.058 15.0292 102.488 15.6238C101.943 16.2183 101.671 17.0358 101.671 18.0762V27.9232H97.3973V18.0762C97.3973 17.0358 97.1125 16.2183 96.5427 15.6238C95.9977 15.0292 95.3536 14.732 94.6105 14.732C93.8673 14.732 93.2108 15.0292 92.6411 15.6238C92.0961 16.2183 91.8236 17.0358 91.8236 18.0762V27.9232H87.5504V10.8303H90.7088L91.452 12.5024C91.7988 12.1556 92.1828 11.846 92.6039 11.5735C92.9507 11.3505 93.3718 11.14 93.8673 10.9418C94.3627 10.7436 94.9201 10.6445 95.5394 10.6445Z" fill="#1A1C47"/>
<path d="M124.895 10.6445C125.96 10.6445 126.975 10.8675 127.941 11.3134C128.908 11.7345 129.75 12.3414 130.468 13.1341C131.211 13.9021 131.794 14.8187 132.215 15.8839C132.661 16.9491 132.884 18.1134 132.884 19.3767C132.884 20.6401 132.661 21.8044 132.215 22.8696C131.794 23.9348 131.211 24.8638 130.468 25.6565C129.75 26.4244 128.908 27.0314 127.941 27.4773C126.975 27.8984 125.96 28.109 124.895 28.109C124.176 28.109 123.544 28.0223 122.999 27.8489C122.479 27.6754 122.021 27.4897 121.625 27.2915C121.179 27.0438 120.782 26.7589 120.436 26.4368V33.8685H116.162V10.8303H119.321L120.064 12.5024C120.436 12.1556 120.869 11.846 121.364 11.5735C121.786 11.3505 122.293 11.14 122.888 10.9418C123.482 10.7436 124.151 10.6445 124.895 10.6445ZM120.064 19.3767C120.064 20.7888 120.473 21.9159 121.29 22.7582C122.108 23.6004 123.123 24.0215 124.337 24.0215C125.551 24.0215 126.567 23.6004 127.384 22.7582C128.202 21.9159 128.61 20.7888 128.61 19.3767C128.61 17.9647 128.202 16.8376 127.384 15.9953C126.567 15.1531 125.551 14.732 124.337 14.732C123.123 14.732 122.108 15.1531 121.29 15.9953C120.473 16.8376 120.064 17.9647 120.064 19.3767Z" fill="#1A1C47"/>
<path d="M143.851 10.6445C144.817 10.6445 145.709 10.8179 146.526 11.1647C147.344 11.4868 148.05 11.9451 148.645 12.5396C149.239 13.1341 149.697 13.8401 150.019 14.6576C150.366 15.4751 150.54 16.3669 150.54 17.333V27.9232H147.381L146.638 26.251C146.242 26.5979 145.808 26.9075 145.337 27.18C144.916 27.4277 144.408 27.6507 143.814 27.8489C143.219 28.0223 142.551 28.109 141.807 28.109C139.949 28.109 138.525 27.6631 137.534 26.7713C136.543 25.8547 136.048 24.6904 136.048 23.2784C136.048 22.4361 136.209 21.6682 136.531 20.9746C136.878 20.2562 137.447 19.6492 138.24 19.1538C139.033 18.6336 140.073 18.2372 141.361 17.9647C142.674 17.6675 144.309 17.5188 146.266 17.5188C146.266 16.5775 146.006 15.8467 145.486 15.3265C144.991 14.8063 144.322 14.5462 143.479 14.5462C142.91 14.5462 142.451 14.6452 142.105 14.8434C141.783 15.0416 141.522 15.2522 141.324 15.4751C141.101 15.7476 140.953 16.0573 140.878 16.4041H136.605C136.704 15.6114 136.927 14.8682 137.274 14.1746C137.646 13.481 138.141 12.874 138.76 12.3538C139.38 11.8336 140.11 11.4249 140.953 11.1276C141.82 10.8056 142.786 10.6445 143.851 10.6445ZM142.551 24.7647C143.665 24.7647 144.557 24.4427 145.226 23.7986C145.92 23.1297 146.266 22.2751 146.266 21.2347V20.4915C145.003 20.4915 143.987 20.5534 143.219 20.6773C142.451 20.7764 141.845 20.9374 141.399 21.1603C140.978 21.3585 140.693 21.6062 140.544 21.9035C140.395 22.2008 140.321 22.5352 140.321 22.9068C140.321 23.3775 140.532 23.811 140.953 24.2073C141.374 24.5789 141.906 24.7647 142.551 24.7647Z" fill="#1A1C47"/>
<path d="M163.902 10.6445C164.918 10.6445 165.847 10.8179 166.689 11.1647C167.531 11.4868 168.25 11.9698 168.844 12.6139C169.463 13.2332 169.934 13.9888 170.256 14.8806C170.603 15.7724 170.776 16.7757 170.776 17.8904V27.9232H166.503V18.4478C166.503 17.333 166.169 16.4412 165.5 15.7724C164.856 15.0788 164.014 14.732 162.973 14.732C161.933 14.732 161.078 15.0788 160.409 15.7724C159.765 16.4412 159.443 17.333 159.443 18.4478V27.9232H155.17V10.8303H158.328L159.071 12.5024C159.493 12.1556 159.951 11.846 160.446 11.5735C160.867 11.3505 161.363 11.14 161.933 10.9418C162.527 10.7436 163.184 10.6445 163.902 10.6445Z" fill="#1A1C47"/>
<path d="M173.578 10.8303H178.037L182.31 21.9778L186.212 10.8303H190.671C189.457 13.9516 188.354 16.7757 187.363 19.3024C186.942 20.3924 186.521 21.4576 186.1 22.498C185.704 23.5385 185.345 24.4922 185.023 25.3592C184.7 26.2015 184.428 26.9075 184.205 27.4773C183.982 28.047 183.846 28.3815 183.796 28.4805C183.375 29.4962 182.954 30.3508 182.533 31.0445C182.137 31.7629 181.703 32.345 181.232 32.7909C180.762 33.2368 180.254 33.5589 179.709 33.757C179.164 33.9552 178.545 34.0543 177.851 34.0543C177.653 34.0543 177.455 34.0419 177.256 34.0171C177.083 34.0171 176.934 34.0048 176.811 33.98C176.637 33.9552 176.488 33.918 176.365 33.8685V30.3385C177.306 30.3385 178.024 30.1279 178.52 29.7068C179.04 29.2856 179.436 28.753 179.709 28.109L180.08 27.18L173.578 10.8303Z" fill="#1A1C47"/>
</svg>
