<svg width="80" height="80" viewBox="0 0 80 80" fill="none" xmlns="http://www.w3.org/2000/svg">
<g clip-path="url(#clip0)">
<path opacity="0.08" fill-rule="evenodd" clip-rule="evenodd" d="M15.4425 18.1721C25.8466 6.24915 42.2733 0.483206 57.0352 6.7376C71.296 12.7797 77.6121 28.6856 76.3965 43.9975C75.2459 58.4894 65.6375 70.5137 51.6568 74.4824C35.6246 79.0335 16.5334 77.7094 7.44111 63.5717C-1.83598 49.1465 4.31207 30.9274 15.4425 18.1721Z" fill="white"/>
<path d="M63.2064 47.7422L49.4463 50.3715" stroke="white" stroke-width="2" stroke-linecap="round" stroke-linejoin="round"/>
<path d="M47.5401 32.1118L38.2921 35.1678C37.5764 35.4034 36.7991 35.3676 36.1082 35.0671C35.4173 34.7667 34.8611 34.2226 34.5454 33.5385C34.2051 32.8083 34.162 31.9744 34.4253 31.2131C34.6885 30.4517 35.2374 29.8225 35.956 29.4585L44.9134 24.9544C45.6769 24.5694 46.5113 24.3452 47.3649 24.2957C48.2185 24.2461 49.0732 24.3723 49.8761 24.6664L63.1375 29.5171" stroke="white" stroke-width="2" stroke-linecap="round" stroke-linejoin="round"/>
<path d="M18.9277 47.7655H25.4478L34.8132 58.2615C35.2901 58.8142 35.9247 59.2078 36.6317 59.3895C37.3387 59.5712 38.0845 59.5324 38.7688 59.2782C39.4531 59.0239 40.0433 58.5665 40.4602 57.9672C40.8771 57.368 41.1008 56.6555 41.1012 55.9255V54.2855L41.5679 54.4722C42.2378 54.7401 42.9632 54.8399 43.6806 54.7626C44.398 54.6854 45.0855 54.4336 45.683 54.0291C46.2806 53.6247 46.7699 53.0801 47.1083 52.4428C47.4466 51.8055 47.6237 51.095 47.6239 50.3735H48.9279C49.6545 50.373 50.3665 50.1703 50.9845 49.7881C51.6024 49.4059 52.1017 48.8593 52.4267 48.2095C52.7516 47.5596 52.8892 46.8322 52.8242 46.1086C52.7592 45.3849 52.4941 44.6937 52.0586 44.1121L43.6879 33.3867" stroke="white" stroke-width="2" stroke-linecap="round" stroke-linejoin="round"/>
<path d="M37.324 28.7719L36.3693 27.9852C35.4073 27.2768 34.244 26.8946 33.0493 26.8945C32.3374 26.8943 31.6322 27.031 30.9719 27.2972L19.1025 32.0439" stroke="white" stroke-width="2" stroke-linecap="round" stroke-linejoin="round"/>
<path d="M11.0996 27.5022H16.433C17.1101 27.474 17.7709 27.7152 18.2707 28.173C18.7704 28.6308 19.0685 29.2679 19.0997 29.9449V47.057C19.0685 47.7343 18.7705 48.3716 18.2708 48.8299C17.7711 49.2881 17.1104 49.5299 16.433 49.5024H11.0996" stroke="white" stroke-width="2" stroke-linecap="round" stroke-linejoin="round"/>
<path d="M71.0997 49.5024H65.7663C65.0889 49.5299 64.4281 49.2881 63.9284 48.8299C63.4287 48.3716 63.1308 47.7343 63.0996 47.057V29.9449C63.1308 29.2679 63.4288 28.6308 63.9286 28.173C64.4284 27.7152 65.0891 27.474 65.7663 27.5022H71.0997" stroke="white" stroke-width="2" stroke-linecap="round" stroke-linejoin="round"/>
<path d="M41.1022 54.2838L38.4941 51.6758" stroke="white" stroke-width="2" stroke-linecap="round" stroke-linejoin="round"/>
<path d="M47.6207 50.3717L43.7061 46.457" stroke="white" stroke-width="2" stroke-linecap="round" stroke-linejoin="round"/>
</g>
<defs>
<clipPath id="clip0">
<rect width="80" height="80" fill="white"/>
</clipPath>
</defs>
</svg>
