<svg width="195" height="36" viewBox="0 0 195 36" fill="none" xmlns="http://www.w3.org/2000/svg">
<path d="M52.2427 15.0017C52.2427 13.1929 52.6466 11.5772 53.4544 10.1548C54.2798 8.71476 55.3949 7.59963 56.7998 6.80938C58.2222 6.00156 59.8115 5.59766 61.5676 5.59766C63.6223 5.59766 65.4223 6.12449 66.9677 7.17816C68.5131 8.23183 69.5931 9.6894 70.2077 11.5509H65.9667C65.5452 10.6728 64.9482 10.0143 64.1755 9.57526C63.4204 9.13623 62.5423 8.91671 61.5413 8.91671C60.4701 8.91671 59.513 9.17135 58.6701 9.68062C57.8447 10.1723 57.1949 10.8748 56.7208 11.788C56.2642 12.7011 56.0359 13.7724 56.0359 15.0017C56.0359 16.2134 56.2642 17.2846 56.7208 18.2153C57.1949 19.1285 57.8447 19.8398 58.6701 20.349C59.513 20.8407 60.4701 21.0866 61.5413 21.0866C62.5423 21.0866 63.4204 20.8671 64.1755 20.4281C64.9482 19.9715 65.5452 19.3041 65.9667 18.4261H70.2077C69.5931 20.3051 68.5131 21.7715 66.9677 22.8251C65.4399 23.8613 63.6399 24.3793 61.5676 24.3793C59.8115 24.3793 58.2222 23.9842 56.7998 23.1939C55.3949 22.3861 54.2798 21.271 53.4544 19.8485C52.6466 18.4261 52.2427 16.8105 52.2427 15.0017Z" fill="#1A1C47"/>
<path d="M79.8377 24.4583C78.4328 24.4583 77.1684 24.151 76.0445 23.5364C74.9206 22.9042 74.0337 22.0173 73.384 20.8759C72.7518 19.7344 72.4357 18.4173 72.4357 16.9246C72.4357 15.4319 72.7606 14.1148 73.4103 12.9733C74.0776 11.8319 74.982 10.9538 76.1235 10.3392C77.265 9.70697 78.5382 9.39087 79.9431 9.39087C81.348 9.39087 82.6211 9.70697 83.7626 10.3392C84.9041 10.9538 85.7997 11.8319 86.4495 12.9733C87.1168 14.1148 87.4505 15.4319 87.4505 16.9246C87.4505 18.4173 87.108 19.7344 86.4231 20.8759C85.7558 22.0173 84.8426 22.9042 83.6836 23.5364C82.5421 24.151 81.2602 24.4583 79.8377 24.4583ZM79.8377 21.2446C80.505 21.2446 81.1284 21.0866 81.708 20.7705C82.305 20.4368 82.7792 19.9451 83.1304 19.2954C83.4816 18.6456 83.6572 17.8553 83.6572 16.9246C83.6572 15.5373 83.2885 14.4748 82.5509 13.7373C81.8309 12.9821 80.944 12.6046 79.8904 12.6046C78.8367 12.6046 77.9499 12.9821 77.2299 13.7373C76.5274 14.4748 76.1762 15.5373 76.1762 16.9246C76.1762 18.3119 76.5186 19.3832 77.2035 20.1383C77.906 20.8759 78.784 21.2446 79.8377 21.2446Z" fill="#1A1C47"/>
<path d="M108.279 9.41721C110.07 9.41721 111.51 9.97038 112.599 11.0767C113.705 12.1655 114.258 13.6933 114.258 15.6602V24.2213H110.57V16.1607C110.57 15.0192 110.281 14.1499 109.701 13.5529C109.122 12.9382 108.331 12.6309 107.33 12.6309C106.329 12.6309 105.53 12.9382 104.933 13.5529C104.354 14.1499 104.064 15.0192 104.064 16.1607V24.2213H100.376V16.1607C100.376 15.0192 100.086 14.1499 99.5069 13.5529C98.9274 12.9382 98.1372 12.6309 97.1362 12.6309C96.1176 12.6309 95.3098 12.9382 94.7127 13.5529C94.1332 14.1499 93.8435 15.0192 93.8435 16.1607V24.2213H90.1556V9.62794H93.8435V11.3928C94.3176 10.7782 94.9235 10.2953 95.661 9.94404C96.4162 9.59282 97.2416 9.41721 98.1372 9.41721C99.2786 9.41721 100.297 9.66306 101.193 10.1548C102.088 10.6289 102.782 11.3138 103.274 12.2094C103.748 11.3665 104.433 10.6904 105.328 10.1811C106.242 9.67184 107.225 9.41721 108.279 9.41721Z" fill="#1A1C47"/>
<path d="M121.446 11.7353C121.92 11.068 122.57 10.5148 123.395 10.0758C124.238 9.61916 125.195 9.39087 126.266 9.39087C127.513 9.39087 128.637 9.69819 129.638 10.3128C130.657 10.9275 131.456 11.8055 132.035 12.947C132.632 14.0709 132.931 15.3792 132.931 16.8719C132.931 18.3646 132.632 19.6905 132.035 20.8495C131.456 21.991 130.657 22.8778 129.638 23.51C128.637 24.1422 127.513 24.4583 126.266 24.4583C125.195 24.4583 124.247 24.2388 123.421 23.7998C122.614 23.3608 121.955 22.8076 121.446 22.1403V31.1755H117.758V9.62794H121.446V11.7353ZM129.164 16.8719C129.164 15.9939 128.979 15.2387 128.611 14.6065C128.259 13.9568 127.785 13.4651 127.188 13.1314C126.609 12.7977 125.976 12.6309 125.292 12.6309C124.624 12.6309 123.992 12.8065 123.395 13.1577C122.815 13.4914 122.341 13.9831 121.973 14.6329C121.621 15.2826 121.446 16.0465 121.446 16.9246C121.446 17.8027 121.621 18.5666 121.973 19.2163C122.341 19.8661 122.815 20.3666 123.395 20.7178C123.992 21.0515 124.624 21.2183 125.292 21.2183C125.976 21.2183 126.609 21.0427 127.188 20.6915C127.785 20.3402 128.259 19.8398 128.611 19.19C128.979 18.5402 129.164 17.7675 129.164 16.8719Z" fill="#1A1C47"/>
<path d="M134.662 16.8719C134.662 15.3968 134.952 14.0885 135.532 12.947C136.129 11.8055 136.928 10.9275 137.929 10.3128C138.947 9.69819 140.08 9.39087 141.327 9.39087C142.415 9.39087 143.364 9.61038 144.172 10.0494C144.997 10.4884 145.656 11.0416 146.147 11.7089V9.62794H149.861V24.2213H146.147V22.0876C145.673 22.7725 145.015 23.3432 144.172 23.7998C143.346 24.2388 142.389 24.4583 141.3 24.4583C140.071 24.4583 138.947 24.1422 137.929 23.51C136.928 22.8778 136.129 21.991 135.532 20.8495C134.952 19.6905 134.662 18.3646 134.662 16.8719ZM146.147 16.9246C146.147 16.029 145.972 15.2651 145.62 14.6329C145.269 13.9831 144.795 13.4914 144.198 13.1577C143.601 12.8065 142.96 12.6309 142.275 12.6309C141.59 12.6309 140.958 12.7977 140.378 13.1314C139.799 13.4651 139.325 13.9568 138.956 14.6065C138.605 15.2387 138.429 15.9939 138.429 16.8719C138.429 17.75 138.605 18.5227 138.956 19.19C139.325 19.8398 139.799 20.3402 140.378 20.6915C140.975 21.0427 141.608 21.2183 142.275 21.2183C142.96 21.2183 143.601 21.0515 144.198 20.7178C144.795 20.3666 145.269 19.8749 145.62 19.2427C145.972 18.5929 146.147 17.8202 146.147 16.9246Z" fill="#1A1C47"/>
<path d="M161.55 9.41721C163.289 9.41721 164.694 9.97038 165.765 11.0767C166.836 12.1655 167.372 13.6933 167.372 15.6602V24.2213H163.684V16.1607C163.684 15.0017 163.394 14.1148 162.815 13.5002C162.235 12.868 161.445 12.5519 160.444 12.5519C159.425 12.5519 158.617 12.868 158.02 13.5002C157.441 14.1148 157.151 15.0017 157.151 16.1607V24.2213H153.463V9.62794H157.151V11.4455C157.643 10.8133 158.266 10.3216 159.021 9.97038C159.794 9.6016 160.637 9.41721 161.55 9.41721Z" fill="#1A1C47"/>
<path d="M184.84 9.62794L175.805 31.1228H171.88L175.041 23.8525L169.193 9.62794H173.328L177.095 19.8222L180.915 9.62794H184.84Z" fill="#1A1C47"/>
<path fill-rule="evenodd" clip-rule="evenodd" d="M21.9439 6.25842C19.9198 6.77492 18.0963 7.83752 16.6608 9.27241C14.5938 11.354 13.302 14.2255 13.302 17.3979C13.302 18.4749 13.4452 19.5224 13.7325 20.513C13.9333 21.2163 13.6314 21.9341 13 22.3081L12.8712 22.3793C12.4399 22.6237 11.9519 22.6666 11.4922 22.4658C11.0188 22.2789 10.7031 21.9204 10.5598 21.4316C10.2008 20.1547 10 18.7908 10 17.3981C10 13.3068 11.6511 9.61722 14.3354 6.93265C16.1873 5.08096 18.5416 3.71713 21.1686 3.05688C21.6567 2.92734 22.1301 3.02845 22.5324 3.34413C22.9345 3.64537 23.1354 4.09035 23.1354 4.59288V4.72241C23.1354 5.45395 22.662 6.08602 21.9439 6.25842Z" fill="#316BFF"/>
<path fill-rule="evenodd" clip-rule="evenodd" d="M36.2858 17.3962C36.2858 14.2235 34.994 11.3521 32.9119 9.27069C31.4761 7.83556 29.668 6.77296 27.6294 6.25669C26.9261 6.08429 26.438 5.45223 26.438 4.72069V4.59115C26.438 4.08863 26.6533 3.64341 27.0549 3.34241C27.4568 3.02649 27.9309 2.92538 28.419 3.05492C31.046 3.7154 33.3858 5.079 35.2514 6.93092C37.9227 9.61549 39.5869 13.3051 39.5869 17.3964C39.5869 18.7891 39.386 20.1529 39.0268 21.4301C38.8835 21.9189 38.5678 22.2774 38.0942 22.4643C37.6208 22.6504 37.1464 22.622 36.7015 22.3779L36.5873 22.3066C35.9552 21.9329 35.6535 21.2148 35.8548 20.4971C36.1279 19.5067 36.2858 18.4732 36.2858 17.3962Z" fill="#316BFF"/>
<path fill-rule="evenodd" clip-rule="evenodd" d="M29.1793 17.5981C29.1793 15.1716 27.2128 13.2051 24.7864 13.2051C22.3746 13.2051 20.4078 15.1719 20.4078 17.5981C20.4078 20.0091 22.3746 21.9759 24.7864 21.9759C27.2126 21.9759 29.1793 20.0093 29.1793 17.5981ZM16.5749 25.4218C16.604 25.4509 16.6325 25.4794 16.6609 25.5222C18.7425 27.5892 21.6139 28.8817 24.7864 28.8817C27.959 28.8817 30.8297 27.5894 32.9114 25.5222C32.9405 25.4794 32.9833 25.4509 33.0118 25.4218C33.529 24.8909 34.3041 24.7898 34.9361 25.149L35.0503 25.2203C35.4955 25.4791 35.7688 25.8808 35.8401 26.3686C35.8976 26.8712 35.7537 27.3308 35.3949 27.704C35.352 27.7469 35.2945 27.8044 35.2509 27.8473C32.5663 30.5319 28.8781 32.1827 24.7861 32.1827C20.7088 32.1827 17.0052 30.5317 14.3353 27.8473C14.2778 27.8044 14.2342 27.7469 14.1769 27.6894C13.8328 27.3308 13.6751 26.8712 13.7471 26.3686C13.8184 25.8661 14.0912 25.4791 14.5217 25.2203L14.6366 25.149C15.2824 24.79 16.0584 24.8909 16.5749 25.4218Z" fill="#316BFF"/>
<circle cx="24.7911" cy="17.609" r="4.40393" fill="#323582"/>
</svg>
