<svg width="32" height="32" viewBox="0 0 32 32" fill="none" xmlns="http://www.w3.org/2000/svg">
<g clip-path="url(#clip0)">
<path d="M21.7877 2.43714C22.0247 2.30034 22.2721 2.21824 22.5297 2.19037C22.7876 2.16298 23.0381 2.18144 23.281 2.24652C23.5239 2.31159 23.75 2.42085 23.9597 2.57353C24.1689 2.72648 24.3421 2.9213 24.4789 3.15825L31.3607 15.0779C31.4975 15.3148 31.581 15.5646 31.6111 15.8261C31.641 16.0883 31.6233 16.3403 31.5582 16.5831C31.4932 16.826 31.3828 17.0502 31.2276 17.2556C31.0725 17.4609 30.8765 17.6323 30.6396 17.7691L27.1006 19.8123C26.6502 20.0723 26.1046 20.1066 25.6255 19.9048L24.4868 19.4257C24.3657 19.3799 24.2309 19.3657 24.0828 19.3827C23.9347 19.3998 23.8051 19.4401 23.6947 19.5038C23.5763 19.5722 23.4752 19.6619 23.3923 19.7731C23.3089 19.8845 23.2592 20.0079 23.2431 20.1438L23.0886 21.3695C23.0238 21.8853 22.7209 22.341 22.2709 22.6007L10.2002 29.5697C9.96328 29.7065 9.71584 29.7886 9.45821 29.8165C9.20057 29.8444 8.9498 29.8254 8.70694 29.7604C8.46407 29.6953 8.23982 29.5849 8.03448 29.4297C7.82893 29.2753 7.65809 29.0791 7.52129 28.8422L0.639226 16.9221C0.502421 16.6851 0.417924 16.4391 0.386695 16.1834C0.354987 15.928 0.371532 15.6786 0.436608 15.4357C0.501684 15.1929 0.61094 14.9667 0.763618 14.757C0.916573 14.5479 1.11139 14.3746 1.34834 14.2378L13.4186 7.26907C13.869 7.00903 14.4146 6.97479 14.8937 7.17656L16.0324 7.65561C16.1582 7.7096 16.2922 7.72687 16.4338 7.70844C16.5759 7.68974 16.7017 7.64844 16.8125 7.58447C16.9228 7.52078 17.025 7.433 17.1182 7.32095C17.2118 7.20938 17.2666 7.085 17.2831 6.94952L17.4334 5.71666C17.4965 5.19797 17.7998 4.73956 18.2521 4.47842L21.7877 2.43714Z" fill="url(#paint0_linear)"/>
<path d="M13.0514 10.8937C13.2884 10.7569 13.5377 10.7235 13.7995 10.7937C14.0613 10.8638 14.2606 11.0174 14.3974 11.2543C14.5298 11.4836 14.5601 11.7322 14.488 11.9995C14.4163 12.2673 14.2657 12.4675 14.0369 12.5995L4.66434 18.0108C4.43506 18.1432 4.1865 18.1735 3.91915 18.1015C3.65131 18.0297 3.45121 17.8792 3.31911 17.6504C3.18702 17.4216 3.15671 17.173 3.22848 16.9052C3.30024 16.6373 3.45077 16.4372 3.67956 16.3051L13.0517 10.8941L13.0514 10.8937ZM6.62752 21.4111C6.39824 21.5435 6.14968 21.5738 5.88233 21.5018C5.61449 21.43 5.41439 21.2795 5.28229 21.0507C5.15019 20.8219 5.11989 20.5733 5.19166 20.3055C5.26342 20.0377 5.41394 19.8376 5.64274 19.7055L12.4559 15.7719C12.6928 15.6351 12.9422 15.6018 13.204 15.6719C13.4657 15.7421 13.665 15.8956 13.8018 16.1326C13.9387 16.3695 13.972 16.6189 13.9018 16.8807C13.8317 17.1424 13.6781 17.3417 13.4412 17.4785L6.62807 21.4121L6.62752 21.4111ZM16.9847 17.7063C17.2216 17.5695 17.471 17.5362 17.7328 17.6063C17.9946 17.6765 18.1939 17.83 18.3307 18.067C18.463 18.2962 18.4933 18.5448 18.4213 18.8122C18.3495 19.08 18.199 19.2801 17.9702 19.4122L8.59762 24.8235C8.36834 24.9558 8.11978 24.9861 7.85243 24.9141C7.58459 24.8423 7.38449 24.6918 7.25239 24.463C7.1203 24.2342 7.08999 23.9857 7.16176 23.7178C7.23352 23.45 7.38405 23.2499 7.61284 23.1178L16.985 17.7068L16.9847 17.7063ZM22.424 5.4824C22.6528 5.3503 22.8994 5.3211 23.1634 5.39508C23.4274 5.46907 23.6256 5.6207 23.7577 5.84949L26.7062 10.9565C26.8386 11.1857 26.8708 11.4332 26.8026 11.6983C26.7347 11.9639 26.5861 12.1629 26.3573 12.295L24.6511 13.2801C24.4142 13.4169 24.1648 13.4502 23.903 13.3801C23.6412 13.3099 23.4419 13.1564 23.3051 12.9194L20.3569 7.81295C20.2201 7.576 20.1868 7.32663 20.2569 7.06485C20.3271 6.80306 20.4806 6.60377 20.7176 6.46697L22.4237 5.48192L22.424 5.4824ZM27.3426 14.0017C27.5714 13.8696 27.8169 13.8385 28.0787 13.9086C28.3405 13.9788 28.5376 14.1285 28.6697 14.3573C28.8021 14.5865 28.8343 14.834 28.7661 15.0991C28.6981 15.3647 28.5495 15.5637 28.3207 15.6958L26.6146 16.6809C26.3776 16.8177 26.1283 16.851 25.8665 16.7809C25.6047 16.7107 25.4054 16.5572 25.2686 16.3202C25.1365 16.0914 25.1073 15.8448 25.1813 15.5808C25.2553 15.3168 25.4069 15.1186 25.6357 14.9865L27.3423 14.0012L27.3426 14.0017Z" fill="white" fill-opacity="0.2"/>
<path d="M17.798 9.29033C18.035 9.15352 18.2844 9.12019 18.5461 9.19034C18.8079 9.26048 19.0072 9.41403 19.144 9.65098C19.2764 9.88026 19.3053 10.1264 19.2313 10.3904C19.1573 10.6544 19.0057 10.8526 18.7769 10.9847C18.5476 11.1171 18.3002 11.1493 18.035 11.0811C17.7694 11.0132 17.5707 10.865 17.4383 10.6358C17.3062 10.407 17.2759 10.1584 17.3477 9.89057C17.4182 9.62281 17.5688 9.4227 17.798 9.29033ZM19.7615 12.6911C19.9984 12.5543 20.2478 12.521 20.5096 12.5911C20.7714 12.6613 20.9707 12.8148 21.1075 13.0518C21.2443 13.2887 21.2776 13.5381 21.2075 13.7999C21.1373 14.0617 20.9838 14.261 20.7468 14.3978C20.5175 14.5301 20.269 14.5604 20.0016 14.4884C19.7338 14.4166 19.5337 14.2661 19.4016 14.0373C19.2695 13.8085 19.2392 13.56 19.311 13.2921C19.3817 13.0236 19.5322 12.8235 19.7615 12.6911ZM21.7316 16.1034C21.9685 15.9666 22.2179 15.9333 22.4797 16.0035C22.7415 16.0736 22.9408 16.2272 23.0776 16.4641C23.2099 16.6934 23.2389 16.9395 23.1649 17.2035C23.0909 17.4675 22.9393 17.6657 22.7105 17.7978C22.4812 17.9302 22.2337 17.9624 21.9686 17.8942C21.703 17.8263 21.5043 17.6782 21.3719 17.4489C21.2398 17.2201 21.2095 16.9715 21.2813 16.7037C21.3518 16.4359 21.5023 16.2358 21.7316 16.1034Z" fill="white"/>
</g>
<defs>
<linearGradient id="paint0_linear" x1="10.0024" y1="9.24139" x2="18.8543" y2="24.5733" gradientUnits="userSpaceOnUse">
<stop stop-color="#3083FF"/>
<stop offset="1" stop-color="#1C5AF9"/>
</linearGradient>
<clipPath id="clip0">
<rect width="32" height="32" fill="white"/>
</clipPath>
</defs>
</svg>
