<svg width="80" height="80" viewBox="0 0 80 80" fill="none" xmlns="http://www.w3.org/2000/svg">
<g clip-path="url(#clip0)">
<path opacity="0.08" fill-rule="evenodd" clip-rule="evenodd" d="M65.1366 63.3982C54.7325 75.3212 38.3058 81.0871 23.5439 74.8327C9.28309 68.7906 2.96701 52.8847 4.18265 37.5728C5.3332 23.0809 14.9416 11.0566 28.9223 7.08789C44.9545 2.53686 64.0457 3.86091 73.138 17.9987C82.4151 32.4238 76.267 50.6429 65.1366 63.3982Z" fill="white"/>
<path d="M66.0996 25.6852V58.6185C66.0996 59.9976 65.5518 61.3203 64.5766 62.2954C63.6014 63.2706 62.2787 63.8185 60.8996 63.8185C59.5205 63.8185 58.1978 63.2706 57.2227 62.2954C56.2475 61.3203 55.6996 59.9976 55.6996 58.6185V18.7518C55.6996 17.8324 55.3344 16.9506 54.6842 16.3005C54.0341 15.6504 53.1524 15.2852 52.2329 15.2852H17.5663C16.6469 15.2852 15.7651 15.6504 15.115 16.3005C14.4648 16.9506 14.0996 17.8324 14.0996 18.7518V58.6185C14.0996 59.9976 14.6475 61.3203 15.6227 62.2954C16.5978 63.2706 17.9205 63.8185 19.2996 63.8185H60.8996" stroke="white" stroke-width="2" stroke-linecap="round" stroke-linejoin="round"/>
<path d="M22.7661 46.4844H47.0328" stroke="white" stroke-width="2" stroke-linecap="round" stroke-linejoin="round"/>
<path d="M22.7661 53.418H36.6328" stroke="white" stroke-width="2" stroke-linecap="round" stroke-linejoin="round"/>
<path d="M45.2994 23.9531H24.4994C23.5422 23.9531 22.7661 24.7292 22.7661 25.6865V36.0865C22.7661 37.0438 23.5422 37.8198 24.4994 37.8198H45.2994C46.2567 37.8198 47.0328 37.0438 47.0328 36.0865V25.6865C47.0328 24.7292 46.2567 23.9531 45.2994 23.9531Z" stroke="white" stroke-width="2" stroke-linecap="round" stroke-linejoin="round"/>
</g>
<defs>
<clipPath id="clip0">
<rect width="80" height="80" fill="white"/>
</clipPath>
</defs>
</svg>
