<svg width="260" height="180" viewBox="0 0 260 180" fill="none" xmlns="http://www.w3.org/2000/svg">
<path opacity="0.1" d="M0 130C0 110.779 4.26227 91.7969 12.4799 74.421C20.6975 57.0451 32.666 41.7077 47.5234 29.5131C62.3809 17.3186 79.7576 8.57037 98.4023 3.89851C117.047 -0.77336 136.496 -1.25265 155.348 2.49516C174.2 6.24297 191.987 14.1246 207.427 25.5725C222.867 37.0204 235.576 51.7497 244.64 68.6998C253.703 85.6498 258.895 104.399 259.842 123.597C260.789 142.794 257.467 161.963 250.115 179.723L203.192 160.299C207.672 149.477 209.696 137.796 209.119 126.098C208.542 114.4 205.379 102.975 199.856 92.6467C194.333 82.3183 186.588 73.343 177.18 66.3672C167.772 59.3914 156.933 54.5887 145.446 52.305C133.958 50.0213 122.107 50.3133 110.746 53.1601C99.3848 56.0069 88.7963 61.3376 79.743 68.7684C70.6896 76.1991 63.3966 85.545 58.3892 96.133C53.3818 106.721 50.7846 118.288 50.7846 130H0Z" fill="white"/>
</svg>
