<svg width="199" height="208" viewBox="0 0 199 208" fill="none" xmlns="http://www.w3.org/2000/svg">
<path opacity="0.16" d="M103.845 207.69C85.1319 207.69 66.767 202.633 50.6914 193.055C34.6159 183.477 21.4271 169.733 12.5196 153.277C3.61211 136.82 -0.683164 118.262 0.0879476 99.5656C0.859059 80.8689 6.6679 62.7279 16.9003 47.0607C27.1327 31.3935 41.4084 18.7823 58.2181 10.5605C75.0278 2.33866 93.7467 -1.18823 112.396 0.352678C131.045 1.89359 148.931 8.44505 164.163 19.3144C179.396 30.1837 191.408 44.967 198.93 62.1012L161.785 78.4084C157.201 67.9677 149.882 58.9595 140.6 52.3363C131.318 45.7131 120.419 41.7209 109.055 40.782C97.6915 39.843 86.2851 41.9921 76.0421 47.0021C65.7992 52.012 57.1003 59.6967 50.8652 69.2435C44.63 78.7903 41.0904 89.8444 40.6206 101.237C40.1507 112.63 42.768 123.938 48.1958 133.966C53.6236 143.994 61.6601 152.369 71.4558 158.205C81.2514 164.042 92.4421 167.123 103.845 167.123V207.69Z" fill="#316BFF"/>
</svg>
