<svg width="256" height="256" viewBox="0 0 256 256" fill="none" xmlns="http://www.w3.org/2000/svg">
<g clip-path="url(#clip0)">
<path d="M174.302 19.4971C176.197 18.4027 178.177 17.7459 180.238 17.523C182.301 17.3038 184.305 17.4515 186.248 17.9721C188.191 18.4927 190 19.3668 191.678 20.5882C193.351 21.8119 194.737 23.3704 195.831 25.266L250.886 120.623C251.98 122.518 252.648 124.517 252.889 126.609C253.128 128.707 252.987 130.722 252.466 132.665C251.945 134.608 251.062 136.402 249.821 138.045C248.58 139.688 247.012 141.058 245.117 142.152L216.805 158.498C213.202 160.579 208.837 160.852 205.004 159.238L195.895 155.406C194.926 155.039 193.847 154.925 192.662 155.062C191.477 155.199 190.44 155.521 189.558 156.03C188.61 156.578 187.802 157.295 187.138 158.185C186.471 159.076 186.074 160.063 185.945 161.151L184.709 170.956C184.19 175.082 181.767 178.728 178.167 180.806L81.6018 236.558C79.7062 237.652 77.7267 238.309 75.6656 238.532C73.6046 238.755 71.5984 238.603 69.6555 238.083C67.7125 237.562 65.9186 236.679 64.2758 235.438C62.6314 234.203 61.2647 232.633 60.1703 230.737L5.1138 135.377C4.01936 133.481 3.34339 131.513 3.09356 129.467C2.83989 127.424 2.97226 125.429 3.49286 123.486C4.01347 121.543 4.88752 119.734 6.10894 118.056C7.33258 116.383 8.89111 114.997 10.7867 113.903L107.348 58.1526C110.952 56.0723 115.316 55.7984 119.149 57.4125L128.259 61.2449C129.266 61.6768 130.338 61.8149 131.47 61.6675C132.607 61.5179 133.613 61.1875 134.5 60.6758C135.382 60.1662 136.2 59.464 136.946 58.5676C137.694 57.6751 138.133 56.68 138.264 55.5961L139.467 45.7333C139.972 41.5838 142.398 37.9165 146.017 35.8273L174.302 19.4971Z" fill="url(#paint0_linear)"/>
<path d="M104.411 87.1494C106.307 86.055 108.302 85.7883 110.396 86.3495C112.49 86.9106 114.085 88.139 115.179 90.0346C116.238 91.8689 116.481 93.8573 115.904 95.9962C115.33 98.1388 114.126 99.7397 112.295 100.796L37.3147 144.087C35.4805 145.146 33.492 145.388 31.3532 144.812C29.2105 144.238 27.6097 143.033 26.5529 141.203C25.4961 139.373 25.2537 137.384 25.8278 135.241C26.402 133.099 27.6061 131.498 29.4365 130.441L104.413 87.1532L104.411 87.1494ZM53.0201 171.289C51.1859 172.348 49.1975 172.591 47.0586 172.014C44.9159 171.44 43.3151 170.236 42.2583 168.406C41.2015 166.575 40.9591 164.587 41.5332 162.444C42.1074 160.301 43.3116 158.701 45.1419 157.644L99.6469 126.175C101.543 125.081 103.537 124.814 105.632 125.375C107.726 125.937 109.32 127.165 110.415 129.061C111.509 130.956 111.776 132.951 111.215 135.045C110.654 137.14 109.425 138.734 107.53 139.828L53.0246 171.297L53.0201 171.289ZM135.877 141.651C137.773 140.556 139.768 140.289 141.862 140.851C143.957 141.412 145.551 142.64 146.645 144.536C147.704 146.37 147.947 148.358 147.37 150.497C146.796 152.64 145.592 154.241 143.762 155.298L68.781 198.588C66.9467 199.647 64.9583 199.889 62.8194 199.313C60.6767 198.739 59.0759 197.535 58.0191 195.704C56.9624 193.874 56.7199 191.885 57.2941 189.743C57.8682 187.6 59.0724 185.999 60.9028 184.942L135.88 141.654L135.877 141.651ZM179.392 43.8592C181.222 42.8025 183.196 42.5689 185.307 43.1607C187.419 43.7526 189.005 44.9656 190.062 46.796L213.65 87.6517C214.709 89.4859 214.967 91.4655 214.421 93.5867C213.877 95.7116 212.689 97.3036 210.858 98.3603L197.209 106.241C195.313 107.335 193.318 107.602 191.224 107.041C189.13 106.48 187.536 105.251 186.441 103.356L162.855 62.5037C161.761 60.608 161.494 58.6131 162.055 56.5188C162.617 54.4246 163.845 52.8302 165.741 51.7358L179.39 43.8554L179.392 43.8592ZM218.741 112.013C220.571 110.957 222.536 110.708 224.63 111.269C226.724 111.83 228.301 113.028 229.357 114.858C230.416 116.692 230.674 118.672 230.129 120.793C229.585 122.918 228.396 124.51 226.566 125.567L212.917 133.447C211.021 134.542 209.026 134.808 206.932 134.247C204.838 133.686 203.243 132.458 202.149 130.562C201.092 128.732 200.858 126.758 201.45 124.646C202.042 122.534 203.255 120.949 205.086 119.892L218.739 112.01L218.741 112.013Z" fill="white" fill-opacity="0.2"/>
<path d="M142.384 74.3226C144.28 73.2281 146.275 72.9615 148.369 73.5226C150.463 74.0838 152.058 75.3122 153.152 77.2078C154.211 79.042 154.443 81.0113 153.851 83.1233C153.259 85.2353 152.046 86.8207 150.215 87.8775C148.381 88.9365 146.402 89.1943 144.28 88.6486C142.156 88.1052 140.566 86.9202 139.507 85.086C138.45 83.2556 138.208 81.2671 138.782 79.1245C139.346 76.9824 140.55 75.3816 142.384 74.3226ZM158.092 101.529C159.988 100.435 161.983 100.168 164.077 100.729C166.171 101.29 167.765 102.519 168.86 104.414C169.954 106.31 170.221 108.305 169.66 110.399C169.099 112.493 167.87 114.088 165.975 115.182C164.14 116.241 162.152 116.484 160.013 115.907C157.87 115.333 156.27 114.129 155.213 112.298C154.156 110.468 153.914 108.48 154.488 106.337C155.054 104.189 156.258 102.588 158.092 101.529ZM173.853 128.828C175.748 127.733 177.743 127.466 179.838 128.028C181.932 128.589 183.526 129.817 184.621 131.713C185.68 133.547 185.911 135.516 185.319 137.628C184.727 139.74 183.514 141.326 181.684 142.382C179.85 143.441 177.87 143.699 175.749 143.154C173.624 142.61 172.034 141.425 170.975 139.591C169.918 137.761 169.676 135.772 170.25 133.629C170.814 131.487 172.019 129.887 173.853 128.828Z" fill="white"/>
</g>
<defs>
<linearGradient id="paint0_linear" x1="80.0192" y1="73.9311" x2="150.834" y2="196.586" gradientUnits="userSpaceOnUse">
<stop stop-color="#3083FF"/>
<stop offset="1" stop-color="#1C5AF9"/>
</linearGradient>
<clipPath id="clip0">
<rect width="256" height="256" fill="white"/>
</clipPath>
</defs>
</svg>
