<svg width="260" height="270" viewBox="0 0 260 270" fill="none" xmlns="http://www.w3.org/2000/svg">
<path opacity="0.1" d="M38.3045 75.1042C50.3328 60.7695 66.0109 49.9513 83.6813 43.7934C101.352 37.6355 120.358 36.3667 138.69 40.1213C157.022 43.8758 173.999 52.5141 187.826 65.1228C201.653 77.7316 211.816 93.8422 217.24 111.751C222.665 129.661 223.149 148.703 218.642 166.865C214.136 185.026 204.805 201.633 191.637 214.929C178.469 228.224 161.954 237.715 143.836 242.396C125.719 247.078 106.673 246.778 88.7121 241.526L100.097 202.589C111.041 205.789 122.646 205.973 133.686 203.12C144.726 200.267 154.79 194.484 162.814 186.382C170.838 178.28 176.523 168.161 179.269 157.094C182.016 146.027 181.72 134.424 178.415 123.511C175.11 112.598 168.917 102.781 160.491 95.0981C152.066 87.415 141.721 82.1512 130.55 79.8634C119.38 77.5756 107.798 78.3487 97.031 82.101C86.2636 85.8533 76.7101 92.4454 69.3807 101.18L38.3045 75.1042Z" fill="#316BFF"/>
</svg>
