<svg width="232" height="240" viewBox="0 0 232 240" fill="none" xmlns="http://www.w3.org/2000/svg">
<path opacity="0.2" d="M138.332 221.567C119.904 224.816 100.94 223.026 83.445 216.385C65.9505 209.744 50.5755 198.499 38.9456 183.839C27.3158 169.179 19.8633 151.649 17.376 133.103C14.8887 114.556 17.4592 95.6819 24.8155 78.4759C32.1719 61.2699 44.0408 46.3713 59.1674 35.3555C74.294 24.3396 92.1162 17.6158 110.75 15.8949C129.383 14.174 148.135 17.52 165.023 25.5792C181.912 33.6383 196.308 46.1111 206.691 61.6788L172.942 84.1884C166.615 74.7023 157.843 67.102 147.552 62.1912C137.261 57.2803 125.834 55.2414 114.48 56.29C103.126 57.3387 92.2661 61.4358 83.0487 68.1483C73.8313 74.8608 66.599 83.9393 62.1164 94.4237C57.6338 104.908 56.0675 116.409 57.5831 127.71C59.0987 139.012 63.6399 149.694 70.7266 158.627C77.8132 167.56 87.1819 174.412 97.8422 178.458C108.503 182.505 120.058 183.596 131.288 181.616L138.332 221.567Z" fill="#316BFF"/>
</svg>
