<svg width="128" height="132" viewBox="0 0 128 132" fill="none" xmlns="http://www.w3.org/2000/svg">
<g clip-path="url(#clip0)">
<path opacity="0.08" fill-rule="evenodd" clip-rule="evenodd" d="M88.9985 117.106C66.5868 129.474 38.4265 129.15 19.4475 111.476C1.11263 94.4011 0.311815 66.7283 10.6313 44.1254C20.3982 22.7328 41.6564 9.77081 65.1042 11.4732C91.9926 13.4253 120.28 26.0005 126.279 52.5216C132.401 79.5819 112.975 103.875 88.9985 117.106Z" fill="white"/>
<path d="M99.8133 71.7297C99.8133 67.274 98.0433 63.0009 94.8927 59.8503C91.742 56.6997 87.4689 54.9297 83.0133 54.9297H73.4133C68.9576 54.9297 64.6845 56.6997 61.5339 59.8503C58.3833 63.0009 56.6133 67.274 56.6133 71.7297C56.6133 76.1853 58.3833 80.4585 61.5339 83.6091C64.6845 86.7597 68.9576 88.5297 73.4133 88.5297H75.8133L90.2133 102.93V86.8529C93.0797 85.4978 95.5032 83.3577 97.2024 80.6809C98.9016 78.0041 99.8069 74.9003 99.8133 71.7297Z" stroke="white" stroke-width="4" stroke-linecap="round" stroke-linejoin="round"/>
<path d="M47.0134 69.3297L37.4134 78.9297V62.8529C33.9666 61.2246 31.1777 58.4703 29.5065 55.0441C27.8353 51.618 27.3817 47.7246 28.2204 44.006C29.0591 40.2874 31.14 36.9656 34.1201 34.5885C37.1002 32.2114 40.8014 30.9209 44.6134 30.9297H54.2134C57.8315 30.9302 61.3528 32.0982 64.254 34.2602C67.1551 36.4222 69.281 39.4627 70.3158 42.9297" stroke="white" stroke-width="4" stroke-linecap="round" stroke-linejoin="round"/>
</g>
<defs>
<clipPath id="clip0">
<rect width="128" height="132" fill="white"/>
</clipPath>
</defs>
</svg>
