<svg width="60" height="54" viewBox="0 0 60 54" fill="none" xmlns="http://www.w3.org/2000/svg">
<path opacity="0.06" fill-rule="evenodd" clip-rule="evenodd" d="M31.6782 0.00846476C43.8654 0.245078 55.4014 7.10758 59.02 18.957C62.5158 30.4043 56.2573 42.0481 46.62 48.9367C37.4987 55.4564 25.6458 55.7414 16.3814 49.4343C5.7576 42.2017 -2.91397 30.2384 0.926584 17.8291C4.84521 5.16764 18.6403 -0.244665 31.6782 0.00846476Z" fill="#316BFF"/>
<path d="M52.3577 5H9.64288C8.73554 5 8 5.73554 8 6.64288V9.92863C8 10.836 8.73554 11.5715 9.64288 11.5715H52.3577C53.265 11.5715 54.0005 10.836 54.0005 9.92863V6.64288C54.0005 5.73554 53.265 5 52.3577 5Z" stroke="#316BFF" stroke-width="2.5" stroke-linecap="round" stroke-linejoin="round"/>
<path d="M11.2852 11.5742H50.7142V41.146H11.2852V11.5742Z" stroke="#316BFF" stroke-width="2.5" stroke-linecap="round" stroke-linejoin="round"/>
<path d="M31 48.8113V41.1445" stroke="#316BFF" stroke-width="2.5" stroke-linecap="round" stroke-linejoin="round"/>
<path d="M8 41.1445H54.0005" stroke="#316BFF" stroke-width="2.5" stroke-linecap="round" stroke-linejoin="round"/>
<path d="M37.5703 21.4297H44.1418" stroke="#316BFF" stroke-width="2.5" stroke-linecap="round" stroke-linejoin="round"/>
<path d="M37.5703 28H44.1418" stroke="#316BFF" stroke-width="2.5" stroke-linecap="round" stroke-linejoin="round"/>
<path d="M24.427 31.2875C28.0563 31.2875 30.9985 28.3454 30.9985 24.716C30.9985 21.0867 28.0563 18.1445 24.427 18.1445C20.7976 18.1445 17.8555 21.0867 17.8555 24.716C17.8555 28.3454 20.7976 31.2875 24.427 31.2875Z" stroke="#316BFF" stroke-width="2.5" stroke-linecap="round" stroke-linejoin="round"/>
<path d="M34.2863 50.9991C34.2863 49.7877 32.8143 48.8086 31.0006 48.8086C29.1869 48.8086 27.7148 49.7877 27.7148 50.9991" stroke="#316BFF" stroke-width="2.5" stroke-linecap="round" stroke-linejoin="round"/>
</svg>
