<svg width="195" height="37" viewBox="0 0 195 37" fill="none" xmlns="http://www.w3.org/2000/svg">
<path d="M49.0918 16.1282C49.0918 14.2432 49.5127 12.5595 50.3545 11.0772C51.2147 9.5765 52.3768 8.41441 53.8408 7.59088C55.3232 6.74904 56.9794 6.32812 58.8095 6.32812C60.9507 6.32812 62.8265 6.87715 64.437 7.97519C66.0474 9.07323 67.1729 10.5922 67.8134 12.5321H63.3938C62.9546 11.617 62.3324 10.9308 61.5271 10.4732C60.7402 10.0157 59.8252 9.78696 58.782 9.78696C57.6657 9.78696 56.6683 10.0523 55.7899 10.583C54.9297 11.0955 54.2526 11.8275 53.7585 12.7791C53.2827 13.7308 53.0448 14.8471 53.0448 16.1282C53.0448 17.3909 53.2827 18.5073 53.7585 19.4772C54.2526 20.4288 54.9297 21.17 55.7899 21.7007C56.6683 22.2132 57.6657 22.4694 58.782 22.4694C59.8252 22.4694 60.7402 22.2406 61.5271 21.7831C62.3324 21.3073 62.9546 20.6118 63.3938 19.6968H67.8134C67.1729 21.655 66.0474 23.1831 64.437 24.2811C62.8448 25.3609 60.969 25.9008 58.8095 25.9008C56.9794 25.9008 55.3232 25.489 53.8408 24.6655C52.3768 23.8236 51.2147 22.6615 50.3545 21.1792C49.5127 19.6968 49.0918 18.0131 49.0918 16.1282Z" fill="#1A1C47"/>
<path d="M77.849 25.9831C76.3849 25.9831 75.0672 25.6628 73.896 25.0223C72.7248 24.3635 71.8006 23.4393 71.1234 22.2498C70.4646 21.0602 70.1352 19.6877 70.1352 18.1321C70.1352 16.5765 70.4738 15.204 71.1509 14.0144C71.8463 12.8249 72.7888 11.9098 73.9783 11.2693C75.1679 10.6105 76.4947 10.2811 77.9588 10.2811C79.4228 10.2811 80.7496 10.6105 81.9392 11.2693C83.1287 11.9098 84.062 12.8249 84.7392 14.0144C85.4346 15.204 85.7823 16.5765 85.7823 18.1321C85.7823 19.6877 85.4255 21.0602 84.7117 22.2498C84.0163 23.4393 83.0647 24.3635 81.8568 25.0223C80.6673 25.6628 79.3313 25.9831 77.849 25.9831ZM77.849 22.6341C78.5444 22.6341 79.1941 22.4694 79.798 22.14C80.4202 21.7922 80.9143 21.2798 81.2803 20.6027C81.6464 19.9256 81.8294 19.102 81.8294 18.1321C81.8294 16.6863 81.445 15.5791 80.6764 14.8105C79.9261 14.0236 79.0019 13.6301 77.9039 13.6301C76.8058 13.6301 75.8816 14.0236 75.1313 14.8105C74.3993 15.5791 74.0333 16.6863 74.0333 18.1321C74.0333 19.5779 74.3901 20.6942 75.1038 21.4811C75.8359 22.2498 76.7509 22.6341 77.849 22.6341Z" fill="#1A1C47"/>
<path d="M107.488 10.3085C109.354 10.3085 110.855 10.885 111.99 12.038C113.143 13.1726 113.719 14.7648 113.719 16.8144V25.736H109.876V17.336C109.876 16.1465 109.574 15.2406 108.97 14.6184C108.366 13.9778 107.543 13.6576 106.5 13.6576C105.456 13.6576 104.624 13.9778 104.001 14.6184C103.398 15.2406 103.096 16.1465 103.096 17.336V25.736H99.2524V17.336C99.2524 16.1465 98.9505 15.2406 98.3466 14.6184C97.7426 13.9778 96.9191 13.6576 95.876 13.6576C94.8145 13.6576 93.9727 13.9778 93.3505 14.6184C92.7465 15.2406 92.4446 16.1465 92.4446 17.336V25.736H88.6014V10.5281H92.4446V12.3674C92.9387 11.7268 93.5701 11.2236 94.3387 10.8576C95.1256 10.4915 95.9858 10.3085 96.9191 10.3085C98.1086 10.3085 99.1701 10.5647 100.103 11.0772C101.037 11.5713 101.76 12.285 102.272 13.2183C102.766 12.3399 103.48 11.6353 104.413 11.1046C105.365 10.5739 106.39 10.3085 107.488 10.3085Z" fill="#1A1C47"/>
<path d="M121.209 12.7242C121.703 12.0288 122.38 11.4523 123.241 10.9948C124.119 10.519 125.116 10.2811 126.233 10.2811C127.532 10.2811 128.703 10.6013 129.747 11.2419C130.808 11.8824 131.641 12.7974 132.245 13.987C132.867 15.1582 133.178 16.5216 133.178 18.0772C133.178 19.6328 132.867 21.0145 132.245 22.2223C131.641 23.4119 130.808 24.336 129.747 24.9949C128.703 25.6537 127.532 25.9831 126.233 25.9831C125.116 25.9831 124.128 25.7543 123.268 25.2968C122.426 24.8393 121.74 24.2628 121.209 23.5674V32.9831H117.366V10.5281H121.209V12.7242ZM129.252 18.0772C129.252 17.1622 129.06 16.3752 128.676 15.7164C128.31 15.0393 127.816 14.5269 127.194 14.1791C126.59 13.8314 125.931 13.6576 125.217 13.6576C124.522 13.6576 123.863 13.8406 123.241 14.2066C122.637 14.5543 122.143 15.0667 121.758 15.7438C121.392 16.421 121.209 17.2171 121.209 18.1321C121.209 19.0471 121.392 19.8432 121.758 20.5203C122.143 21.1975 122.637 21.719 123.241 22.0851C123.863 22.4328 124.522 22.6066 125.217 22.6066C125.931 22.6066 126.59 22.4236 127.194 22.0576C127.816 21.6916 128.31 21.17 128.676 20.4929C129.06 19.8158 129.252 19.0105 129.252 18.0772Z" fill="#1A1C47"/>
<path d="M134.982 18.0772C134.982 16.5399 135.284 15.1765 135.888 13.987C136.51 12.7974 137.343 11.8824 138.386 11.2419C139.448 10.6013 140.628 10.2811 141.928 10.2811C143.062 10.2811 144.05 10.5098 144.892 10.9674C145.752 11.4249 146.439 12.0013 146.951 12.6968V10.5281H150.822V25.736H146.951V23.5125C146.457 24.2262 145.771 24.821 144.892 25.2968C144.032 25.7543 143.035 25.9831 141.9 25.9831C140.619 25.9831 139.448 25.6537 138.386 24.9949C137.343 24.336 136.51 23.4119 135.888 22.2223C135.284 21.0145 134.982 19.6328 134.982 18.0772ZM146.951 18.1321C146.951 17.1988 146.768 16.4027 146.402 15.7438C146.036 15.0667 145.542 14.5543 144.92 14.2066C144.297 13.8406 143.629 13.6576 142.916 13.6576C142.202 13.6576 141.543 13.8314 140.939 14.1791C140.335 14.5269 139.841 15.0393 139.457 15.7164C139.091 16.3752 138.908 17.1622 138.908 18.0772C138.908 18.9922 139.091 19.7975 139.457 20.4929C139.841 21.17 140.335 21.6916 140.939 22.0576C141.561 22.4236 142.22 22.6066 142.916 22.6066C143.629 22.6066 144.297 22.4328 144.92 22.0851C145.542 21.719 146.036 21.2066 146.402 20.5478C146.768 19.8707 146.951 19.0654 146.951 18.1321Z" fill="#1A1C47"/>
<path d="M163.003 10.3085C164.814 10.3085 166.278 10.885 167.395 12.038C168.511 13.1726 169.069 14.7648 169.069 16.8144V25.736H165.226V17.336C165.226 16.1282 164.924 15.204 164.32 14.5635C163.716 13.9046 162.893 13.5752 161.85 13.5752C160.788 13.5752 159.946 13.9046 159.324 14.5635C158.72 15.204 158.418 16.1282 158.418 17.336V25.736H154.575V10.5281H158.418V12.4223C158.931 11.7634 159.58 11.251 160.367 10.885C161.173 10.5007 162.051 10.3085 163.003 10.3085Z" fill="#1A1C47"/>
<path d="M187.273 10.5281L177.857 32.9282H173.767L177.061 25.3517L170.967 10.5281H175.277L179.202 21.1517L183.183 10.5281H187.273Z" fill="#1A1C47"/>
<path d="M35.4254 20.3819H22.5049V10.6909C22.5049 5.3395 26.8444 1 32.1958 1H35.4254V20.3819Z" fill="#316BFF"/>
<path d="M13.7827 20.3819C17.5287 20.3819 20.5655 17.3452 20.5655 13.5991C20.5655 9.85314 17.5287 6.81641 13.7827 6.81641C10.0367 6.81641 7 9.85314 7 13.5991C7 17.3452 10.0367 20.3819 13.7827 20.3819Z" fill="#316BFF"/>
<path d="M35.4255 22.3184C35.4255 30.1677 29.0621 36.5311 21.2128 36.5311C13.3634 36.5311 7 30.17 7 22.3184H35.4255Z" fill="#323582"/>
</svg>
