<svg width="128" height="132" viewBox="0 0 128 132" fill="none" xmlns="http://www.w3.org/2000/svg">
<path opacity="0.08" fill-rule="evenodd" clip-rule="evenodd" d="M67.5243 10.0177C93.1173 10.5128 117.343 24.8733 124.942 49.6693C132.283 73.6238 119.14 97.9896 98.902 112.405C79.7473 126.048 54.8561 126.644 35.4009 113.446C13.091 98.311 -5.11934 73.2767 2.94583 47.3091C11.1749 20.8138 40.1447 9.48802 67.5243 10.0177Z" fill="white"/>
<path d="M58.2484 56.1192C57.756 55.8886 57.2151 55.7804 56.6718 55.8039C56.1286 55.8275 55.599 55.982 55.1284 56.2544C54.6692 56.5118 54.286 56.8858 54.0176 57.3386C53.7492 57.7915 53.605 58.3072 53.5996 58.8336V73.5634C53.6044 74.09 53.7479 74.606 54.0157 75.0594C54.2835 75.5128 54.6661 75.8877 55.1249 76.1461C55.5958 76.4179 56.1252 76.5721 56.6684 76.5956C57.2115 76.6191 57.7523 76.5113 58.2449 76.2813L72.0665 69.7535C72.7583 69.4522 73.3472 68.9555 73.7607 68.3243C74.1743 67.693 74.3946 66.9548 74.3946 66.2002C74.3946 65.4456 74.1743 64.7074 73.7607 64.0762C73.3472 63.445 72.7583 62.9482 72.0665 62.6469L58.2484 56.1192Z" stroke="white" stroke-width="3" stroke-linecap="round" stroke-linejoin="round"/>
<path d="M87.2993 35H40.7005C39.2091 35 38 36.2091 38 37.7005V94.6993C38 96.1908 39.2091 97.3999 40.7005 97.3999H87.2993C88.7908 97.3999 89.9999 96.1908 89.9999 94.6993V37.7005C89.9999 36.2091 88.7908 35 87.2993 35Z" stroke="white" stroke-width="3" stroke-linecap="round" stroke-linejoin="round"/>
<path d="M29.1046 42.8008C28.562 42.8044 28.0253 42.9149 27.5254 43.1259C27.0254 43.3369 26.5719 43.6444 26.1908 44.0307C25.8096 44.417 25.5083 44.8746 25.304 45.3773C25.0997 45.88 24.9964 46.4181 25.0001 46.9608V85.4407C24.9964 85.9833 25.0997 86.5214 25.304 87.0241C25.5083 87.5269 25.8096 87.9845 26.1908 88.3708C26.5719 88.7571 27.0254 89.0645 27.5254 89.2755C28.0253 89.4866 28.562 89.597 29.1046 89.6007" stroke="white" stroke-width="3" stroke-linecap="round" stroke-linejoin="round"/>
<path d="M98.8955 42.8008C99.4382 42.8044 99.9748 42.9149 100.475 43.1259C100.975 43.3369 101.428 43.6444 101.809 44.0307C102.191 44.417 102.492 44.8746 102.696 45.3773C102.9 45.88 103.004 46.4181 103 46.9608V85.4407C103.004 85.9833 102.9 86.5214 102.696 87.0241C102.492 87.5269 102.191 87.9845 101.809 88.3708C101.428 88.7571 100.975 89.0645 100.475 89.2755C99.9748 89.4866 99.4382 89.597 98.8955 89.6007" stroke="white" stroke-width="3" stroke-linecap="round" stroke-linejoin="round"/>
</svg>
