<svg width="23" height="23" viewBox="0 0 23 23" fill="none" xmlns="http://www.w3.org/2000/svg">
<path d="M5.50049 18.997H15.4215C15.7758 18.997 16.1187 18.8716 16.3894 18.643C16.6602 18.4144 16.8412 18.0973 16.9005 17.748L19.5375 2.248C19.597 1.89885 19.7781 1.58201 20.0488 1.3536C20.3195 1.12518 20.6623 0.999925 21.0165 1H22.0005" stroke="#1A2447" stroke-width="2" stroke-linecap="round" stroke-linejoin="round"/>
<path d="M7.37549 21.2461C7.44966 21.2461 7.52216 21.2681 7.58383 21.3093C7.6455 21.3505 7.69356 21.4091 7.72194 21.4776C7.75033 21.5461 7.75775 21.6215 7.74328 21.6943C7.72881 21.767 7.6931 21.8338 7.64065 21.8863C7.58821 21.9387 7.52139 21.9744 7.44865 21.9889C7.3759 22.0034 7.3005 21.9959 7.23198 21.9675C7.16346 21.9392 7.10489 21.8911 7.06369 21.8294C7.02248 21.7678 7.00049 21.6953 7.00049 21.6211C7.00049 21.5216 7.04 21.4263 7.11032 21.3559C7.18065 21.2856 7.27603 21.2461 7.37549 21.2461Z" stroke="#1A2447" stroke-width="2" stroke-linecap="round" stroke-linejoin="round"/>
<path d="M14.8755 21.2461C14.9497 21.2461 15.0222 21.2681 15.0838 21.3093C15.1455 21.3505 15.1936 21.4091 15.2219 21.4776C15.2503 21.5461 15.2578 21.6215 15.2433 21.6943C15.2288 21.767 15.1931 21.8338 15.1407 21.8863C15.0882 21.9387 15.0214 21.9744 14.9486 21.9889C14.8759 22.0034 14.8005 21.9959 14.732 21.9675C14.6635 21.9392 14.6049 21.8911 14.5637 21.8294C14.5225 21.7678 14.5005 21.6953 14.5005 21.6211C14.5005 21.5216 14.54 21.4263 14.6103 21.3559C14.6806 21.2856 14.776 21.2461 14.8755 21.2461" stroke="#1A2447" stroke-width="2" stroke-linecap="round" stroke-linejoin="round"/>
<path d="M17.4534 14.4962H5.38242C4.7135 14.4961 4.06379 14.2725 3.53654 13.8608C3.00929 13.4492 2.63474 12.8731 2.47242 12.2242L1.02242 6.42419C0.994749 6.31358 0.992664 6.19811 1.01632 6.08657C1.03998 5.97504 1.08876 5.87036 1.15894 5.7805C1.22913 5.69065 1.31888 5.61798 1.42137 5.56802C1.52387 5.51806 1.6364 5.49212 1.75042 5.49219H18.9844" stroke="#1A2447" stroke-width="2" stroke-linecap="round" stroke-linejoin="round"/>
<circle cx="7.37549" cy="21.6211" r="0.5" fill="white" stroke="#1A2447"/>
</svg>
