<svg width="187" height="222" viewBox="0 0 187 222" fill="none" xmlns="http://www.w3.org/2000/svg">
<path d="M34.2465 32.787C47.2941 28.0381 61.2325 26.2415 75.0579 27.5267C88.8832 28.8119 102.252 33.1469 114.2 40.2195C126.149 47.2921 136.381 56.9263 144.159 68.4284C151.936 79.9305 157.067 93.0141 159.181 106.737C161.294 120.46 160.339 134.482 156.382 147.791C152.426 161.1 145.568 173.367 136.301 183.707C127.034 194.048 115.59 202.204 102.792 207.59C89.9944 212.976 76.1615 215.457 62.2896 214.854L63.8818 178.203C72.3347 178.57 80.7638 177.059 88.5621 173.777C96.3605 170.495 103.334 165.524 108.981 159.224C114.627 152.923 118.806 145.448 121.217 137.338C123.628 129.228 124.21 120.684 122.922 112.322C121.634 103.96 118.508 95.9873 113.769 88.9785C109.029 81.9697 102.795 76.0991 95.5136 71.7894C88.2327 67.4798 80.0867 64.8382 71.6622 64.0551C63.2377 63.272 54.7444 64.3667 46.7938 67.2605L34.2465 32.787Z" fill="white" fill-opacity="0.05"/>
</svg>
