<svg width="256" height="177" viewBox="0 0 256 177" fill="none" xmlns="http://www.w3.org/2000/svg">
<path d="M0 128C0 109.075 4.1967 90.3847 12.2879 73.2761C20.3791 56.1675 32.1634 41.066 46.7923 29.0591C61.4212 17.0521 78.5306 8.43852 96.8884 3.83853C115.246 -0.761462 134.396 -1.23337 152.958 2.45678C171.52 6.14693 189.033 13.9073 204.236 25.1791C219.438 36.4509 231.952 50.9536 240.876 67.6429C249.8 84.3321 254.912 102.793 255.845 121.695C256.777 140.598 253.506 159.471 246.267 176.958L200.066 157.832C204.477 147.177 206.47 135.676 205.902 124.158C205.334 112.64 202.219 101.391 196.781 91.2214C191.343 81.0518 183.718 72.2146 174.454 65.3462C165.19 58.4777 154.519 53.7489 143.208 51.5003C131.897 49.2517 120.229 49.5393 109.042 52.3423C97.8558 55.1453 87.4302 60.394 78.5161 67.7104C69.602 75.0268 62.4213 84.2289 57.4909 94.654C52.5605 105.079 50.0033 116.468 50.0033 128H0Z" fill="white" fill-opacity="0.05"/>
</svg>
