<svg width="128" height="132" viewBox="0 0 128 132" fill="none" xmlns="http://www.w3.org/2000/svg">
<path opacity="0.08" fill-rule="evenodd" clip-rule="evenodd" d="M60.4757 122.982C34.8827 122.487 10.657 108.127 3.05792 83.3307C-4.28322 59.3762 8.85969 35.0104 29.098 20.5954C48.2527 6.95237 73.1439 6.35604 92.5991 19.5542C114.909 34.689 133.119 59.7233 125.054 85.6909C116.825 112.186 87.8553 123.512 60.4757 122.982Z" fill="white"/>
<circle cx="65" cy="85" r="1" fill="#316BFF"/>
<path d="M55.4004 57.399C55.4007 55.639 55.8848 53.9131 56.7998 52.4097C57.7148 50.9064 59.0254 49.6835 60.5885 48.8746C62.1515 48.0658 63.9068 47.7023 65.6626 47.8236C67.4183 47.945 69.1068 48.5467 70.5437 49.5629C71.9806 50.5792 73.1104 51.9708 73.8098 53.5858C74.5092 55.2008 74.7512 56.9769 74.5093 58.7201C74.2674 60.4634 73.551 62.1065 72.4384 63.4701C71.3257 64.8337 69.8597 65.8651 68.2004 66.4518C67.2641 66.7828 66.4536 67.396 65.8805 68.207C65.3074 69.0179 64.9999 69.9867 65.0004 70.9798V74.199" stroke="white" stroke-width="4" stroke-linecap="round" stroke-linejoin="round"/>
<path d="M64.9998 83.8008C64.7625 83.8008 64.5305 83.8712 64.3331 84.003C64.1358 84.1349 63.982 84.3223 63.8911 84.5416C63.8003 84.7608 63.7766 85.0021 63.8229 85.2349C63.8692 85.4677 63.9835 85.6815 64.1513 85.8493C64.3191 86.0171 64.5329 86.1314 64.7657 86.1777C64.9985 86.224 65.2398 86.2003 65.459 86.1094C65.6783 86.0186 65.8657 85.8648 65.9976 85.6675C66.1294 85.4701 66.1998 85.2381 66.1998 85.0008C66.1998 84.6825 66.0734 84.3773 65.8483 84.1523C65.6233 83.9272 65.3181 83.8008 64.9998 83.8008Z" stroke="white" stroke-width="4" stroke-linecap="round" stroke-linejoin="round"/>
<path d="M65 103C84.8823 103 101 86.8823 101 67C101 47.1178 84.8823 31 65 31C45.1178 31 29 47.1178 29 67C29 86.8823 45.1178 103 65 103Z" stroke="white" stroke-width="4" stroke-miterlimit="10"/>
<circle cx="65" cy="85" r="2" fill="white"/>
</svg>
