<svg width="46" height="47" viewBox="0 0 46 47" fill="none" xmlns="http://www.w3.org/2000/svg">
<path fill-rule="evenodd" clip-rule="evenodd" d="M16.8341 0.5C14.2964 0.501876 12.2425 2.56135 12.2444 5.09912C12.2425 7.63689 14.2983 9.69637 16.836 9.69825H21.4276V5.101C21.4295 2.56323 19.3738 0.503751 16.8341 0.5C16.836 0.5 16.836 0.5 16.8341 0.5V0.5ZM16.8341 12.7668H4.59358C2.05581 12.7687 8.25891e-05 14.8282 0.00195825 17.366C-0.00179307 19.9037 2.05393 21.9632 4.5917 21.967H16.8341C19.3719 21.9651 21.4276 19.9056 21.4258 17.3678C21.4276 14.8282 19.3719 12.7687 16.8341 12.7668V12.7668Z" fill="white"/>
<path fill-rule="evenodd" clip-rule="evenodd" d="M45.9121 17.366C45.914 14.8282 43.8582 12.7687 41.3205 12.7668C38.7827 12.7687 36.727 14.8282 36.7289 17.366V21.967H41.3205C43.8582 21.9651 45.914 19.9056 45.9121 17.366ZM33.6697 17.366V5.09912C33.6715 2.56323 31.6177 0.503751 29.0799 0.5C26.5421 0.501876 24.4864 2.56135 24.4883 5.09912V17.366C24.4845 19.9037 26.5403 21.9632 29.078 21.967C31.6158 21.9651 33.6715 19.9056 33.6697 17.366Z" fill="white"/>
<path fill-rule="evenodd" clip-rule="evenodd" d="M29.0701 46.5001C31.6079 46.4982 33.6636 44.4387 33.6618 41.901C33.6636 39.3632 31.6079 37.3037 29.0701 37.3018H24.4785V41.901C24.4766 44.4368 26.5324 46.4963 29.0701 46.5001ZM29.0701 34.2314H41.3126C43.8504 34.2295 45.9061 32.17 45.9042 29.6322C45.908 27.0945 43.8522 25.035 41.3145 25.0312H29.072C26.5342 25.0331 24.4785 27.0926 24.4804 29.6304C24.4785 32.17 26.5324 34.2295 29.0701 34.2314V34.2314Z" fill="white"/>
<path fill-rule="evenodd" clip-rule="evenodd" d="M1.28251e-06 29.6304C-0.00187438 32.1681 2.05385 34.2276 4.59162 34.2295C7.12939 34.2276 9.18512 32.1681 9.18324 29.6304V25.0312H4.59162C2.05385 25.0331 -0.00187438 27.0926 1.28251e-06 29.6304ZM12.2424 29.6304V41.8972C12.2387 44.435 14.2944 46.4945 16.8322 46.4982C19.37 46.4963 21.4257 44.4369 21.4238 41.8991V29.6341C21.4276 27.0964 19.3718 25.0369 16.8341 25.0331C14.2944 25.0331 12.2406 27.0926 12.2424 29.6304C12.2424 29.6322 12.2424 29.6304 12.2424 29.6304Z" fill="white"/>
</svg>
