<svg width="195" height="36" viewBox="0 0 195 36" fill="none" xmlns="http://www.w3.org/2000/svg">
<path fill-rule="evenodd" clip-rule="evenodd" d="M29.0348 13.0305C30.6413 13.0435 32.1563 13.4223 33.495 14.0949L38.0612 4.97864C38.5163 4.06992 37.8556 3 36.8393 3H19.0174C13.4863 3 9 7.48629 9 13.0174C9 16.9486 11.2595 20.3313 14.5572 21.9704L19.0174 13.0566C22.4523 13.0174 25.7436 13.0109 29.0348 13.0305Z" fill="#323582"/>
<path fill-rule="evenodd" clip-rule="evenodd" d="M33.5015 14.0957L29.0414 23.0095C25.6064 23.0552 22.3152 23.0617 19.0239 23.0422C17.4175 23.0291 15.9025 22.6503 14.5638 21.9777L9.99325 31.0866C9.53726 31.9954 10.198 33.0661 11.2147 33.0661H29.0348C34.566 33.0661 39.0522 28.5798 39.0522 23.0487C39.0522 19.1175 36.7928 15.7348 33.5015 14.0957Z" fill="#316BFF"/>
<path fill-rule="evenodd" clip-rule="evenodd" d="M19.0173 23.035C22.3085 23.0546 25.5998 23.048 29.0347 23.0023L33.4949 14.0885C32.1496 13.4159 30.6346 13.0371 29.0347 13.0241C25.7435 13.0045 22.4522 13.011 19.0173 13.0567L14.5571 21.9771C15.9024 22.6432 17.4174 23.0284 19.0173 23.035Z" fill="#1A1C47"/>
<path d="M69.0268 19.2092C67.7207 21.3281 65.863 22.5472 63.4538 22.5472C59.9707 22.5472 57.4164 19.7317 57.4164 16.1035C57.4164 12.4752 59.8546 9.6887 63.5119 9.6887C65.834 9.6887 67.9238 10.9949 68.9688 12.9686L72.3358 10.2983C70.6233 7.25052 67.5175 5.42188 63.5699 5.42188C57.2423 5.42188 52.8013 10.1241 52.8013 16.1035C52.8013 22.0828 57.3293 26.8141 63.5119 26.8141C67.4014 26.8141 70.6523 24.7532 72.4229 21.8216L69.0268 19.2092Z" fill="#1A1C47"/>
<path d="M81.6432 11.2271C76.999 11.2271 73.661 14.5941 73.661 19.0061C73.661 23.389 76.999 26.8141 81.6432 26.8141C86.2873 26.8141 89.6253 23.389 89.6253 19.0061C89.6253 14.5941 86.2873 11.2271 81.6432 11.2271ZM81.6432 15.1456C83.646 15.1456 85.1553 16.684 85.1553 19.0061C85.1553 21.3281 83.646 22.8956 81.6432 22.8956C79.6404 22.8956 78.131 21.3281 78.131 19.0061C78.131 16.684 79.6404 15.1456 81.6432 15.1456Z" fill="#1A1C47"/>
<path d="M92.5091 11.5754V26.4658H96.9211V18.7158C96.9211 16.7711 97.937 15.1166 99.7947 15.1166C101.42 15.1166 102.465 16.1325 102.465 18.0772V26.4658H106.877V18.7158C106.877 16.7711 107.893 15.1166 109.751 15.1166C111.376 15.1166 112.392 16.1325 112.392 18.0772V26.4658H116.804V17.4096C116.804 13.5492 114.627 11.2271 111.057 11.2271C108.531 11.2271 107.109 12.3301 106.035 13.8394C105.019 12.1849 103.394 11.2271 101.101 11.2271C99.1561 11.2271 97.7048 11.9818 96.7469 13.4911V11.5754H92.5091Z" fill="#1A1C47"/>
<path d="M128.379 15.1166C130.266 15.1166 131.834 16.655 131.834 19.0641C131.834 21.3862 130.266 22.9246 128.379 22.9246C126.406 22.9246 124.867 21.4152 124.867 19.0641C124.867 16.6259 126.406 15.1166 128.379 15.1166ZM124.664 11.5754H120.571V32.271H124.983V24.8403C125.912 26.2335 127.683 26.8141 129.279 26.8141C133.343 26.8141 136.275 23.4471 136.275 19.0061C136.275 14.4199 133.111 11.2271 129.308 11.2271C127.857 11.2271 125.825 11.8366 124.664 13.6362V11.5754Z" fill="#1A1C47"/>
<path d="M146.887 17.2065L142.823 17.9902C139.689 18.6578 137.976 20.1671 137.976 22.3731C137.976 24.9564 140.008 26.8141 142.911 26.8141C144.884 26.8141 146.336 25.9433 147.032 24.6371V26.4658H151.125V17.0903C151.125 13.4621 148.658 11.2271 144.507 11.2271C141.721 11.2271 139.486 12.3881 138.121 14.0426L140.414 16.8291C141.314 15.8132 142.591 15.0295 144.246 15.0295C145.755 15.0295 146.887 15.61 146.887 17.0903V17.2065ZM143.897 23.5341C142.853 23.5341 142.185 22.9536 142.185 22.1119C142.185 21.2991 142.765 20.7767 143.956 20.5735L146.916 19.993V20.4283C146.916 22.1989 145.726 23.5341 143.897 23.5341Z" fill="#1A1C47"/>
<path d="M154.841 11.5754V26.4658H159.253V18.7158C159.253 16.7711 160.269 15.1166 162.185 15.1166C163.81 15.1166 164.855 16.1325 164.855 18.0772V26.4658H169.267V17.4096C169.267 13.5492 167.061 11.2271 163.491 11.2271C161.488 11.2271 160.037 11.9818 159.079 13.4911V11.5754H154.841Z" fill="#1A1C47"/>
<path d="M176.471 25.9143L176.297 26.4077C175.659 28.5266 174.585 28.9039 173.424 28.9039C172.93 28.9039 172.175 28.8459 171.392 28.4105V32.0678C172.059 32.3871 173.017 32.6193 174.062 32.6193C176.878 32.6193 178.677 31.2841 180.158 27.6849L186.659 11.5754H182.16L178.677 21.3281L175.223 11.5754H170.608L176.471 25.9143Z" fill="#1A1C47"/>
</svg>
