<svg width="158" height="35" viewBox="0 0 158 35" fill="none" xmlns="http://www.w3.org/2000/svg">
<path d="M54.5098 27.1245H69.3333L69.3629 23.1222H59.1051V18.0525H68.77V14.0502H59.1051V9.03983H69.3629V5.03748H54.5098V27.1245Z" fill="white"/>
<path d="M82.4843 10.9372L78.8081 21.1951L75.1318 10.9372H70.5365L76.881 27.1245H80.7351L87.0796 10.9372H82.4843Z" fill="white"/>
<path d="M103.589 18.5565C103.589 14.0798 100.09 10.5815 95.5543 10.5815C90.9293 10.5815 87.3717 14.1688 87.3717 19.0012C87.3717 23.6855 90.7218 27.4803 95.8507 27.4803C99.1712 27.4803 101.839 25.909 102.818 23.5372L99.2601 21.8474C98.6376 22.9443 97.4813 23.6262 95.91 23.6262C93.7161 23.6262 92.2634 22.3217 91.9966 20.2761H103.381C103.529 19.8314 103.589 19.2088 103.589 18.5565ZM92.0856 17.0149C92.5303 15.1471 93.8051 14.1391 95.5543 14.1391C97.3924 14.1391 98.6969 15.2954 98.8747 17.0149H92.0856Z" fill="white"/>
<path d="M114.058 10.5815C112.013 10.5815 110.353 11.3227 109.522 12.8939V10.9372H105.372V27.1245H109.819V17.6671C109.819 15.7994 111.034 14.5838 112.784 14.5838C114.533 14.5838 115.748 15.7994 115.748 17.6671V27.1245H120.195V16.7184C120.195 13.0422 117.705 10.5815 114.058 10.5815Z" fill="white"/>
<path d="M130.627 27.3024C131.308 27.3024 132.109 27.2431 132.702 27.1542V23.6558C132.287 23.7151 131.931 23.7448 131.664 23.7448C129.796 23.7448 128.907 22.9443 128.907 21.2841V14.7914H132.702V10.9372H128.907V6.07512H124.46V8.44689C124.46 10.1071 123.541 10.9372 121.881 10.9372H121.673V14.7914H124.46V21.2841C124.46 25.0789 126.713 27.3024 130.627 27.3024Z" fill="white"/>
<path d="M134.787 27.1245H139.234V5.03748H134.787V27.1245Z" fill="white"/>
<path d="M153.109 10.9372L149.285 21.4323L145.46 10.9372H140.717L147.061 27.1245L146.646 28.0436C146.261 28.9034 145.757 29.8817 143.978 29.8817C143.326 29.8817 142.525 29.7631 141.962 29.5852V33.2318C142.644 33.5876 143.563 33.7358 144.512 33.7358C148.87 33.7358 150.233 30.445 150.826 28.9034L157.853 10.9372H153.109Z" fill="white"/>
<g filter="url(#filter0_d)">
<path d="M41.3837 2.76324C41.7839 2.76324 42.1574 2.84021 42.5042 2.99333C42.8509 3.14726 43.1547 3.35385 43.4148 3.61391C43.6748 3.87397 43.8814 4.17777 44.0354 4.52452C44.1885 4.87126 44.2654 5.24474 44.2654 5.64496V25.7773C44.2654 26.1775 44.1885 26.555 44.0354 26.9083C43.8814 27.2623 43.6748 27.5685 43.4148 27.8286C43.1547 28.0886 42.8509 28.292 42.5042 28.4386C42.1574 28.5853 41.7839 28.659 41.3837 28.659H35.4064C34.6457 28.659 33.9295 28.3033 33.4701 27.6973L32.3781 26.2577C32.2582 26.1111 32.0977 25.9944 31.8976 25.9077C31.6975 25.821 31.5039 25.7773 31.3176 25.7773C31.1175 25.7773 30.9238 25.817 30.7375 25.8972C30.5504 25.9774 30.3972 26.0973 30.2773 26.2577L29.1852 27.6973C28.7259 28.3033 28.0089 28.659 27.249 28.659H6.86146C6.46125 28.659 6.08777 28.582 5.74102 28.4289C5.39427 28.2758 5.09047 28.0684 4.83041 27.8083C4.57035 27.5483 4.367 27.2445 4.22036 26.8977C4.07291 26.5518 4 26.1783 4 25.7781V5.64496C4 5.24474 4.07291 4.87126 4.22036 4.52452C4.367 4.17777 4.57035 3.87397 4.83041 3.61391C5.09047 3.35385 5.39427 3.14726 5.74102 2.99333C6.08777 2.84021 6.46125 2.76324 6.86146 2.76324H27.2482C28.0089 2.76324 28.7251 3.1189 29.1844 3.7249L30.2765 5.16454C30.3964 5.32495 30.5536 5.44485 30.7464 5.52506C30.94 5.60526 31.1296 5.64496 31.3168 5.64496C31.5031 5.64496 31.6967 5.6085 31.8968 5.53478C32.0969 5.46187 32.2573 5.34439 32.3773 5.18479L33.4693 3.733C33.9287 3.12214 34.6481 2.76324 35.4121 2.76324H41.3837Z" fill="url(#paint0_linear)" fill-opacity="0.01"/>
</g>
<path d="M41.3837 2.76324C41.7839 2.76324 42.1574 2.84021 42.5042 2.99333C42.8509 3.14726 43.1547 3.35385 43.4148 3.61391C43.6748 3.87397 43.8814 4.17777 44.0354 4.52452C44.1885 4.87126 44.2654 5.24474 44.2654 5.64496V25.7773C44.2654 26.1775 44.1885 26.555 44.0354 26.9083C43.8814 27.2623 43.6748 27.5685 43.4148 27.8286C43.1547 28.0886 42.8509 28.292 42.5042 28.4386C42.1574 28.5853 41.7839 28.659 41.3837 28.659H35.4064C34.6457 28.659 33.9295 28.3033 33.4701 27.6973L32.3781 26.2577C32.2582 26.1111 32.0977 25.9944 31.8976 25.9077C31.6975 25.821 31.5039 25.7773 31.3176 25.7773C31.1175 25.7773 30.9238 25.817 30.7375 25.8972C30.5504 25.9774 30.3972 26.0973 30.2773 26.2577L29.1852 27.6973C28.7259 28.3033 28.0089 28.659 27.249 28.659H6.86146C6.46125 28.659 6.08777 28.582 5.74102 28.4289C5.39427 28.2758 5.09047 28.0684 4.83041 27.8083C4.57035 27.5483 4.367 27.2445 4.22036 26.8977C4.07291 26.5518 4 26.1783 4 25.7781V5.64496C4 5.24474 4.07291 4.87126 4.22036 4.52452C4.367 4.17777 4.57035 3.87397 4.83041 3.61391C5.09047 3.35385 5.39427 3.14726 5.74102 2.99333C6.08777 2.84021 6.46125 2.76324 6.86146 2.76324H27.2482C28.0089 2.76324 28.7251 3.1189 29.1844 3.7249L30.2765 5.16454C30.3964 5.32495 30.5536 5.44485 30.7464 5.52506C30.94 5.60526 31.1296 5.64496 31.3168 5.64496C31.5031 5.64496 31.6967 5.6085 31.8968 5.53478C32.0969 5.46187 32.2573 5.34439 32.3773 5.18479L33.4693 3.733C33.9287 3.12214 34.6481 2.76324 35.4121 2.76324H41.3837Z" fill="url(#paint1_linear)"/>
<path d="M24.1322 7.0862C24.5324 7.0862 24.8727 7.22635 25.153 7.50667C25.4333 7.78698 25.5735 8.12725 25.5735 8.52746C25.5735 8.91472 25.4301 9.25174 25.1433 9.53772C24.8565 9.82452 24.5195 9.96791 24.133 9.96791H8.30264C7.91538 9.96791 7.57836 9.82452 7.29237 9.53772C7.00558 9.25093 6.86218 8.91391 6.86218 8.52746C6.86218 8.14102 7.00558 7.80399 7.29237 7.5172C7.57917 7.23041 7.91619 7.08701 8.30264 7.08701H24.1322V7.0862ZM8.30264 15.7111C7.91538 15.7111 7.57836 15.5677 7.29237 15.2809C7.00558 14.9941 6.86218 14.6571 6.86218 14.2706C6.86218 13.8842 7.00558 13.5472 7.29237 13.2604C7.57917 12.9736 7.91619 12.8302 8.30264 12.8302H19.8101C20.2103 12.8302 20.5505 12.9703 20.8309 13.2507C21.1112 13.531 21.2513 13.8712 21.2513 14.2715C21.2513 14.6717 21.1112 15.0119 20.8309 15.2922C20.5505 15.5726 20.2103 15.7127 19.8101 15.7127H8.30264V15.7111ZM24.1322 18.5928C24.5324 18.5928 24.8727 18.733 25.153 19.0133C25.4333 19.2936 25.5735 19.6339 25.5735 20.0341C25.5735 20.4213 25.4301 20.7583 25.1433 21.0443C24.8565 21.3311 24.5195 21.4745 24.133 21.4745H8.30264C7.91538 21.4745 7.57836 21.3311 7.29237 21.0443C7.00558 20.7575 6.86218 20.4205 6.86218 20.0341C6.86218 19.6476 7.00558 19.3106 7.29237 19.0238C7.57917 18.737 7.91619 18.5936 8.30264 18.5936H24.1322V18.5928ZM39.9626 7.0862C40.3491 7.0862 40.6829 7.2296 40.9632 7.51639C41.2435 7.80318 41.3836 8.14021 41.3836 8.52665V17.1524C41.3836 17.5396 41.2435 17.8766 40.9632 18.1626C40.6829 18.4494 40.3491 18.5928 39.9626 18.5928H37.0809C36.6807 18.5928 36.3404 18.4527 36.0601 18.1723C35.7798 17.892 35.6397 17.5518 35.6397 17.1515V8.52665C35.6397 8.12644 35.7798 7.78617 36.0601 7.50586C36.3404 7.22554 36.6807 7.08539 37.0809 7.08539H39.9626V7.0862ZM39.9626 21.4753C40.3491 21.4753 40.6829 21.6155 40.9632 21.8958C41.2435 22.1761 41.3836 22.5099 41.3836 22.8963C41.3836 23.2836 41.2435 23.6206 40.9632 23.9066C40.6829 24.1934 40.3491 24.3368 39.9626 24.3368H37.0809C36.6807 24.3368 36.3404 24.1966 36.0601 23.9163C35.7798 23.636 35.6397 23.2958 35.6397 22.8955C35.6397 22.5091 35.783 22.1753 36.0698 21.895C36.3566 21.6147 36.6937 21.4745 37.0801 21.4745H39.9626V21.4753Z" fill="white" fill-opacity="0.2"/>
<path d="M31.3175 8.52673C31.7177 8.52673 32.058 8.66689 32.3383 8.9472C32.6186 9.22752 32.7588 9.56778 32.7588 9.968C32.7588 10.3553 32.6154 10.6882 32.3286 10.9685C32.0418 11.2488 31.7048 11.389 31.3183 11.389C30.9311 11.389 30.5941 11.2488 30.3081 10.9685C30.0213 10.6882 29.8779 10.3553 29.8779 9.968C29.8779 9.58155 30.0213 9.24453 30.3081 8.95774C30.5933 8.67013 30.9303 8.52673 31.3175 8.52673ZM31.3175 14.2707C31.7177 14.2707 32.058 14.4109 32.3383 14.6912C32.6186 14.9715 32.7588 15.3118 32.7588 15.712C32.7588 16.1122 32.6186 16.4525 32.3383 16.7328C32.058 17.0131 31.7177 17.1532 31.3175 17.1532C30.9303 17.1532 30.5933 17.0099 30.3073 16.7231C30.0205 16.4363 29.8771 16.0992 29.8771 15.7128C29.8771 15.3264 30.0205 14.9893 30.3073 14.7025C30.5933 14.4141 30.9303 14.2707 31.3175 14.2707ZM31.3175 20.0342C31.7177 20.0342 32.058 20.1743 32.3383 20.4546C32.6186 20.7349 32.7588 21.0752 32.7588 21.4754C32.7588 21.8627 32.6154 22.1956 32.3286 22.476C32.0418 22.7563 31.7048 22.8964 31.3183 22.8964C30.9311 22.8964 30.5941 22.7563 30.3081 22.476C30.0213 22.1956 29.8779 21.8627 29.8779 21.4754C29.8779 21.089 30.0213 20.752 30.3081 20.4652C30.5933 20.1776 30.9303 20.0342 31.3175 20.0342Z" fill="white"/>
<defs>
<filter id="filter0_d" x="0" y="0.763241" width="48.2654" height="33.8958" filterUnits="userSpaceOnUse" color-interpolation-filters="sRGB">
<feFlood flood-opacity="0" result="BackgroundImageFix"/>
<feColorMatrix in="SourceAlpha" type="matrix" values="0 0 0 0 0 0 0 0 0 0 0 0 0 0 0 0 0 0 127 0"/>
<feOffset dy="2"/>
<feGaussianBlur stdDeviation="2"/>
<feColorMatrix type="matrix" values="0 0 0 0 0.191667 0 0 0 0 0.418 0 0 0 0 1 0 0 0 0.29 0"/>
<feBlend mode="normal" in2="BackgroundImageFix" result="effect1_dropShadow"/>
<feBlend mode="normal" in="SourceGraphic" in2="effect1_dropShadow" result="shape"/>
</filter>
<linearGradient id="paint0_linear" x1="21.4783" y1="2.76324" x2="21.4783" y2="28.659" gradientUnits="userSpaceOnUse">
<stop stop-color="#3083FF"/>
<stop offset="1" stop-color="#1C5AF9"/>
</linearGradient>
<linearGradient id="paint1_linear" x1="21.4783" y1="2.76324" x2="21.4783" y2="28.659" gradientUnits="userSpaceOnUse">
<stop stop-color="#3083FF"/>
<stop offset="1" stop-color="#1C5AF9"/>
</linearGradient>
</defs>
</svg>
