<svg width="190" height="183" viewBox="0 0 190 183" fill="none" xmlns="http://www.w3.org/2000/svg">
<g filter="url(#filter0_di)">
<path d="M118.254 124.259C117.657 122.787 116.501 121.612 115.039 120.991C113.577 120.37 111.928 120.354 110.454 120.947C100.345 124.994 89.0653 124.994 78.9556 120.947C78.2231 120.637 77.4363 120.476 76.6409 120.473C75.8455 120.47 75.0574 120.625 74.3224 120.929C73.5875 121.233 72.9203 121.68 72.3598 122.245C71.7993 122.809 71.3567 123.479 71.0576 124.216C70.7584 124.953 70.6089 125.742 70.6175 126.538C70.6262 127.333 70.793 128.119 71.1081 128.849C71.4232 129.58 71.8803 130.24 72.453 130.792C73.0257 131.344 73.7024 131.777 74.4438 132.065C87.4397 137.301 101.958 137.301 114.954 132.065C116.426 131.466 117.599 130.307 118.218 128.844C118.836 127.381 118.849 125.732 118.254 124.259Z" fill="#3E4F8B" fill-opacity="0.01"/>
</g>
<path d="M118.254 124.259C117.657 122.787 116.501 121.612 115.039 120.991C113.577 120.37 111.928 120.354 110.454 120.947C100.345 124.994 89.0653 124.994 78.9556 120.947C78.2231 120.637 77.4363 120.476 76.6409 120.473C75.8455 120.47 75.0574 120.625 74.3224 120.929C73.5875 121.233 72.9203 121.68 72.3598 122.245C71.7993 122.809 71.3567 123.479 71.0576 124.216C70.7584 124.953 70.6089 125.742 70.6175 126.538C70.6262 127.333 70.793 128.119 71.1081 128.849C71.4232 129.58 71.8803 130.24 72.453 130.792C73.0257 131.344 73.7024 131.777 74.4438 132.065C87.4397 137.301 101.958 137.301 114.954 132.065C116.426 131.466 117.599 130.307 118.218 128.844C118.836 127.381 118.849 125.732 118.254 124.259Z" fill="#3E4F8B"/>
<g filter="url(#filter1_di)">
<path d="M118.326 47.2759C123.986 51.1288 128.618 56.307 131.819 62.3596C135.02 68.4122 136.692 75.1556 136.691 82.0025C136.689 83.7653 136.581 85.5265 136.367 87.2763C136.257 88.0653 136.305 88.8684 136.508 89.6386C136.712 90.4089 137.067 91.1309 137.552 91.7625C138.038 92.3941 138.644 92.9227 139.336 93.3174C140.028 93.7122 140.792 93.9651 141.583 94.0615C142.374 94.1579 143.176 94.0959 143.942 93.879C144.709 93.6621 145.425 93.2947 146.048 92.7982C146.671 92.3017 147.189 91.6862 147.572 90.9874C147.954 90.2886 148.194 89.5206 148.276 88.7282C148.551 86.4968 148.689 84.2507 148.69 82.0025C148.692 73.2019 146.542 64.5345 142.428 56.7545C138.314 48.9746 132.361 42.3181 125.087 37.3643C123.773 36.4938 122.168 36.1759 120.621 36.4793C119.073 36.7828 117.708 37.6832 116.819 38.9858C115.93 40.2884 115.59 41.8884 115.872 43.4399C116.154 44.9913 117.036 46.3693 118.326 47.2759Z" fill="#3E4F8B" fill-opacity="0.01"/>
</g>
<path d="M118.326 47.2759C123.986 51.1288 128.618 56.307 131.819 62.3596C135.02 68.4122 136.692 75.1556 136.691 82.0025C136.689 83.7653 136.581 85.5265 136.367 87.2763C136.257 88.0653 136.305 88.8684 136.508 89.6386C136.712 90.4089 137.067 91.1309 137.552 91.7625C138.038 92.3941 138.644 92.9227 139.336 93.3174C140.028 93.7122 140.792 93.9651 141.583 94.0615C142.374 94.1579 143.176 94.0959 143.942 93.879C144.709 93.6621 145.425 93.2947 146.048 92.7982C146.671 92.3017 147.189 91.6862 147.572 90.9874C147.954 90.2886 148.194 89.5206 148.276 88.7282C148.551 86.4968 148.689 84.2507 148.69 82.0025C148.692 73.2019 146.542 64.5345 142.428 56.7545C138.314 48.9746 132.361 42.3181 125.087 37.3643C123.773 36.4938 122.168 36.1759 120.621 36.4793C119.073 36.7828 117.708 37.6832 116.819 38.9858C115.93 40.2884 115.59 41.8884 115.872 43.4399C116.154 44.9913 117.036 46.3693 118.326 47.2759Z" fill="#3E4F8B"/>
<g filter="url(#filter2_di)">
<path d="M47.061 94.002C47.9104 94.0023 48.7501 93.8222 49.5247 93.4738C50.2993 93.1253 50.9911 92.6163 51.5542 91.9805C52.1174 91.3448 52.5392 90.5966 52.7917 89.7857C53.0442 88.9747 53.1216 88.1194 53.0188 87.2763C52.8045 85.5265 52.6963 83.7653 52.6948 82.0025C52.6934 75.1556 54.366 68.4122 57.5669 62.3596C60.7679 56.307 65.4001 51.1288 71.06 47.2759C72.3502 46.3693 73.2316 44.9913 73.5136 43.4399C73.7956 41.8884 73.4555 40.2884 72.5668 38.9858C71.6782 37.6832 70.3125 36.7828 68.7651 36.4793C67.2177 36.1759 65.6131 36.4938 64.2983 37.3643C57.0244 42.3181 51.0714 48.9746 46.9577 56.7545C42.844 64.5345 40.6941 73.2019 40.6953 82.0025C40.6964 84.2507 40.8347 86.4968 41.1093 88.7282C41.2865 90.1823 41.9896 91.5213 43.086 92.4927C44.1823 93.4642 45.5962 94.001 47.061 94.002Z" fill="#3E4F8B" fill-opacity="0.01"/>
</g>
<path d="M47.061 94.002C47.9104 94.0023 48.7501 93.8222 49.5247 93.4738C50.2993 93.1253 50.9911 92.6163 51.5542 91.9805C52.1174 91.3448 52.5392 90.5966 52.7917 89.7857C53.0442 88.9747 53.1216 88.1194 53.0188 87.2763C52.8045 85.5265 52.6963 83.7653 52.6948 82.0025C52.6934 75.1556 54.366 68.4122 57.5669 62.3596C60.7679 56.307 65.4001 51.1288 71.06 47.2759C72.3502 46.3693 73.2316 44.9913 73.5136 43.4399C73.7956 41.8884 73.4555 40.2884 72.5668 38.9858C71.6782 37.6832 70.3125 36.7828 68.7651 36.4793C67.2177 36.1759 65.6131 36.4938 64.2983 37.3643C57.0244 42.3181 51.0714 48.9746 46.9577 56.7545C42.844 64.5345 40.6941 73.2019 40.6953 82.0025C40.6964 84.2507 40.8347 86.4968 41.1093 88.7282C41.2865 90.1823 41.9896 91.5213 43.086 92.4927C44.1823 93.4642 45.5962 94.001 47.061 94.002Z" fill="#3E4F8B"/>
<g filter="url(#filter3_di)">
<path d="M116.737 70.0033C116.959 70.0035 117.178 69.9542 117.379 69.8588C117.58 69.7634 117.757 69.6244 117.897 69.452C118.038 69.2795 118.138 69.078 118.19 68.8619C118.242 68.6459 118.246 68.4209 118.201 68.2033C117.014 62.7709 114.006 57.9074 109.675 54.42C105.344 50.9327 99.951 49.0312 94.3905 49.0312C88.8301 49.0312 83.4368 50.9327 79.1058 54.42C74.7749 57.9074 71.7667 62.7709 70.5805 68.2033C70.535 68.4209 70.5386 68.6459 70.591 68.8619C70.6435 69.078 70.7435 69.2795 70.8838 69.452C71.024 69.6244 71.201 69.7634 71.4018 69.8588C71.6026 69.9542 71.8222 70.0035 72.0444 70.0033H116.737Z" fill="#316BFF" fill-opacity="0.01"/>
</g>
<path d="M116.737 70.0033C116.959 70.0035 117.178 69.9542 117.379 69.8588C117.58 69.7634 117.757 69.6244 117.897 69.452C118.038 69.2795 118.138 69.078 118.19 68.8619C118.242 68.6459 118.246 68.4209 118.201 68.2033C117.014 62.7709 114.006 57.9074 109.675 54.42C105.344 50.9327 99.951 49.0312 94.3905 49.0312C88.8301 49.0312 83.4368 50.9327 79.1058 54.42C74.7749 57.9074 71.7667 62.7709 70.5805 68.2033C70.535 68.4209 70.5386 68.6459 70.591 68.8619C70.6435 69.078 70.7435 69.2795 70.8838 69.452C71.024 69.6244 71.201 69.7634 71.4018 69.8588C71.6026 69.9542 71.8222 70.0035 72.0444 70.0033H116.737Z" fill="#316BFF"/>
<g filter="url(#filter4_di)">
<path d="M94.6927 42.9988C102.977 42.9988 109.692 36.2833 109.692 27.9994C109.692 19.7154 102.977 13 94.6927 13C86.4088 13 79.6934 19.7154 79.6934 27.9994C79.6934 36.2833 86.4088 42.9988 94.6927 42.9988Z" fill="#316BFF" fill-opacity="0.01"/>
</g>
<path d="M94.6927 42.9988C102.977 42.9988 109.692 36.2833 109.692 27.9994C109.692 19.7154 102.977 13 94.6927 13C86.4088 13 79.6934 19.7154 79.6934 27.9994C79.6934 36.2833 86.4088 42.9988 94.6927 42.9988Z" fill="#316BFF"/>
<g filter="url(#filter5_di)">
<path d="M142.546 136C136.983 136.008 131.59 137.916 127.26 141.408C122.929 144.899 119.921 149.765 118.733 155.199C118.687 155.417 118.691 155.642 118.743 155.858C118.796 156.074 118.896 156.275 119.036 156.448C119.176 156.62 119.353 156.759 119.554 156.855C119.755 156.95 119.974 156.999 120.197 156.999H164.889C165.111 156.999 165.331 156.95 165.532 156.855C165.732 156.759 165.909 156.62 166.05 156.448C166.19 156.275 166.29 156.074 166.342 155.858C166.395 155.642 166.398 155.417 166.353 155.199C165.165 149.766 162.158 144.901 157.828 141.41C153.499 137.918 148.108 136.01 142.546 136Z" fill="#316BFF" fill-opacity="0.01"/>
</g>
<path d="M142.546 136C136.983 136.008 131.59 137.916 127.26 141.408C122.929 144.899 119.921 149.765 118.733 155.199C118.687 155.417 118.691 155.642 118.743 155.858C118.796 156.074 118.896 156.275 119.036 156.448C119.176 156.62 119.353 156.759 119.554 156.855C119.755 156.95 119.974 156.999 120.197 156.999H164.889C165.111 156.999 165.331 156.95 165.532 156.855C165.732 156.759 165.909 156.62 166.05 156.448C166.19 156.275 166.29 156.074 166.342 155.858C166.395 155.642 166.398 155.417 166.353 155.199C165.165 149.766 162.158 144.901 157.828 141.41C153.499 137.918 148.108 136.01 142.546 136Z" fill="#316BFF"/>
<g filter="url(#filter6_di)">
<path d="M142.847 129.995C151.131 129.995 157.846 123.279 157.846 114.995C157.846 106.712 151.131 99.9961 142.847 99.9961C134.563 99.9961 127.848 106.712 127.848 114.995C127.848 123.279 134.563 129.995 142.847 129.995Z" fill="#316BFF" fill-opacity="0.01"/>
</g>
<path d="M142.847 129.995C151.131 129.995 157.846 123.279 157.846 114.995C157.846 106.712 151.131 99.9961 142.847 99.9961C134.563 99.9961 127.848 106.712 127.848 114.995C127.848 123.279 134.563 129.995 142.847 129.995Z" fill="#316BFF"/>
<g filter="url(#filter7_di)">
<path d="M46.8447 136C41.282 136.008 35.889 137.916 31.5585 141.408C27.2279 144.899 24.2197 149.765 23.0317 155.199C22.9861 155.417 22.9897 155.642 23.0422 155.858C23.0947 156.074 23.1947 156.275 23.3349 156.448C23.4752 156.62 23.6522 156.759 23.853 156.855C24.0538 156.95 24.2733 156.999 24.4956 156.999H69.1877C69.41 156.999 69.6296 156.95 69.8304 156.855C70.0312 156.759 70.2082 156.62 70.3484 156.448C70.4887 156.275 70.5887 156.074 70.6412 155.858C70.6936 155.642 70.6972 155.417 70.6517 155.199C69.4639 149.766 66.4565 144.901 62.1272 141.41C57.798 137.918 52.4063 136.01 46.8447 136Z" fill="#316BFF" fill-opacity="0.01"/>
</g>
<path d="M46.8447 136C41.282 136.008 35.889 137.916 31.5585 141.408C27.2279 144.899 24.2197 149.765 23.0317 155.199C22.9861 155.417 22.9897 155.642 23.0422 155.858C23.0947 156.074 23.1947 156.275 23.3349 156.448C23.4752 156.62 23.6522 156.759 23.853 156.855C24.0538 156.95 24.2733 156.999 24.4956 156.999H69.1877C69.41 156.999 69.6296 156.95 69.8304 156.855C70.0312 156.759 70.2082 156.62 70.3484 156.448C70.4887 156.275 70.5887 156.074 70.6412 155.858C70.6936 155.642 70.6972 155.417 70.6517 155.199C69.4639 149.766 66.4565 144.901 62.1272 141.41C57.798 137.918 52.4063 136.01 46.8447 136Z" fill="#316BFF"/>
<g filter="url(#filter8_di)">
<path d="M47.1439 129.995C55.4278 129.995 62.1433 123.279 62.1433 114.995C62.1433 106.712 55.4278 99.9961 47.1439 99.9961C38.86 99.9961 32.1445 106.712 32.1445 114.995C32.1445 123.279 38.86 129.995 47.1439 129.995Z" fill="#316BFF" fill-opacity="0.01"/>
</g>
<path d="M47.1439 129.995C55.4278 129.995 62.1433 123.279 62.1433 114.995C62.1433 106.712 55.4278 99.9961 47.1439 99.9961C38.86 99.9961 32.1445 106.712 32.1445 114.995C32.1445 123.279 38.86 129.995 47.1439 129.995Z" fill="#316BFF"/>
<defs>
<filter id="filter0_di" x="62.6172" y="114.473" width="64.0739" height="33.519" filterUnits="userSpaceOnUse" color-interpolation-filters="sRGB">
<feFlood flood-opacity="0" result="BackgroundImageFix"/>
<feColorMatrix in="SourceAlpha" type="matrix" values="0 0 0 0 0 0 0 0 0 0 0 0 0 0 0 0 0 0 127 0"/>
<feOffset dy="4"/>
<feGaussianBlur stdDeviation="4"/>
<feColorMatrix type="matrix" values="0 0 0 0 0.103524 0 0 0 0 0.142166 0 0 0 0 0.279167 0 0 0 0.21 0"/>
<feBlend mode="normal" in2="BackgroundImageFix" result="effect1_dropShadow"/>
<feBlend mode="normal" in="SourceGraphic" in2="effect1_dropShadow" result="shape"/>
<feColorMatrix in="SourceAlpha" type="matrix" values="0 0 0 0 0 0 0 0 0 0 0 0 0 0 0 0 0 0 127 0" result="hardAlpha"/>
<feOffset dy="-6"/>
<feGaussianBlur stdDeviation="5.5"/>
<feComposite in2="hardAlpha" operator="arithmetic" k2="-1" k3="1"/>
<feColorMatrix type="matrix" values="0 0 0 0 0.0327604 0 0 0 0 0.0594698 0 0 0 0 0.154167 0 0 0 0.21 0"/>
<feBlend mode="normal" in2="shape" result="effect2_innerShadow"/>
</filter>
<filter id="filter1_di" x="107.775" y="30.3672" width="48.9148" height="75.7384" filterUnits="userSpaceOnUse" color-interpolation-filters="sRGB">
<feFlood flood-opacity="0" result="BackgroundImageFix"/>
<feColorMatrix in="SourceAlpha" type="matrix" values="0 0 0 0 0 0 0 0 0 0 0 0 0 0 0 0 0 0 127 0"/>
<feOffset dy="4"/>
<feGaussianBlur stdDeviation="4"/>
<feColorMatrix type="matrix" values="0 0 0 0 0.103524 0 0 0 0 0.142166 0 0 0 0 0.279167 0 0 0 0.21 0"/>
<feBlend mode="normal" in2="BackgroundImageFix" result="effect1_dropShadow"/>
<feBlend mode="normal" in="SourceGraphic" in2="effect1_dropShadow" result="shape"/>
<feColorMatrix in="SourceAlpha" type="matrix" values="0 0 0 0 0 0 0 0 0 0 0 0 0 0 0 0 0 0 127 0" result="hardAlpha"/>
<feOffset dy="-6"/>
<feGaussianBlur stdDeviation="5.5"/>
<feComposite in2="hardAlpha" operator="arithmetic" k2="-1" k3="1"/>
<feColorMatrix type="matrix" values="0 0 0 0 0.0327604 0 0 0 0 0.0594698 0 0 0 0 0.154167 0 0 0 0.21 0"/>
<feBlend mode="normal" in2="shape" result="effect2_innerShadow"/>
</filter>
<filter id="filter2_di" x="32.6953" y="30.3672" width="48.9151" height="75.6348" filterUnits="userSpaceOnUse" color-interpolation-filters="sRGB">
<feFlood flood-opacity="0" result="BackgroundImageFix"/>
<feColorMatrix in="SourceAlpha" type="matrix" values="0 0 0 0 0 0 0 0 0 0 0 0 0 0 0 0 0 0 127 0"/>
<feOffset dy="4"/>
<feGaussianBlur stdDeviation="4"/>
<feColorMatrix type="matrix" values="0 0 0 0 0.103524 0 0 0 0 0.142166 0 0 0 0 0.279167 0 0 0 0.21 0"/>
<feBlend mode="normal" in2="BackgroundImageFix" result="effect1_dropShadow"/>
<feBlend mode="normal" in="SourceGraphic" in2="effect1_dropShadow" result="shape"/>
<feColorMatrix in="SourceAlpha" type="matrix" values="0 0 0 0 0 0 0 0 0 0 0 0 0 0 0 0 0 0 127 0" result="hardAlpha"/>
<feOffset dy="-6"/>
<feGaussianBlur stdDeviation="5.5"/>
<feComposite in2="hardAlpha" operator="arithmetic" k2="-1" k3="1"/>
<feColorMatrix type="matrix" values="0 0 0 0 0.0327604 0 0 0 0 0.0594698 0 0 0 0 0.154167 0 0 0 0.21 0"/>
<feBlend mode="normal" in2="shape" result="effect2_innerShadow"/>
</filter>
<filter id="filter3_di" x="54.5489" y="37.0312" width="79.6832" height="52.9721" filterUnits="userSpaceOnUse" color-interpolation-filters="sRGB">
<feFlood flood-opacity="0" result="BackgroundImageFix"/>
<feColorMatrix in="SourceAlpha" type="matrix" values="0 0 0 0 0 0 0 0 0 0 0 0 0 0 0 0 0 0 127 0"/>
<feOffset dy="4"/>
<feGaussianBlur stdDeviation="8"/>
<feColorMatrix type="matrix" values="0 0 0 0 0.191667 0 0 0 0 0.418 0 0 0 0 1 0 0 0 0.37 0"/>
<feBlend mode="normal" in2="BackgroundImageFix" result="effect1_dropShadow"/>
<feBlend mode="normal" in="SourceGraphic" in2="effect1_dropShadow" result="shape"/>
<feColorMatrix in="SourceAlpha" type="matrix" values="0 0 0 0 0 0 0 0 0 0 0 0 0 0 0 0 0 0 127 0" result="hardAlpha"/>
<feOffset dy="-4"/>
<feGaussianBlur stdDeviation="6"/>
<feComposite in2="hardAlpha" operator="arithmetic" k2="-1" k3="1"/>
<feColorMatrix type="matrix" values="0 0 0 0 0.115278 0 0 0 0 0.166 0 0 0 0 0.345833 0 0 0 0.14 0"/>
<feBlend mode="normal" in2="shape" result="effect2_innerShadow"/>
</filter>
<filter id="filter4_di" x="63.6934" y="1" width="61.9986" height="61.9988" filterUnits="userSpaceOnUse" color-interpolation-filters="sRGB">
<feFlood flood-opacity="0" result="BackgroundImageFix"/>
<feColorMatrix in="SourceAlpha" type="matrix" values="0 0 0 0 0 0 0 0 0 0 0 0 0 0 0 0 0 0 127 0"/>
<feOffset dy="4"/>
<feGaussianBlur stdDeviation="8"/>
<feColorMatrix type="matrix" values="0 0 0 0 0.191667 0 0 0 0 0.418 0 0 0 0 1 0 0 0 0.37 0"/>
<feBlend mode="normal" in2="BackgroundImageFix" result="effect1_dropShadow"/>
<feBlend mode="normal" in="SourceGraphic" in2="effect1_dropShadow" result="shape"/>
<feColorMatrix in="SourceAlpha" type="matrix" values="0 0 0 0 0 0 0 0 0 0 0 0 0 0 0 0 0 0 127 0" result="hardAlpha"/>
<feOffset dy="-4"/>
<feGaussianBlur stdDeviation="6"/>
<feComposite in2="hardAlpha" operator="arithmetic" k2="-1" k3="1"/>
<feColorMatrix type="matrix" values="0 0 0 0 0.115278 0 0 0 0 0.166 0 0 0 0 0.345833 0 0 0 0.14 0"/>
<feBlend mode="normal" in2="shape" result="effect2_innerShadow"/>
</filter>
<filter id="filter5_di" x="102.701" y="124" width="79.6834" height="52.999" filterUnits="userSpaceOnUse" color-interpolation-filters="sRGB">
<feFlood flood-opacity="0" result="BackgroundImageFix"/>
<feColorMatrix in="SourceAlpha" type="matrix" values="0 0 0 0 0 0 0 0 0 0 0 0 0 0 0 0 0 0 127 0"/>
<feOffset dy="4"/>
<feGaussianBlur stdDeviation="8"/>
<feColorMatrix type="matrix" values="0 0 0 0 0.191667 0 0 0 0 0.418 0 0 0 0 1 0 0 0 0.37 0"/>
<feBlend mode="normal" in2="BackgroundImageFix" result="effect1_dropShadow"/>
<feBlend mode="normal" in="SourceGraphic" in2="effect1_dropShadow" result="shape"/>
<feColorMatrix in="SourceAlpha" type="matrix" values="0 0 0 0 0 0 0 0 0 0 0 0 0 0 0 0 0 0 127 0" result="hardAlpha"/>
<feOffset dy="-4"/>
<feGaussianBlur stdDeviation="6"/>
<feComposite in2="hardAlpha" operator="arithmetic" k2="-1" k3="1"/>
<feColorMatrix type="matrix" values="0 0 0 0 0.115278 0 0 0 0 0.166 0 0 0 0 0.345833 0 0 0 0.14 0"/>
<feBlend mode="normal" in2="shape" result="effect2_innerShadow"/>
</filter>
<filter id="filter6_di" x="111.848" y="87.9961" width="61.998" height="61.9989" filterUnits="userSpaceOnUse" color-interpolation-filters="sRGB">
<feFlood flood-opacity="0" result="BackgroundImageFix"/>
<feColorMatrix in="SourceAlpha" type="matrix" values="0 0 0 0 0 0 0 0 0 0 0 0 0 0 0 0 0 0 127 0"/>
<feOffset dy="4"/>
<feGaussianBlur stdDeviation="8"/>
<feColorMatrix type="matrix" values="0 0 0 0 0.191667 0 0 0 0 0.418 0 0 0 0 1 0 0 0 0.37 0"/>
<feBlend mode="normal" in2="BackgroundImageFix" result="effect1_dropShadow"/>
<feBlend mode="normal" in="SourceGraphic" in2="effect1_dropShadow" result="shape"/>
<feColorMatrix in="SourceAlpha" type="matrix" values="0 0 0 0 0 0 0 0 0 0 0 0 0 0 0 0 0 0 127 0" result="hardAlpha"/>
<feOffset dy="-4"/>
<feGaussianBlur stdDeviation="6"/>
<feComposite in2="hardAlpha" operator="arithmetic" k2="-1" k3="1"/>
<feColorMatrix type="matrix" values="0 0 0 0 0.115278 0 0 0 0 0.166 0 0 0 0 0.345833 0 0 0 0.14 0"/>
<feBlend mode="normal" in2="shape" result="effect2_innerShadow"/>
</filter>
<filter id="filter7_di" x="6.99997" y="124" width="79.6834" height="52.999" filterUnits="userSpaceOnUse" color-interpolation-filters="sRGB">
<feFlood flood-opacity="0" result="BackgroundImageFix"/>
<feColorMatrix in="SourceAlpha" type="matrix" values="0 0 0 0 0 0 0 0 0 0 0 0 0 0 0 0 0 0 127 0"/>
<feOffset dy="4"/>
<feGaussianBlur stdDeviation="8"/>
<feColorMatrix type="matrix" values="0 0 0 0 0.191667 0 0 0 0 0.418 0 0 0 0 1 0 0 0 0.37 0"/>
<feBlend mode="normal" in2="BackgroundImageFix" result="effect1_dropShadow"/>
<feBlend mode="normal" in="SourceGraphic" in2="effect1_dropShadow" result="shape"/>
<feColorMatrix in="SourceAlpha" type="matrix" values="0 0 0 0 0 0 0 0 0 0 0 0 0 0 0 0 0 0 127 0" result="hardAlpha"/>
<feOffset dy="-4"/>
<feGaussianBlur stdDeviation="6"/>
<feComposite in2="hardAlpha" operator="arithmetic" k2="-1" k3="1"/>
<feColorMatrix type="matrix" values="0 0 0 0 0.115278 0 0 0 0 0.166 0 0 0 0 0.345833 0 0 0 0.14 0"/>
<feBlend mode="normal" in2="shape" result="effect2_innerShadow"/>
</filter>
<filter id="filter8_di" x="16.1445" y="87.9961" width="61.9988" height="61.9989" filterUnits="userSpaceOnUse" color-interpolation-filters="sRGB">
<feFlood flood-opacity="0" result="BackgroundImageFix"/>
<feColorMatrix in="SourceAlpha" type="matrix" values="0 0 0 0 0 0 0 0 0 0 0 0 0 0 0 0 0 0 127 0"/>
<feOffset dy="4"/>
<feGaussianBlur stdDeviation="8"/>
<feColorMatrix type="matrix" values="0 0 0 0 0.191667 0 0 0 0 0.418 0 0 0 0 1 0 0 0 0.37 0"/>
<feBlend mode="normal" in2="BackgroundImageFix" result="effect1_dropShadow"/>
<feBlend mode="normal" in="SourceGraphic" in2="effect1_dropShadow" result="shape"/>
<feColorMatrix in="SourceAlpha" type="matrix" values="0 0 0 0 0 0 0 0 0 0 0 0 0 0 0 0 0 0 127 0" result="hardAlpha"/>
<feOffset dy="-4"/>
<feGaussianBlur stdDeviation="6"/>
<feComposite in2="hardAlpha" operator="arithmetic" k2="-1" k3="1"/>
<feColorMatrix type="matrix" values="0 0 0 0 0.115278 0 0 0 0 0.166 0 0 0 0 0.345833 0 0 0 0.14 0"/>
<feBlend mode="normal" in2="shape" result="effect2_innerShadow"/>
</filter>
</defs>
</svg>
